SplineFontDB: 3.0
FontName: Kalyani
FullName: Kalyani
FamilyName: Kalyani
Weight: Book
Copyright: Created by Shaji N Vyapron\n<nvshaji@netscape.net> with PfaEdit from Orginal TeX fonts for Malayalam (C) Jeroen Hellingman <jehe@kabelfoon.nl>\nLicensed under GNU GPL as MalOtf.\n\nConverted to SMC Meera04 font format by Hiran Venugopalan <hiran.v@gmail.com> 
Version:  Version 1.3
ItalicAngle: 0
UnderlinePosition: -61
UnderlineWidth: 24
Ascent: 800
Descent: 200
LayerCount: 2
Layer: 0 1 "Back"  1
Layer: 1 1 "Fore"  0
NeedsXUIDChange: 1
XUID: [1021 400 913805956 10687321]
FSType: 2
OS2Version: 1
OS2_WeightWidthSlopeOnly: 0
OS2_UseTypoMetrics: 1
CreationTime: 1136575263
ModificationTime: 1272651605
PfmFamily: 81
TTFWeight: 400
TTFWidth: 5
LineGap: 0
VLineGap: 0
Panose: 0 0 4 0 0 0 0 0 0 0
OS2TypoAscent: -58
OS2TypoAOffset: 1
OS2TypoDescent: -269
OS2TypoDOffset: 1
OS2TypoLinegap: 0
OS2WinAscent: -10
OS2WinAOffset: 1
OS2WinDescent: 17
OS2WinDOffset: 1
HheadAscent: -10
HheadAOffset: 1
HheadDescent: -17
HheadDOffset: 1
OS2SubXSize: 700
OS2SubYSize: 650
OS2SubXOff: 0
OS2SubYOff: 143
OS2SupXSize: 700
OS2SupYSize: 650
OS2SupXOff: 0
OS2SupYOff: 453
OS2StrikeYSize: 57
OS2StrikeYPos: 236
OS2Vendor: 'NCST'
OS2CodePages: 00000001.00000000
OS2UnicodeRanges: 00000003.00000000.00000000.00000000
Lookup: 4 0 0 "'akhn' Akhand in Malay+AQEA-lam lookup 0"  {"'akhn' Akhand in Malay+AQEA-lam lookup 0 subtable"  } ['akhn' ('mlym' <'dflt' > ) ]
Lookup: 4 0 0 "'half' Half Forms in Malay+AQEA-lam lookup 1"  {"'half' Half Forms in Malay+AQEA-lam lookup 1 subtable"  } ['half' ('mlym' <'dflt' > ) ]
Lookup: 4 0 0 "'haln' Halant Forms in Malay+AQEA-lam lookup 2"  {"'haln' Halant Forms in Malay+AQEA-lam lookup 2 subtable"  } ['haln' ('mlym' <'dflt' > ) ]
Lookup: 4 0 0 "'pres' Pre Base Substitutions in Malay+AQEA-lam lookup 3"  {"'pres' Pre Base Substitutions in Malay+AQEA-lam lookup 3 subtable"  } ['pres' ('mlym' <'dflt' > ) ]

StartChar: .notdef
Encoding: 65536 -1 0
Width: 500
Flags: W
LayerCount: 2
Fore
SplineSet
62 0 m 1,0,-1
 62 742 l 1,1,-1
 438 742 l 1,2,-1
 438 0 l 1,3,-1
 62 0 l 1,0,-1
125 62 m 1,4,-1
 375 62 l 1,5,-1
 375 680 l 1,6,-1
 125 680 l 1,7,-1
 125 62 l 1,4,-1
EndSplineSet
Ligature2: "'half' Half Forms in Malay+AQEA-lam lookup 1 subtable" uni0D2C uni0D4D
EndChar

StartChar: exclam
Encoding: 33 33 4
Width: 278
GlyphClass: 2
Flags: W
LayerCount: 2
Fore
SplineSet
208 729 m 1,0,-1
 208 391 l 1,1,-1
 186 168 l 1,2,-1
 147 168 l 1,3,-1
 125 391 l 1,4,-1
 125 729 l 1,5,-1
 208 729 l 1,0,-1
208 104 m 1,6,-1
 208 0 l 1,7,-1
 124 0 l 1,8,-1
 124 104 l 1,9,-1
 208 104 l 1,6,-1
EndSplineSet
EndChar

StartChar: quotedbl
Encoding: 34 34 5
Width: 355
GlyphClass: 2
Flags: W
LayerCount: 2
Fore
SplineSet
52 709 m 1,0,-1
 145 709 l 1,1,-1
 145 598 l 1,2,-1
 118 464 l 1,3,-1
 79 464 l 1,4,-1
 52 598 l 1,5,-1
 52 709 l 1,0,-1
212 709 m 1,6,-1
 305 709 l 1,7,-1
 305 598 l 1,8,-1
 278 464 l 1,9,-1
 239 464 l 1,10,-1
 212 598 l 1,11,-1
 212 709 l 1,6,-1
EndSplineSet
EndChar

StartChar: numbersign
Encoding: 35 35 6
Width: 556
GlyphClass: 2
Flags: W
LayerCount: 2
Fore
SplineSet
485 697 m 1,0,-1
 449 501 l 1,1,-1
 542 501 l 1,2,-1
 542 433 l 1,3,-1
 436 433 l 1,4,-1
 405 259 l 1,5,-1
 510 259 l 1,6,-1
 510 191 l 1,7,-1
 393 191 l 1,8,-1
 354 -20 l 1,9,-1
 278 -20 l 1,10,-1
 316 191 l 1,11,-1
 192 191 l 1,12,-1
 153 -20 l 1,13,-1
 77 -20 l 1,14,-1
 115 191 l 1,15,-1
 14 191 l 1,16,-1
 14 259 l 1,17,-1
 128 259 l 1,18,-1
 159 433 l 1,19,-1
 51 433 l 1,20,-1
 51 501 l 1,21,-1
 172 501 l 1,22,-1
 208 697 l 1,23,-1
 284 697 l 1,24,-1
 248 501 l 1,25,-1
 373 501 l 1,26,-1
 408 697 l 1,27,-1
 485 697 l 1,0,-1
360 433 m 1,28,-1
 236 433 l 1,29,-1
 204 259 l 1,30,-1
 329 259 l 1,31,-1
 360 433 l 1,28,-1
EndSplineSet
EndChar

StartChar: dollar
Encoding: 36 36 7
Width: 556
GlyphClass: 2
Flags: W
LayerCount: 2
Fore
SplineSet
243 770 m 1,0,-1
 302 770 l 1,1,-1
 302 716 l 1,2,3
 427 707 427 707 474 615 c 0,4,5
 496 574 496 574 496 520 c 2,6,-1
 496 519 l 1,7,-1
 417 519 l 1,8,9
 416 596 416 596 359 630 c 0,10,11
 339 641 339 641 315 645 c 1,12,-1
 302 646 l 1,13,-1
 302 397 l 1,14,15
 400 366 400 366 431 350 c 2,16,-1
 433 349 l 1,17,18
 517 301 517 301 518 196 c 1,19,-1
 518 195 l 2,20,21
 518 91 518 91 450 30 c 1,22,-1
 426 12 l 1,23,24
 377 -17 377 -17 302 -23 c 1,25,-1
 302 -126 l 1,26,-1
 243 -126 l 1,27,-1
 243 -23 l 1,28,29
 90 -13 90 -13 46 104 c 1,30,31
 30 150 30 150 33 208 c 1,32,-1
 112 208 l 1,33,34
 119 134 119 134 133 110 c 2,35,-1
 137 103 l 1,36,37
 172 55 172 55 243 46 c 1,38,-1
 243 318 l 1,39,40
 150 346 150 346 117 370 c 0,41,42
 46 421 46 421 46 515 c 2,43,-1
 46 516 l 2,44,45
 46 662 46 662 186 704 c 0,46,47
 212 712 212 712 243 716 c 1,48,-1
 243 770 l 1,0,-1
243 405 m 1,49,-1
 243 645 l 1,50,51
 147 632 147 632 130 556 c 1,52,-1
 127 526 l 1,53,54
 127 436 127 436 243 405 c 1,49,-1
302 309 m 1,55,-1
 302 46 l 1,56,57
 363 53 363 53 394 83 c 0,58,59
 436 123 436 123 436 182 c 2,60,-1
 436 183 l 2,61,62
 436 243 436 243 389 274 c 0,63,64
 360 292 360 292 302 309 c 1,55,-1
EndSplineSet
EndChar

StartChar: percent
Encoding: 37 37 8
Width: 889
GlyphClass: 2
Flags: W
LayerCount: 2
Fore
SplineSet
199 685 m 0,0,1
 283 685 283 685 334 619 c 1,2,-1
 334 619 l 1,3,4
 370 573 370 573 370 513 c 2,5,-1
 370 512 l 2,6,7
 370 433 370 433 307 382 c 0,8,9
 260 343 260 343 200 343 c 0,10,11
 119 343 119 343 67 406 c 0,12,13
 29 453 29 453 29 513 c 2,14,-1
 29 514 l 2,15,16
 29 595 29 595 92 647 c 0,17,18
 139 685 139 685 199 685 c 0,0,1
199 615 m 0,19,20
 145 615 145 615 115 569 c 1,21,-1
 114 569 l 1,22,23
 98 544 98 544 98 515 c 2,24,-1
 98 514 l 2,25,26
 98 461 98 461 143 430 c 0,27,28
 169 413 169 413 200 413 c 0,29,30
 254 413 254 413 284 458 c 0,31,32
 301 483 301 483 301 512 c 2,33,-1
 301 513 l 2,34,35
 301 570 301 570 253 600 c 0,36,37
 229 615 229 615 199 615 c 0,19,20
609 709 m 1,38,-1
 675 709 l 1,39,-1
 280 -20 l 1,40,-1
 214 -20 l 1,41,-1
 609 709 l 1,38,-1
688 322 m 0,42,43
 773 322 773 322 824 256 c 0,44,45
 859 210 859 210 859 151 c 2,46,-1
 859 150 l 2,47,48
 859 71 859 71 796 20 c 0,49,50
 749 -19 749 -19 689 -19 c 0,51,52
 608 -19 608 -19 556 44 c 0,53,54
 518 91 518 91 518 151 c 2,55,-1
 518 152 l 2,56,57
 518 233 518 233 582 284 c 0,58,59
 629 322 629 322 688 322 c 0,42,43
688 252 m 2,60,61
 634 252 634 252 604 207 c 0,62,63
 587 182 587 182 587 153 c 2,64,-1
 587 152 l 2,65,66
 587 97 587 97 634 67 c 1,67,-1
 635 67 l 1,68,-1
 635 66 l 1,69,-1
 636 66 l 1,70,-1
 637 65 l 1,71,72
 661 51 661 51 689 51 c 0,73,74
 743 51 743 51 773 96 c 0,75,76
 790 120 790 120 790 149 c 2,77,-1
 790 150 l 2,78,79
 790 207 790 207 742 237 c 1,80,-1
 742 237 l 1,81,-1
 741 238 l 1,82,83
 724 248 724 248 704 251 c 2,84,-1
 695 252 l 1,85,-1
 689 252 l 1,86,-1
 688 252 l 2,60,61
EndSplineSet
EndChar

StartChar: ampersand
Encoding: 38 38 9
Width: 667
GlyphClass: 2
Flags: W
LayerCount: 2
Fore
SplineSet
493 334 m 1,0,-1
 573 334 l 1,1,2
 573 240 573 240 515 151 c 1,3,-1
 637 0 l 1,4,-1
 528 0 l 1,5,-1
 466 78 l 1,6,7
 417 30 417 30 389 13 c 0,8,9
 333 -23 333 -23 257 -23 c 0,10,11
 141 -23 141 -23 85 59 c 0,12,13
 52 108 52 108 52 175 c 2,14,-1
 52 176 l 2,15,16
 52 257 52 257 104 310 c 0,17,18
 140 346 140 346 214 389 c 1,19,20
 144 477 144 477 135 525 c 1,21,-1
 135 526 l 1,22,-1
 133 547 l 1,23,-1
 133 552 l 2,24,25
 133 629 133 629 198 676 c 0,26,27
 244 709 244 709 304 709 c 0,28,29
 394 709 394 709 440 643 c 1,30,-1
 440 642 l 1,31,32
 464 608 464 608 467 563 c 1,33,-1
 467 553 l 1,34,-1
 467 552 l 2,35,36
 467 483 467 483 412 434 c 0,37,38
 383 409 383 409 330 379 c 1,39,-1
 329 378 l 1,40,-1
 462 215 l 1,41,42
 495 272 495 272 493 334 c 1,0,-1
285 431 m 1,43,44
 366 482 366 482 381 519 c 0,45,46
 388 534 388 534 388 553 c 2,47,-1
 388 554 l 2,48,49
 388 606 388 606 343 629 c 0,50,51
 324 639 324 639 301 639 c 0,52,53
 241 639 241 639 221 589 c 0,54,55
 215 574 215 574 215 555 c 2,56,-1
 215 553 l 2,57,58
 215 520 215 520 240 485 c 1,59,-1
 241 484 l 1,60,-1
 241 484 l 1,61,-1
 242 483 l 1,62,-1
 243 482 l 1,63,-1
 243 482 l 1,64,-1
 285 431 l 1,43,44
418 137 m 1,65,-1
 258 337 l 1,66,67
 164 277 164 277 144 227 c 0,68,69
 136 207 136 207 136 184 c 2,70,-1
 136 183 l 2,71,72
 136 118 136 118 190 80 c 0,73,74
 225 55 225 55 267 55 c 0,75,76
 334 55 334 55 402 120 c 1,77,-1
 416 135 l 1,78,-1
 416 135 l 1,79,-1
 417 136 l 1,80,-1
 418 137 l 1,65,-1
EndSplineSet
EndChar

StartChar: quotesingle
Encoding: 39 39 10
Width: 221
GlyphClass: 2
Flags: W
LayerCount: 2
Fore
SplineSet
64 729 m 1,0,-1
 157 729 l 1,1,-1
 157 628 l 2,2,3
 157 514 157 514 76 499 c 1,4,-1
 64 497 l 1,5,-1
 64 535 l 1,6,7
 109 541 109 541 112 607 c 1,8,-1
 112 625 l 1,9,-1
 64 625 l 1,10,-1
 64 729 l 1,0,-1
EndSplineSet
EndChar

StartChar: parenleft
Encoding: 40 40 11
Width: 333
GlyphClass: 2
Flags: W
LayerCount: 2
Fore
SplineSet
236 729 m 1,0,-1
 291 729 l 1,1,2
 167 529 167 529 155 300 c 1,3,-1
 154 259 l 1,4,5
 154 26 154 26 276 -187 c 1,6,-1
 291 -212 l 1,7,-1
 236 -212 l 1,8,9
 123 -64 123 -64 86 128 c 0,10,11
 73 194 73 194 73 258 c 2,12,-1
 73 259 l 2,13,14
 73 436 73 436 165 615 c 0,15,16
 196 677 196 677 236 729 c 1,0,-1
EndSplineSet
EndChar

StartChar: parenright
Encoding: 41 41 12
Width: 333
GlyphClass: 2
Flags: W
LayerCount: 2
Fore
SplineSet
93 -212 m 1,0,-1
 38 -212 l 1,1,2
 162 -12 162 -12 174 217 c 1,3,-1
 175 258 l 1,4,5
 175 491 175 491 53 704 c 1,6,-1
 38 729 l 1,7,-1
 93 729 l 1,8,9
 206 581 206 581 243 389 c 0,10,11
 256 323 256 323 256 259 c 2,12,-1
 256 258 l 2,13,14
 256 80 256 80 164 -98 c 0,15,16
 133 -159 133 -159 93 -212 c 1,0,-1
EndSplineSet
EndChar

StartChar: asterisk
Encoding: 42 42 13
Width: 389
GlyphClass: 2
Flags: W
LayerCount: 2
Fore
SplineSet
160 729 m 1,0,-1
 223 729 l 1,1,-1
 218 617 l 1,2,-1
 324 655 l 1,3,-1
 343 596 l 1,4,-1
 235 566 l 1,5,-1
 305 477 l 1,6,-1
 254 441 l 1,7,-1
 192 534 l 1,8,-1
 129 441 l 1,9,-1
 79 477 l 1,10,-1
 148 566 l 1,11,-1
 40 596 l 1,12,-1
 59 655 l 1,13,-1
 165 617 l 1,14,-1
 160 729 l 1,0,-1
EndSplineSet
EndChar

StartChar: plus
Encoding: 43 43 14
Width: 584
GlyphClass: 2
Flags: W
LayerCount: 2
Fore
SplineSet
534 267 m 1,0,-1
 534 197 l 1,1,-1
 327 197 l 1,2,-1
 327 -10 l 1,3,-1
 257 -10 l 1,4,-1
 257 197 l 1,5,-1
 50 197 l 1,6,-1
 50 267 l 1,7,-1
 257 267 l 1,8,-1
 257 474 l 1,9,-1
 327 474 l 1,10,-1
 327 267 l 1,11,-1
 534 267 l 1,0,-1
EndSplineSet
EndChar

StartChar: comma
Encoding: 44 44 15
Width: 278
GlyphClass: 2
Flags: W
LayerCount: 2
Fore
SplineSet
87 104 m 1,0,-1
 192 104 l 1,1,-1
 192 -16 l 2,2,3
 192 -147 192 -147 87 -147 c 1,4,-1
 87 -109 l 1,5,6
 130 -107 130 -107 140 -76 c 1,7,8
 147 -58 147 -58 147 -19 c 2,9,-1
 147 -18 l 1,10,-1
 147 0 l 1,11,-1
 87 0 l 1,12,-1
 87 104 l 1,0,-1
EndSplineSet
EndChar

StartChar: hyphen
Encoding: 45 45 16
Width: 333
GlyphClass: 2
Flags: W
LayerCount: 2
Fore
SplineSet
284 312 m 1,0,-1
 284 240 l 1,1,-1
 46 240 l 1,2,-1
 46 312 l 1,3,-1
 284 312 l 1,0,-1
EndSplineSet
EndChar

StartChar: period
Encoding: 46 46 17
Width: 278
GlyphClass: 2
Flags: W
LayerCount: 2
Fore
SplineSet
191 104 m 1,0,-1
 191 0 l 1,1,-1
 87 0 l 1,2,-1
 87 104 l 1,3,-1
 191 104 l 1,0,-1
EndSplineSet
EndChar

StartChar: slash
Encoding: 47 47 18
Width: 278
GlyphClass: 2
Flags: W
LayerCount: 2
Fore
SplineSet
229 729 m 1,0,-1
 284 729 l 1,1,-1
 47 -20 l 1,2,-1
 -8 -20 l 1,3,-1
 229 729 l 1,0,-1
EndSplineSet
EndChar

StartChar: zero
Encoding: 48 48 19
Width: 556
GlyphClass: 2
Flags: W
LayerCount: 2
Fore
SplineSet
275 709 m 2,0,1
 378 709 378 709 436 634 c 1,2,-1
 438 631 l 1,3,4
 507 537 507 537 507 338 c 2,5,-1
 507 337 l 2,6,7
 507 66 507 66 369 -3 c 0,8,9
 327 -23 327 -23 275 -23 c 0,10,11
 99 -23 99 -23 56 193 c 0,12,13
 43 258 43 258 43 342 c 2,14,-1
 43 343 l 2,15,16
 43 538 43 538 112 631 c 1,17,18
 166 702 166 702 261 709 c 1,19,-1
 275 709 l 2,0,1
275 631 m 0,20,21
 135 631 135 631 133 352 c 1,22,-1
 133 344 l 1,23,24
 133 343 133 343 133 344 c 1,25,-1
 133 342 l 2,26,27
 133 50 133 50 273 50 c 0,28,29
 391 50 391 50 412 242 c 0,30,31
 417 287 417 287 417 344 c 2,32,-1
 417 345 l 2,33,34
 417 631 417 631 275 631 c 0,20,21
EndSplineSet
EndChar

StartChar: one
Encoding: 49 49 20
Width: 556
GlyphClass: 2
Flags: W
LayerCount: 2
Fore
SplineSet
259 505 m 1,0,-1
 102 505 l 1,1,-1
 102 568 l 1,2,3
 204 581 204 581 234 604 c 1,4,-1
 235 604 l 1,5,-1
 252 621 l 1,6,7
 271 645 271 645 289 709 c 1,8,-1
 347 709 l 1,9,-1
 347 0 l 1,10,-1
 259 0 l 1,11,-1
 259 505 l 1,0,-1
EndSplineSet
EndChar

StartChar: two
Encoding: 50 50 21
Width: 556
GlyphClass: 2
Flags: W
LayerCount: 2
Fore
SplineSet
506 87 m 1,0,-1
 506 0 l 1,1,-1
 34 0 l 1,2,3
 41 128 41 128 91 195 c 0,4,5
 133 250 133 250 233 307 c 2,6,-1
 325 359 l 2,7,8
 420 413 420 413 421 498 c 1,9,-1
 421 499 l 2,10,11
 421 571 421 571 361 610 c 0,12,13
 326 632 326 632 282 632 c 2,14,-1
 281 632 l 2,15,16
 206 632 206 632 166 575 c 1,17,-1
 160 565 l 1,18,-1
 160 564 l 1,19,-1
 159 563 l 1,20,21
 142 531 142 531 138 463 c 1,22,-1
 50 463 l 1,23,24
 53 563 53 563 88 617 c 0,25,26
 148 709 148 709 284 709 c 0,27,28
 383 709 383 709 445 653 c 0,29,30
 511 594 511 594 511 502 c 2,31,-1
 511 501 l 2,32,33
 511 369 511 369 361 287 c 2,34,-1
 261 233 l 1,35,36
 171 180 171 180 146 131 c 1,37,38
 137 111 137 111 133 87 c 1,39,-1
 506 87 l 1,0,-1
EndSplineSet
EndChar

StartChar: three
Encoding: 51 51 22
Width: 556
GlyphClass: 2
Flags: W
LayerCount: 2
Fore
SplineSet
221 325 m 1,0,-1
 221 400 l 1,1,2
 305 401 305 401 338 415 c 0,3,4
 393 438 393 438 395 509 c 1,5,-1
 395 511 l 2,6,7
 395 596 395 596 325 623 c 0,8,9
 301 632 301 632 270 632 c 0,10,11
 191 632 191 632 156 578 c 1,12,-1
 151 569 l 2,13,14
 136 540 136 540 135 480 c 1,15,-1
 47 480 l 1,16,17
 51 690 51 690 237 708 c 1,18,-1
 269 709 l 1,19,20
 408 709 408 709 460 616 c 0,21,22
 485 573 485 573 485 515 c 2,23,-1
 485 514 l 2,24,25
 485 406 485 406 386 367 c 1,26,27
 479 335 479 335 499 259 c 0,28,29
 506 234 506 234 506 200 c 2,30,-1
 506 199 l 1,31,-1
 506 198 l 2,32,33
 506 75 506 75 412 15 c 0,34,35
 352 -23 352 -23 266 -23 c 0,36,37
 119 -23 119 -23 64 79 c 1,38,-1
 63 80 l 1,39,40
 37 128 37 128 32 206 c 1,41,-1
 120 206 l 1,42,43
 128 74 128 74 233 58 c 0,44,45
 250 55 250 55 269 55 c 0,46,47
 373 55 373 55 405 134 c 0,48,49
 416 161 416 161 416 196 c 2,50,-1
 416 197 l 2,51,52
 416 326 416 326 269 326 c 1,53,-1
 232 325 l 1,54,-1
 221 325 l 1,0,-1
EndSplineSet
EndChar

StartChar: four
Encoding: 52 52 23
Width: 556
GlyphClass: 2
Flags: W
LayerCount: 2
Fore
SplineSet
327 170 m 1,0,-1
 28 170 l 1,1,-1
 28 263 l 1,2,-1
 350 709 l 1,3,-1
 415 709 l 1,4,-1
 415 249 l 1,5,-1
 520 249 l 1,6,-1
 520 170 l 1,7,-1
 415 170 l 1,8,-1
 415 0 l 1,9,-1
 327 0 l 1,10,-1
 327 170 l 1,0,-1
327 249 m 1,11,-1
 327 559 l 1,12,-1
 105 249 l 1,13,-1
 327 249 l 1,11,-1
EndSplineSet
EndChar

StartChar: five
Encoding: 53 53 24
Width: 556
GlyphClass: 2
Flags: W
LayerCount: 2
Fore
SplineSet
476 709 m 1,0,-1
 476 622 l 1,1,-1
 181 622 l 1,2,-1
 153 424 l 1,3,4
 212 467 212 467 284 467 c 0,5,6
 404 467 404 467 468 380 c 0,7,8
 513 319 513 319 513 232 c 2,9,-1
 513 231 l 2,10,11
 513 102 513 102 426 30 c 0,12,13
 362 -23 362 -23 270 -23 c 0,14,15
 158 -23 158 -23 93 44 c 1,16,-1
 78 62 l 2,17,18
 51 95 51 95 35 172 c 1,19,-1
 35 174 l 1,20,-1
 123 174 l 1,21,22
 154 56 154 56 268 55 c 0,23,24
 369 55 369 55 407 136 c 0,25,26
 423 171 423 171 423 218 c 2,27,-1
 423 219 l 2,28,29
 423 328 423 328 347 370 c 0,30,31
 313 389 313 389 268 389 c 0,32,33
 204 389 204 389 159 346 c 1,34,-1
 138 323 l 1,35,-1
 57 323 l 1,36,-1
 110 709 l 1,37,-1
 476 709 l 1,0,-1
EndSplineSet
EndChar

StartChar: six
Encoding: 54 54 25
Width: 556
GlyphClass: 2
Flags: W
LayerCount: 2
Fore
SplineSet
498 524 m 1,0,-1
 410 524 l 1,1,2
 392 612 392 612 319 628 c 1,3,-1
 291 631 l 1,4,5
 180 631 180 631 146 487 c 0,6,7
 133 433 133 433 133 362 c 1,8,9
 191 441 191 441 296 441 c 0,10,11
 407 441 407 441 469 358 c 0,12,13
 513 299 513 299 513 217 c 2,14,-1
 513 216 l 2,15,16
 513 97 513 97 431 29 c 0,17,18
 369 -23 369 -23 281 -23 c 0,19,20
 162 -23 162 -23 103 65 c 0,21,22
 45 152 45 152 43 311 c 1,23,-1
 43 323 l 2,24,25
 43 508 43 508 107 608 c 1,26,27
 163 691 163 691 262 706 c 1,28,-1
 297 709 l 1,29,30
 412 709 412 709 467 616 c 0,31,32
 490 577 490 577 498 525 c 1,33,-1
 498 524 l 1,0,-1
285 363 m 0,34,35
 200 363 200 363 160 297 c 0,36,37
 138 262 138 262 138 215 c 2,38,-1
 138 214 l 2,39,40
 138 128 138 128 199 82 c 0,41,42
 235 55 235 55 282 55 c 0,43,44
 358 55 358 55 398 118 c 0,45,46
 423 157 423 157 423 208 c 2,47,-1
 423 209 l 2,48,49
 423 311 423 311 352 348 c 0,50,51
 323 363 323 363 285 363 c 0,34,35
EndSplineSet
EndChar

StartChar: seven
Encoding: 55 55 26
Width: 556
GlyphClass: 2
Flags: W
LayerCount: 2
Fore
SplineSet
520 709 m 1,0,-1
 520 635 l 1,1,2
 318 367 318 367 252 96 c 0,3,4
 240 49 240 49 232 0 c 1,5,-1
 138 0 l 1,6,7
 188 216 188 216 281 389 c 0,8,9
 336 490 336 490 429 622 c 1,10,-1
 46 622 l 1,11,-1
 46 709 l 1,12,-1
 520 709 l 1,0,-1
EndSplineSet
EndChar

StartChar: eight
Encoding: 56 56 27
Width: 556
GlyphClass: 2
Flags: W
LayerCount: 2
Fore
SplineSet
391 373 m 1,0,1
 512 315 512 315 513 197 c 1,2,-1
 513 196 l 2,3,4
 513 84 513 84 427 23 c 1,5,6
 364 -23 364 -23 275 -23 c 0,7,8
 151 -23 151 -23 84 59 c 0,9,10
 37 116 37 116 37 196 c 2,11,-1
 37 197 l 2,12,13
 37 314 37 314 158 373 c 1,14,15
 86 418 86 418 70 466 c 0,16,17
 62 488 62 488 62 519 c 2,18,-1
 62 520 l 2,19,20
 62 619 62 619 143 672 c 0,21,22
 198 709 198 709 275 709 c 0,23,24
 391 709 391 709 450 633 c 1,25,26
 488 586 488 586 488 521 c 2,27,-1
 488 520 l 2,28,29
 488 452 488 452 443 411 c 1,30,-1
 443 410 l 1,31,-1
 443 410 l 1,32,33
 424 393 424 393 392 374 c 1,34,-1
 391 373 l 1,0,1
275 631 m 0,35,36
 195 631 195 631 165 573 c 1,37,-1
 164 572 l 1,38,-1
 164 572 l 1,39,40
 152 549 152 549 152 520 c 2,41,-1
 152 519 l 2,42,43
 152 449 152 449 213 421 c 0,44,45
 240 408 240 408 274 408 c 2,46,-1
 275 408 l 2,47,48
 355 408 355 408 385 465 c 1,49,-1
 386 466 l 1,50,51
 398 489 398 489 398 517 c 2,52,-1
 398 518 l 2,53,54
 398 593 398 593 333 620 c 0,55,56
 308 631 308 631 275 631 c 0,35,36
275 334 m 0,57,58
 186 334 186 334 147 270 c 0,59,60
 127 238 127 238 127 196 c 2,61,-1
 127 195 l 2,62,63
 127 113 127 113 193 75 c 0,64,65
 227 55 227 55 273 55 c 0,66,67
 364 55 364 55 403 120 c 0,68,69
 423 152 423 152 423 194 c 2,70,-1
 423 195 l 2,71,72
 423 277 423 277 356 315 c 0,73,74
 321 334 321 334 275 334 c 0,57,58
EndSplineSet
EndChar

StartChar: nine
Encoding: 57 57 28
Width: 556
GlyphClass: 2
Flags: W
LayerCount: 2
Fore
SplineSet
53 162 m 1,0,-1
 141 162 l 1,1,2
 159 75 159 75 232 58 c 1,3,-1
 260 55 l 1,4,5
 371 55 371 55 405 199 c 0,6,7
 418 253 418 253 418 324 c 1,8,9
 353 247 353 247 261 245 c 1,10,-1
 256 245 l 2,11,12
 144 245 144 245 82 328 c 0,13,14
 38 387 38 387 38 469 c 2,15,-1
 38 470 l 2,16,17
 38 589 38 589 120 657 c 0,18,19
 182 709 182 709 270 709 c 0,20,21
 389 709 389 709 449 621 c 1,22,23
 507 534 507 534 509 375 c 1,24,-1
 509 363 l 2,25,26
 509 178 509 178 444 78 c 0,27,28
 391 -3 391 -3 294 -20 c 1,29,-1
 254 -23 l 1,30,31
 139 -23 139 -23 84 70 c 0,32,33
 61 110 61 110 53 162 c 1,0,-1
269 632 m 0,34,35
 193 632 193 632 153 568 c 1,36,-1
 152 567 l 1,37,38
 128 529 128 529 128 478 c 2,39,-1
 128 477 l 2,40,41
 128 375 128 375 199 338 c 0,42,43
 228 323 228 323 266 323 c 0,44,45
 349 323 349 323 390 388 c 0,46,47
 413 424 413 424 413 471 c 2,48,-1
 413 472 l 2,49,50
 413 559 413 559 352 605 c 0,51,52
 315 632 315 632 269 632 c 0,34,35
EndSplineSet
EndChar

StartChar: colon
Encoding: 58 58 29
Width: 278
GlyphClass: 2
Flags: W
LayerCount: 2
Fore
SplineSet
214 104 m 1,0,-1
 214 0 l 1,1,-1
 110 0 l 1,2,-1
 110 104 l 1,3,-1
 214 104 l 1,0,-1
214 524 m 1,4,-1
 214 420 l 1,5,-1
 110 420 l 1,6,-1
 110 524 l 1,7,-1
 214 524 l 1,4,-1
EndSplineSet
EndChar

StartChar: semicolon
Encoding: 59 59 30
Width: 278
GlyphClass: 2
Flags: W
LayerCount: 2
Fore
SplineSet
215 524 m 1,0,-1
 215 420 l 1,1,-1
 111 420 l 1,2,-1
 111 524 l 1,3,-1
 215 524 l 1,0,-1
110 104 m 1,4,-1
 215 104 l 1,5,-1
 215 -16 l 2,6,7
 215 -147 215 -147 110 -147 c 1,8,-1
 110 -109 l 1,9,10
 153 -107 153 -107 163 -76 c 1,11,12
 170 -58 170 -58 170 -19 c 2,13,-1
 170 -18 l 1,14,-1
 170 0 l 1,15,-1
 110 0 l 1,16,-1
 110 104 l 1,4,-1
EndSplineSet
EndChar

StartChar: less
Encoding: 60 60 31
Width: 584
GlyphClass: 2
Flags: W
LayerCount: 2
Fore
SplineSet
45 198 m 1,0,-1
 45 267 l 1,1,-1
 534 474 l 1,2,-1
 534 395 l 1,3,-1
 140 234 l 1,4,-1
 534 70 l 1,5,-1
 534 -9 l 1,6,-1
 45 198 l 1,0,-1
EndSplineSet
EndChar

StartChar: equal
Encoding: 61 61 32
Width: 584
GlyphClass: 2
Flags: W
LayerCount: 2
Fore
SplineSet
534 353 m 1,0,-1
 534 283 l 1,1,-1
 50 283 l 1,2,-1
 50 353 l 1,3,-1
 534 353 l 1,0,-1
534 181 m 1,4,-1
 534 111 l 1,5,-1
 50 111 l 1,6,-1
 50 181 l 1,7,-1
 534 181 l 1,4,-1
EndSplineSet
EndChar

StartChar: greater
Encoding: 62 62 33
Width: 584
GlyphClass: 2
Flags: W
LayerCount: 2
Fore
SplineSet
539 267 m 1,0,-1
 539 198 l 1,1,-1
 50 -9 l 1,2,-1
 50 70 l 1,3,-1
 444 231 l 1,4,-1
 50 395 l 1,5,-1
 50 474 l 1,6,-1
 539 267 l 1,0,-1
EndSplineSet
EndChar

StartChar: question
Encoding: 63 63 34
Width: 556
GlyphClass: 2
Flags: W
LayerCount: 2
Fore
SplineSet
330 199 m 1,0,-1
 240 199 l 1,1,-1
 240 254 l 2,2,3
 240 304 240 304 268 341 c 0,4,5
 285 363 285 363 320 396 c 1,6,-1
 322 397 l 1,7,-1
 344 417 l 2,8,9
 418 483 418 483 419 547 c 1,10,-1
 419 547 l 1,11,-1
 419 548 l 1,12,-1
 419 549 l 2,13,14
 419 619 419 619 358 649 c 1,15,-1
 357 649 l 1,16,17
 328 663 328 663 291 663 c 0,18,19
 209 663 209 663 179 605 c 0,20,21
 162 571 162 571 162 508 c 2,22,-1
 162 507 l 1,23,-1
 77 507 l 1,24,25
 77 718 77 718 257 739 c 1,26,-1
 296 741 l 1,27,28
 422 741 422 741 478 658 c 1,29,-1
 479 657 l 1,30,-1
 479 656 l 1,31,32
 509 611 509 611 509 550 c 2,33,-1
 509 549 l 2,34,35
 509 479 509 479 458 420 c 0,36,37
 439 397 439 397 409 370 c 0,38,39
 346 312 346 312 336 285 c 0,40,41
 330 270 330 270 330 247 c 2,42,-1
 330 246 l 1,43,-1
 330 199 l 1,0,-1
330 104 m 1,44,-1
 330 0 l 1,45,-1
 240 0 l 1,46,-1
 240 104 l 1,47,-1
 330 104 l 1,44,-1
EndSplineSet
EndChar

StartChar: at
Encoding: 64 64 35
Width: 1015
GlyphClass: 2
Flags: W
LayerCount: 2
Fore
SplineSet
665 501 m 1,0,-1
 748 501 l 1,1,-1
 658 221 l 1,2,3
 646 189 646 189 646 172 c 2,4,-1
 646 171 l 2,5,6
 646 145 646 145 675 131 c 1,7,-1
 676 131 l 1,8,9
 685 127 685 127 696 127 c 0,10,11
 760 127 760 127 813 199 c 1,12,13
 864 270 864 270 864 356 c 2,14,-1
 864 357 l 2,15,16
 864 477 864 477 767 566 c 0,17,18
 668 658 668 658 527 664 c 1,19,-1
 512 664 l 2,20,21
 365 664 365 664 252 562 c 1,22,-1
 221 531 l 1,23,24
 119 418 119 418 119 274 c 2,25,-1
 119 273 l 2,26,27
 119 132 119 132 224 35 c 0,28,29
 332 -65 332 -65 493 -65 c 2,30,-1
 494 -65 l 2,31,32
 573 -65 573 -65 687 -33 c 1,33,-1
 715 -100 l 1,34,35
 603 -142 603 -142 489 -142 c 0,36,37
 309 -142 309 -142 178 -35 c 0,38,39
 56 65 56 65 37 212 c 1,40,-1
 34 258 l 1,41,42
 34 412 34 412 129 542 c 1,43,-1
 154 573 l 1,44,-1
 156 575 l 1,45,-1
 158 577 l 1,46,-1
 189 609 l 1,47,-1
 191 611 l 1,48,-1
 192 612 l 1,49,50
 300 710 300 710 451 735 c 0,51,52
 488 741 488 741 525 741 c 0,53,54
 691 741 691 741 814 640 c 0,55,56
 930 546 930 546 948 411 c 0,57,58
 951 390 951 390 951 370 c 2,59,-1
 951 369 l 2,60,61
 951 248 951 248 867 149 c 1,62,-1
 865 146 l 1,63,64
 789 57 789 57 679 57 c 0,65,66
 583 57 583 57 569 134 c 1,67,68
 503 62 503 62 428 62 c 2,69,-1
 427 62 l 2,70,71
 345 62 345 62 298 131 c 1,72,73
 264 179 264 179 264 244 c 2,74,-1
 264 245 l 2,75,76
 264 354 264 354 343 438 c 0,77,78
 420 521 420 521 519 522 c 1,79,-1
 521 522 l 2,80,81
 604 522 604 522 642 436 c 1,82,-1
 643 435 l 1,83,-1
 665 501 l 1,0,-1
515 458 m 0,84,85
 449 458 449 458 400 389 c 0,86,87
 354 325 354 325 354 245 c 2,88,-1
 354 244 l 2,89,90
 354 177 354 177 401 143 c 1,91,-1
 402 143 l 1,92,93
 425 126 425 126 452 126 c 2,94,-1
 453 126 l 2,95,96
 511 126 511 126 555 191 c 0,97,98
 588 239 588 239 604 323 c 1,99,-1
 609 362 l 1,100,101
 612 417 612 417 566 444 c 0,102,103
 543 458 543 458 515 458 c 0,84,85
EndSplineSet
EndChar

StartChar: bracketleft
Encoding: 91 91 36
Width: 278
GlyphClass: 2
Flags: W
LayerCount: 2
Fore
SplineSet
250 729 m 1,0,-1
 250 657 l 1,1,-1
 147 657 l 1,2,-1
 147 -140 l 1,3,-1
 250 -140 l 1,4,-1
 250 -212 l 1,5,-1
 64 -212 l 1,6,-1
 64 729 l 1,7,-1
 250 729 l 1,0,-1
EndSplineSet
EndChar

StartChar: backslash
Encoding: 92 92 37
Width: 278
GlyphClass: 2
Flags: W
LayerCount: 2
Fore
SplineSet
47 729 m 1,0,-1
 284 -20 l 1,1,-1
 229 -20 l 1,2,-1
 -8 729 l 1,3,-1
 47 729 l 1,0,-1
EndSplineSet
EndChar

StartChar: bracketright
Encoding: 93 93 38
Width: 278
GlyphClass: 2
Flags: W
LayerCount: 2
Fore
SplineSet
23 -212 m 1,0,-1
 23 -140 l 1,1,-1
 126 -140 l 1,2,-1
 126 657 l 1,3,-1
 23 657 l 1,4,-1
 23 729 l 1,5,-1
 209 729 l 1,6,-1
 209 -212 l 1,7,-1
 23 -212 l 1,0,-1
EndSplineSet
EndChar

StartChar: asciicircum
Encoding: 94 94 39
Width: 469
GlyphClass: 2
Flags: W
LayerCount: 2
Fore
SplineSet
197 709 m 1,0,-1
 270 709 l 1,1,-1
 425 329 l 1,2,-1
 356 329 l 1,3,-1
 234 629 l 1,4,-1
 113 329 l 1,5,-1
 44 329 l 1,6,-1
 197 709 l 1,0,-1
EndSplineSet
EndChar

StartChar: underscore
Encoding: 95 95 40
Width: 556
GlyphClass: 2
Flags: W
LayerCount: 2
Fore
SplineSet
578 -126 m 1,0,-1
 578 -176 l 1,1,-1
 -22 -176 l 1,2,-1
 -22 -126 l 1,3,-1
 578 -126 l 1,0,-1
EndSplineSet
EndChar

StartChar: grave
Encoding: 96 96 41
Width: 222
GlyphClass: 2
Flags: W
LayerCount: 2
Fore
SplineSet
158 477 m 1,0,-1
 65 477 l 1,1,-1
 65 578 l 2,2,3
 65 688 65 688 141 706 c 1,4,-1
 157 709 l 1,5,-1
 158 709 l 1,6,-1
 158 671 l 1,7,8
 109 664 109 664 110 581 c 1,9,-1
 158 581 l 1,10,-1
 158 477 l 1,0,-1
EndSplineSet
EndChar

StartChar: braceleft
Encoding: 123 123 42
Width: 334
GlyphClass: 2
Flags: W
LayerCount: 2
Fore
SplineSet
276 729 m 1,0,-1
 276 664 l 1,1,-1
 261 664 l 2,2,3
 214 664 214 664 203 637 c 1,4,-1
 203 637 l 1,5,6
 198 623 198 623 198 598 c 2,7,-1
 198 597 l 1,8,-1
 198 416 l 2,9,10
 198 318 198 318 157 283 c 1,11,-1
 156 282 l 2,12,13
 146 273 146 273 133 267 c 2,14,-1
 116 259 l 1,15,16
 197 221 197 221 198 103 c 1,17,-1
 198 101 l 1,18,-1
 198 -80 l 2,19,20
 198 -130 198 -130 223 -141 c 0,21,22
 236 -147 236 -147 261 -147 c 2,23,-1
 276 -147 l 1,24,-1
 276 -212 l 1,25,-1
 230 -212 l 2,26,27
 148 -212 148 -212 127 -132 c 0,28,29
 121 -110 121 -110 121 -82 c 2,30,-1
 121 -81 l 1,31,-1
 121 86 l 2,32,33
 121 179 121 179 86 206 c 0,34,35
 70 218 70 218 43 224 c 1,36,-1
 43 293 l 1,37,38
 97 304 97 304 111 348 c 1,39,40
 121 376 121 376 121 430 c 2,41,-1
 121 431 l 1,42,-1
 121 598 l 2,43,44
 121 700 121 700 192 723 c 0,45,46
 210 729 210 729 230 729 c 2,47,-1
 276 729 l 1,0,-1
EndSplineSet
EndChar

StartChar: bar
Encoding: 124 124 43
Width: 260
GlyphClass: 2
Flags: W
LayerCount: 2
Fore
SplineSet
100 729 m 1,0,-1
 160 729 l 1,1,-1
 160 -212 l 1,2,-1
 100 -212 l 1,3,-1
 100 729 l 1,0,-1
EndSplineSet
EndChar

StartChar: braceright
Encoding: 125 125 44
Width: 334
GlyphClass: 2
Flags: W
LayerCount: 2
Fore
SplineSet
29 -212 m 1,0,-1
 29 -147 l 1,1,-1
 45 -147 l 2,2,3
 93 -147 93 -147 104 -120 c 0,4,5
 108 -109 108 -109 109 -90 c 1,6,-1
 109 -80 l 1,7,-1
 109 101 l 2,8,9
 109 221 109 221 191 258 c 1,10,11
 110 296 110 296 109 414 c 1,12,-1
 109 416 l 1,13,-1
 109 597 l 2,14,15
 109 647 109 647 83 658 c 0,16,17
 70 664 70 664 45 664 c 2,18,-1
 29 664 l 1,19,-1
 29 729 l 1,20,-1
 76 729 l 2,21,22
 159 729 159 729 180 648 c 0,23,24
 186 626 186 626 186 599 c 2,25,-1
 186 598 l 1,26,-1
 186 431 l 2,27,28
 186 337 186 337 222 310 c 0,29,30
 237 298 237 298 262 293 c 1,31,-1
 262 224 l 1,32,33
 210 213 210 213 195 167 c 0,34,35
 186 139 186 139 186 87 c 2,36,-1
 186 86 l 1,37,-1
 186 -81 l 2,38,39
 186 -184 186 -184 113 -207 c 0,40,41
 96 -212 96 -212 76 -212 c 2,42,-1
 29 -212 l 1,0,-1
EndSplineSet
EndChar

StartChar: asciitilde
Encoding: 126 126 45
Width: 584
GlyphClass: 2
Flags: W
LayerCount: 2
Fore
SplineSet
455 411 m 1,0,-1
 508 411 l 1,1,-1
 508 395 l 2,2,3
 508 310 508 310 451 280 c 0,4,5
 430 268 430 268 403 268 c 0,6,7
 364 268 364 268 322 294 c 2,8,-1
 224 357 l 2,9,10
 201 371 201 371 181 371 c 0,11,12
 152 371 152 371 136 336 c 0,13,14
 131 323 131 323 128 295 c 1,15,-1
 128 293 l 1,16,-1
 75 293 l 1,17,18
 82 424 82 424 166 437 c 1,19,-1
 183 438 l 1,20,21
 210 438 210 438 237 422 c 2,22,-1
 354 353 l 2,23,24
 382 336 382 336 404 336 c 0,25,26
 448 336 448 336 454 385 c 1,27,-1
 455 411 l 1,0,-1
EndSplineSet
EndChar

StartChar: uni0D02
Encoding: 3330 3330 46
Width: 403
GlyphClass: 2
Flags: W
LayerCount: 2
Fore
SplineSet
215 313 m 0,0,1
 241 316 241 316 272 307 c 0,2,3
 294 301 294 301 315 289 c 2,4,-1
 322 285 l 1,5,-1
 323 284 l 1,6,7
 346 268 346 268 359 251 c 0,8,9
 411 187 411 187 392 106 c 0,10,11
 385 73 385 73 366 46 c 0,12,13
 349 23 349 23 326 6 c 1,14,-1
 325 5 l 1,15,16
 289 -20 289 -20 241 -26 c 1,17,-1
 240 -26 l 1,18,19
 210 -28 210 -28 183 -20 c 0,20,21
 149 -10 149 -10 126 7 c 1,22,-1
 125 8 l 1,23,24
 63 54 63 54 59 135 c 0,25,26
 56 192 56 192 87 238 c 0,27,28
 102 260 102 260 124 278 c 1,29,-1
 125 279 l 1,30,31
 162 307 162 307 215 313 c 0,0,1
217 258 m 1,32,33
 193 255 193 255 173 244 c 1,34,-1
 172 244 l 1,35,36
 155 235 155 235 138 216 c 1,37,38
 100 168 100 168 119 108 c 0,39,40
 130 73 130 73 159 51 c 0,41,42
 174 40 174 40 193 34 c 1,43,-1
 194 34 l 1,44,45
 213 29 213 29 231 29 c 2,46,-1
 235 29 l 1,47,-1
 237 29 l 1,48,49
 265 32 265 32 283 43 c 1,50,51
 300 52 300 52 317 71 c 1,52,53
 354 118 354 118 337 177 c 0,54,55
 327 211 327 211 300 233 c 1,56,57
 280 247 280 247 268 251 c 0,58,59
 245 260 245 260 217 258 c 1,32,33
EndSplineSet
EndChar

StartChar: uni0D03
Encoding: 3331 3331 47
Width: 312
GlyphClass: 2
Flags: W
LayerCount: 2
Fore
SplineSet
170 503 m 1,0,1
 191 504 191 504 214 498 c 0,2,3
 238 492 238 492 258 475 c 0,4,5
 307 435 307 435 302 372 c 1,6,-1
 302 371 l 1,7,-1
 302 370 l 1,8,9
 299 337 299 337 280 309 c 1,10,-1
 279 308 l 1,11,12
 266 293 266 293 249 280 c 1,13,-1
 248 279 l 1,14,-1
 247 278 l 1,15,16
 222 262 222 262 192 259 c 0,17,18
 174 257 174 257 148 262 c 1,19,20
 127 270 127 270 107 282 c 1,21,-1
 106 283 l 1,22,23
 89 296 89 296 80 311 c 1,24,-1
 79 312 l 1,25,26
 43 365 43 365 68 427 c 0,27,28
 82 460 82 460 111 481 c 1,29,-1
 112 482 l 1,30,31
 135 498 135 498 169 503 c 1,32,-1
 170 503 l 1,0,1
172 448 m 1,33,-1
 152 442 l 1,34,-1
 149 440 l 2,35,36
 137 433 137 433 130 425 c 0,37,38
 102 394 102 394 118 356 c 1,39,-1
 118 355 l 1,40,-1
 118 354 l 1,41,-1
 119 353 l 1,42,43
 124 340 124 340 134 331 c 0,44,45
 145 321 145 321 158 317 c 1,46,47
 172 311 172 311 188 313 c 0,48,49
 201 315 201 315 212 321 c 0,50,51
 224 328 224 328 231 336 c 0,52,53
 259 369 259 369 242 408 c 1,54,-1
 242 408 l 1,55,56
 237 420 237 420 228 429 c 0,57,58
 218 438 218 438 204 444 c 0,59,60
 190 449 190 449 173 448 c 1,61,-1
 172 448 l 1,33,-1
170 218 m 1,62,63
 191 219 191 219 214 213 c 0,64,65
 236 207 236 207 256 192 c 0,66,67
 306 153 306 153 302 89 c 1,68,-1
 302 88 l 1,69,70
 300 53 300 53 280 25 c 1,71,72
 265 7 265 7 249 -4 c 1,73,-1
 248 -5 l 1,74,-1
 247 -6 l 1,75,76
 222 -22 222 -22 192 -25 c 0,77,78
 174 -27 174 -27 148 -22 c 1,79,80
 127 -14 127 -14 107 -2 c 1,81,-1
 106 -1 l 1,82,83
 89 12 89 12 80 27 c 1,84,-1
 79 28 l 1,85,86
 43 82 43 82 68 143 c 0,87,88
 82 176 82 176 112 197 c 0,89,90
 135 213 135 213 169 218 c 1,91,-1
 170 218 l 1,62,63
172 163 m 1,92,93
 163 162 163 162 147 154 c 0,94,95
 138 149 138 149 127 137 c 0,96,97
 121 130 121 130 116 116 c 0,98,99
 103 76 103 76 136 47 c 1,100,-1
 137 46 l 1,101,102
 159 27 159 27 188 29 c 1,103,104
 201 31 201 31 212 37 c 0,105,106
 224 44 224 44 231 52 c 0,107,108
 259 83 259 83 242 123 c 0,109,110
 238 134 238 134 229 143 c 256,111,112
 220 152 220 152 205 159 c 1,113,-1
 204 159 l 1,114,115
 190 164 190 164 174 163 c 1,116,-1
 173 163 l 1,117,-1
 172 163 l 1,92,93
EndSplineSet
EndChar

StartChar: uni0D05
Encoding: 3333 3333 48
Width: 1119
GlyphClass: 2
Flags: W
LayerCount: 2
Fore
SplineSet
339 442 m 1,0,1
 316 448 316 448 294 448 c 0,2,3
 210 447 210 447 154 369 c 0,4,5
 129 334 129 334 119 292 c 0,6,7
 99 209 99 209 138 115 c 1,8,9
 152 85 152 85 172 55 c 1,10,-1
 173 53 l 1,11,-1
 176 49 l 1,12,-1
 177 48 l 1,13,-1
 192 29 l 1,14,-1
 205 13 l 1,15,-1
 205 12 l 1,16,17
 213 -8 213 -8 196 -21 c 1,18,-1
 195 -21 l 1,19,-1
 190 -24 l 1,20,21
 171 -32 171 -32 154 -11 c 1,22,23
 138 6 138 6 119 34 c 0,24,25
 45 145 45 145 60 272 c 1,26,-1
 60 273 l 1,27,-1
 60 274 l 1,28,-1
 61 282 l 1,29,30
 76 383 76 383 152 448 c 0,31,32
 182 474 182 474 218 488 c 0,33,34
 251 501 251 501 288 503 c 0,35,36
 323 505 323 505 356 494 c 2,37,-1
 378 486 l 1,38,-1
 391 481 l 1,39,-1
 402 485 l 1,40,-1
 421 492 l 2,41,42
 450 502 450 502 478 503 c 1,43,-1
 479 503 l 1,44,45
 568 507 568 507 633 438 c 1,46,-1
 634 437 l 1,47,-1
 643 427 l 2,48,49
 652 417 652 417 680 366 c 1,50,-1
 681 365 l 1,51,-1
 697 395 l 1,52,-1
 698 396 l 1,53,-1
 699 397 l 1,54,55
 726 436 726 436 763 462 c 1,56,-1
 764 463 l 1,57,58
 843 518 843 518 934 498 c 0,59,60
 976 489 976 489 1010 463 c 1,61,-1
 1011 462 l 1,62,63
 1046 434 1046 434 1069 393 c 1,64,-1
 1070 392 l 1,65,66
 1121 301 1121 301 1105 164 c 1,67,-1
 1105 163 l 1,68,-1
 1101 132 l 1,69,70
 1082 14 1082 14 1012 -16 c 1,71,-1
 1011 -16 l 1,72,73
 996 -23 996 -23 983 -24 c 1,74,75
 964 -28 964 -28 950 -25 c 1,76,77
 940 -24 940 -24 929 -19 c 0,78,79
 874 5 874 5 865 101 c 0,80,81
 862 129 862 129 867 160 c 1,82,-1
 867 161 l 1,83,84
 878 255 878 255 938 331 c 1,85,-1
 939 333 l 1,86,87
 955 352 955 352 976 371 c 1,88,-1
 979 374 l 2,89,90
 990 384 990 384 1003 392 c 1,91,92
 990 410 990 410 970 423 c 1,93,94
 953 436 953 436 935 441 c 0,95,96
 904 451 904 451 873 448 c 1,97,-1
 872 448 l 1,98,99
 842 444 842 444 812 429 c 1,100,-1
 811 428 l 1,101,-1
 810 427 l 1,102,-1
 809 426 l 1,103,-1
 807 425 l 1,104,-1
 806 425 l 1,105,-1
 805 424 l 1,106,-1
 798 420 l 1,107,108
 759 393 759 393 734 348 c 1,109,-1
 733 347 l 1,110,111
 712 309 712 309 707 265 c 1,112,-1
 707 264 l 1,113,-1
 706 201 l 1,114,-1
 706 100 l 1,115,-1
 706 39 l 1,116,-1
 705 8 l 1,117,-1
 705 7 l 1,118,119
 701 -12 701 -12 680 -14 c 1,120,-1
 671 -13 l 1,121,122
 653 -8 653 -8 651 20 c 1,123,-1
 651 22 l 1,124,-1
 651 24 l 1,125,-1
 651 25 l 1,126,-1
 651 134 l 1,127,-1
 651 212 l 1,128,-1
 650 267 l 1,129,130
 640 343 640 343 601 392 c 1,131,-1
 600 393 l 1,132,-1
 599 394 l 1,133,-1
 598 395 l 1,134,-1
 597 396 l 2,135,136
 579 415 579 415 561 427 c 1,137,-1
 560 428 l 1,138,139
 536 443 536 443 510 447 c 1,140,-1
 509 447 l 1,141,142
 491 449 491 449 465 446 c 1,143,-1
 441 441 l 1,144,145
 500 375 500 375 491 292 c 1,146,-1
 490 284 l 1,147,148
 482 242 482 242 463 221 c 1,149,-1
 462 220 l 1,150,-1
 461 219 l 1,151,-1
 461 218 l 1,152,153
 482 205 482 205 497 172 c 1,154,-1
 498 171 l 1,155,-1
 499 170 l 1,156,157
 530 108 530 108 507 49 c 1,158,-1
 506 47 l 2,159,160
 493 19 493 19 468 -1 c 1,161,-1
 467 -2 l 1,162,-1
 466 -3 l 1,163,164
 453 -12 453 -12 434 -19 c 0,165,166
 416 -26 416 -26 392 -26 c 1,167,-1
 363 -22 l 1,168,169
 289 -4 289 -4 261 101 c 1,170,-1
 260 104 l 1,171,172
 251 147 251 147 249 185 c 1,173,-1
 249 186 l 1,174,175
 243 298 243 298 292 383 c 1,176,-1
 293 384 l 1,177,-1
 294 386 l 1,178,179
 309 410 309 410 329 432 c 1,180,-1
 333 436 l 1,181,-1
 335 438 l 1,182,-1
 339 442 l 1,0,1
304 242 m 1,183,-1
 378 242 l 2,184,185
 407 242 407 242 417 252 c 2,186,-1
 418 253 l 1,187,-1
 420 255 l 1,188,189
 433 271 433 271 436 291 c 1,190,-1
 436 292 l 1,191,-1
 436 293 l 1,192,193
 442 331 442 331 424 370 c 1,194,-1
 422 375 l 1,195,-1
 421 376 l 1,196,-1
 420 377 l 1,197,-1
 419 378 l 1,198,-1
 419 379 l 1,199,-1
 401 404 l 1,200,201
 394 411 394 411 391 411 c 0,202,203
 389 411 389 411 379 405 c 1,204,-1
 356 379 l 1,205,206
 316 327 316 327 304 242 c 1,183,-1
1032 346 m 1,207,208
 1006 329 1006 329 981 297 c 1,209,-1
 980 296 l 1,210,211
 919 218 919 218 919 127 c 2,212,-1
 919 126 l 1,213,-1
 919 125 l 1,214,-1
 919 124 l 1,215,-1
 919 123 l 1,216,-1
 919 122 l 1,217,-1
 919 121 l 2,218,219
 919 79 919 79 931 54 c 0,220,221
 941 35 941 35 954 30 c 1,222,-1
 977 30 l 1,223,224
 1016 39 1016 39 1036 96 c 0,225,226
 1051 140 1051 140 1053 204 c 0,227,228
 1055 252 1055 252 1052 276 c 0,229,230
 1048 306 1048 306 1032 346 c 1,207,208
304 187 m 1,231,232
 304 151 304 151 315 113 c 1,233,234
 322 84 322 84 336 63 c 0,235,236
 346 47 346 47 359 39 c 0,237,238
 392 18 392 18 428 38 c 1,239,240
 445 49 445 49 453 65 c 1,241,-1
 454 66 l 1,242,243
 461 79 461 79 461 92 c 2,244,-1
 461 93 l 1,245,-1
 461 94 l 1,246,-1
 461 95 l 1,247,-1
 461 96 l 1,248,-1
 461 97 l 1,249,-1
 461 98 l 2,250,251
 461 148 461 148 430 174 c 1,252,-1
 429 175 l 1,253,254
 418 183 418 183 405 186 c 1,255,-1
 369 187 l 1,256,-1
 304 187 l 1,231,232
EndSplineSet
EndChar

StartChar: uni0D06
Encoding: 3334 3334 49
Width: 1285
GlyphClass: 2
Flags: W
LayerCount: 2
Fore
SplineSet
339 442 m 1,0,1
 316 448 316 448 294 448 c 0,2,3
 210 447 210 447 154 369 c 0,4,5
 129 334 129 334 119 292 c 0,6,7
 99 209 99 209 138 115 c 1,8,9
 152 85 152 85 172 55 c 1,10,-1
 173 53 l 1,11,-1
 176 49 l 1,12,-1
 177 48 l 1,13,-1
 192 29 l 1,14,-1
 205 13 l 1,15,-1
 205 12 l 1,16,17
 213 -8 213 -8 196 -21 c 1,18,-1
 195 -21 l 1,19,-1
 190 -24 l 1,20,21
 171 -32 171 -32 154 -11 c 1,22,23
 138 6 138 6 119 34 c 0,24,25
 45 145 45 145 60 272 c 1,26,-1
 60 273 l 1,27,-1
 60 274 l 1,28,-1
 61 282 l 1,29,30
 76 383 76 383 152 448 c 0,31,32
 182 474 182 474 218 488 c 0,33,34
 251 501 251 501 288 503 c 0,35,36
 323 505 323 505 356 494 c 2,37,-1
 378 486 l 1,38,-1
 391 481 l 1,39,-1
 402 485 l 1,40,-1
 421 492 l 2,41,42
 450 502 450 502 478 503 c 1,43,-1
 479 503 l 1,44,45
 568 507 568 507 633 438 c 1,46,-1
 634 437 l 1,47,-1
 643 427 l 2,48,49
 652 417 652 417 680 366 c 1,50,-1
 681 365 l 1,51,-1
 695 392 l 1,52,53
 711 416 711 416 728 433 c 0,54,55
 761 466 761 466 799 483 c 0,56,57
 887 522 887 522 971 486 c 1,58,-1
 974 485 l 1,59,-1
 982 481 l 1,60,61
 1020 460 1020 460 1050 423 c 1,62,-1
 1067 398 l 1,63,-1
 1076 384 l 1,64,-1
 1089 381 l 1,65,-1
 1113 376 l 1,66,67
 1146 365 1146 365 1173 345 c 1,68,-1
 1174 344 l 1,69,70
 1214 311 1214 311 1239 263 c 1,71,-1
 1240 262 l 1,72,-1
 1241 261 l 1,73,-1
 1242 260 l 1,74,75
 1289 167 1289 167 1269 52 c 0,76,77
 1247 -81 1247 -81 1159 -139 c 1,78,-1
 1132 -154 l 1,79,80
 1112 -162 1112 -162 1094 -165 c 0,81,82
 1067 -171 1067 -171 1038 -168 c 0,83,84
 976 -163 976 -163 923 -133 c 1,85,-1
 922 -132 l 1,86,87
 895 -115 895 -115 890 -103 c 1,88,-1
 890 -102 l 1,89,-1
 889 -99 l 1,90,91
 885 -79 885 -79 904 -69 c 1,92,-1
 919 -67 l 1,93,-1
 920 -67 l 1,94,95
 928 -69 928 -69 942 -79 c 1,96,-1
 970 -95 l 1,97,98
 1047 -131 1047 -131 1109 -103 c 1,99,-1
 1110 -103 l 1,100,-1
 1112 -102 l 2,101,102
 1176 -71 1176 -71 1206 20 c 1,103,-1
 1206 21 l 1,104,-1
 1206 22 l 1,105,106
 1238 129 1238 129 1201 219 c 1,107,-1
 1200 221 l 1,108,109
 1180 269 1180 269 1142 299 c 0,110,111
 1128 310 1128 310 1098 323 c 1,112,113
 1111 276 1111 276 1107 182 c 1,114,-1
 1103 141 l 1,115,116
 1092 64 1092 64 1059 21 c 1,117,118
 1041 1 1041 1 1022 -11 c 0,119,120
 1020 -12 1020 -12 1019 -13 c 1,121,-1
 1018 -13 l 1,122,-1
 1017 -14 l 1,123,124
 962 -41 962 -41 909 -11 c 0,125,126
 896 -4 896 -4 885 6 c 0,127,128
 831 58 831 58 842 154 c 0,129,130
 856 277 856 277 935 341 c 1,131,-1
 955 354 l 1,132,-1
 959 357 l 1,133,134
 983 371 983 371 1013 379 c 1,135,136
 1005 393 1005 393 990 406 c 1,137,-1
 989 407 l 1,138,-1
 988 408 l 1,139,-1
 987 409 l 1,140,-1
 976 419 l 1,141,-1
 975 420 l 1,142,143
 957 433 957 433 939 440 c 0,144,145
 871 464 871 464 805 425 c 1,146,-1
 804 424 l 1,147,-1
 802 423 l 1,148,-1
 801 422 l 1,149,-1
 800 422 l 1,150,-1
 798 420 l 1,151,152
 759 393 759 393 734 348 c 1,153,-1
 733 347 l 1,154,155
 712 309 712 309 707 265 c 1,156,-1
 707 264 l 1,157,-1
 706 201 l 1,158,-1
 706 102 l 1,159,-1
 706 40 l 1,160,-1
 705 7 l 1,161,162
 701 -12 701 -12 680 -14 c 1,163,-1
 671 -13 l 1,164,165
 653 -8 653 -8 651 20 c 1,166,-1
 651 22 l 1,167,-1
 651 24 l 1,168,-1
 651 25 l 1,169,-1
 651 134 l 1,170,-1
 651 212 l 1,171,-1
 650 267 l 1,172,173
 640 343 640 343 601 392 c 1,174,-1
 600 393 l 1,175,-1
 599 394 l 1,176,-1
 598 395 l 1,177,-1
 597 396 l 2,178,179
 579 415 579 415 561 427 c 1,180,-1
 560 428 l 1,181,182
 536 443 536 443 510 447 c 1,183,-1
 509 447 l 1,184,185
 491 449 491 449 465 446 c 1,186,-1
 441 441 l 1,187,188
 500 375 500 375 491 292 c 1,189,-1
 490 284 l 1,190,191
 482 242 482 242 463 221 c 1,192,-1
 462 220 l 1,193,-1
 461 219 l 1,194,-1
 461 218 l 1,195,196
 482 205 482 205 497 172 c 1,197,-1
 498 171 l 1,198,-1
 499 170 l 1,199,200
 530 108 530 108 507 49 c 1,201,-1
 506 47 l 2,202,203
 493 19 493 19 468 -1 c 1,204,-1
 467 -2 l 1,205,-1
 466 -3 l 1,206,207
 453 -12 453 -12 434 -19 c 0,208,209
 416 -26 416 -26 392 -26 c 1,210,-1
 363 -22 l 1,211,212
 289 -4 289 -4 261 101 c 1,213,-1
 260 104 l 1,214,215
 251 147 251 147 249 185 c 1,216,-1
 249 186 l 1,217,218
 243 298 243 298 292 383 c 1,219,-1
 293 384 l 1,220,-1
 294 386 l 1,221,222
 309 410 309 410 329 432 c 1,223,-1
 333 436 l 1,224,-1
 335 438 l 1,225,-1
 339 442 l 1,0,1
304 242 m 1,226,-1
 378 242 l 2,227,228
 407 242 407 242 417 252 c 2,229,-1
 418 253 l 1,230,-1
 420 255 l 1,231,232
 433 271 433 271 436 291 c 1,233,-1
 436 292 l 1,234,-1
 436 293 l 1,235,236
 442 331 442 331 424 370 c 1,237,-1
 422 375 l 1,238,-1
 421 376 l 1,239,-1
 420 377 l 1,240,-1
 419 378 l 1,241,-1
 419 379 l 1,242,-1
 401 404 l 1,243,244
 394 411 394 411 391 411 c 0,245,246
 389 411 389 411 379 405 c 1,247,-1
 356 379 l 1,248,249
 316 327 316 327 304 242 c 1,226,-1
1037 327 m 1,250,-1
 1030 326 l 1,251,-1
 1013 322 l 1,252,253
 976 309 976 309 951 281 c 0,254,255
 905 228 905 228 897 153 c 1,256,-1
 897 152 l 1,257,258
 894 127 894 127 896 108 c 1,259,-1
 896 107 l 1,260,261
 902 53 902 53 939 35 c 1,262,-1
 940 34 l 1,263,-1
 941 34 l 1,264,-1
 942 33 l 1,265,266
 971 20 971 20 1001 40 c 1,267,-1
 1002 41 l 1,268,269
 1016 52 1016 52 1026 71 c 0,270,271
 1054 125 1054 125 1054 235 c 2,272,-1
 1054 236 l 1,273,-1
 1054 237 l 1,274,-1
 1054 238 l 1,275,-1
 1054 239 l 1,276,-1
 1054 240 l 1,277,-1
 1054 241 l 1,278,-1
 1054 244 l 2,279,280
 1054 275 1054 275 1046 307 c 1,281,-1
 1039 326 l 1,282,-1
 1037 327 l 1,250,-1
304 187 m 1,283,284
 304 151 304 151 315 113 c 1,285,286
 322 84 322 84 336 63 c 0,287,288
 346 47 346 47 359 39 c 0,289,290
 392 18 392 18 428 38 c 1,291,292
 445 49 445 49 453 65 c 1,293,-1
 454 66 l 1,294,295
 461 79 461 79 461 92 c 2,296,-1
 461 93 l 1,297,-1
 461 94 l 1,298,-1
 461 95 l 1,299,-1
 461 96 l 1,300,-1
 461 97 l 1,301,-1
 461 98 l 2,302,303
 461 148 461 148 430 174 c 1,304,-1
 429 175 l 1,305,306
 418 183 418 183 405 186 c 1,307,-1
 369 187 l 1,308,-1
 304 187 l 1,283,284
EndSplineSet
EndChar

StartChar: uni0D07
Encoding: 3335 3335 50
Width: 929
GlyphClass: 2
Flags: W
LayerCount: 2
Fore
SplineSet
119 295 m 1,0,1
 137 313 137 313 157 323 c 0,2,3
 217 353 217 353 276 323 c 1,4,-1
 277 322 l 1,5,6
 291 315 291 315 303 305 c 0,7,8
 324 287 324 287 337 259 c 1,9,10
 348 238 348 238 350 211 c 1,11,-1
 350 210 l 1,12,-1
 350 209 l 1,13,14
 351 189 351 189 345 167 c 0,15,16
 329 107 329 107 271 80 c 0,17,18
 248 69 248 69 223 68 c 0,19,20
 188 66 188 66 157 82 c 0,21,22
 87 116 87 116 69 228 c 1,23,-1
 69 229 l 1,24,25
 61 276 61 276 66 313 c 1,26,-1
 66 315 l 1,27,-1
 66 316 l 1,28,29
 78 396 78 396 149 451 c 1,30,31
 229 511 229 511 327 502 c 0,32,33
 395 496 395 496 444 454 c 0,34,35
 475 428 475 428 487 402 c 1,36,-1
 489 402 l 1,37,38
 497 422 497 422 524 449 c 0,39,40
 543 468 543 468 563 478 c 1,41,-1
 564 479 l 1,42,43
 643 524 643 524 729 488 c 0,44,45
 756 477 756 477 779 458 c 0,46,47
 815 429 815 429 840 379 c 0,48,49
 893 272 893 272 861 160 c 1,50,-1
 861 159 l 1,51,-1
 858 148 l 1,52,53
 826 52 826 52 744 4 c 0,54,55
 712 -14 712 -14 678 -21 c 0,56,57
 653 -26 653 -26 604 -26 c 2,58,-1
 523 -26 l 1,59,-1
 306 -26 l 1,60,-1
 189 -28 l 1,61,62
 161 -31 161 -31 139 -39 c 0,63,64
 86 -59 86 -59 89 -98 c 0,65,66
 92 -127 92 -127 126 -142 c 1,67,68
 164 -161 164 -161 237 -161 c 2,69,-1
 735 -161 l 1,70,-1
 839 -161 l 1,71,-1
 893 -161 l 1,72,73
 913 -163 913 -163 918 -182 c 0,74,75
 920 -189 920 -189 917 -197 c 0,76,77
 911 -217 911 -217 876 -216 c 1,78,-1
 874 -216 l 1,79,-1
 872 -216 l 1,80,-1
 863 -216 l 1,81,-1
 703 -216 l 1,82,-1
 370 -216 l 1,83,-1
 263 -216 l 1,84,-1
 191 -214 l 1,85,86
 72 -201 72 -201 43 -136 c 1,87,-1
 36 -111 l 1,88,89
 33 -96 33 -96 36 -81 c 1,90,-1
 36 -80 l 1,91,-1
 36 -78 l 1,92,-1
 36 -77 l 1,93,-1
 36 -76 l 1,94,-1
 43 -51 l 1,95,96
 58 -18 58 -18 99 3 c 0,97,98
 140 23 140 23 214 29 c 1,99,-1
 247 29 l 1,100,-1
 529 29 l 1,101,-1
 607 29 l 2,102,103
 655 29 655 29 679 36 c 1,104,-1
 680 36 l 1,105,106
 756 59 756 59 794 139 c 1,107,-1
 795 140 l 1,108,-1
 796 141 l 1,109,110
 816 185 816 185 817 231 c 0,111,112
 819 293 819 293 795 344 c 1,113,-1
 794 346 l 1,114,-1
 794 347 l 1,115,116
 763 415 763 415 703 439 c 1,117,-1
 702 440 l 1,118,119
 675 450 675 450 646 448 c 1,120,-1
 612 441 l 1,121,122
 594 434 594 434 576 421 c 1,123,124
 556 405 556 405 542 384 c 0,125,126
 519 349 519 349 516 309 c 1,127,-1
 516 308 l 1,128,-1
 516 266 l 1,129,-1
 516 192 l 1,130,-1
 516 133 l 1,131,-1
 515 102 l 1,132,133
 510 82 510 82 489 80 c 1,134,135
 469 80 469 80 463 99 c 1,136,-1
 462 103 l 1,137,-1
 461 137 l 1,138,-1
 461 138 l 1,139,-1
 461 206 l 1,140,-1
 461 274 l 2,141,142
 461 313 461 313 458 326 c 0,143,144
 450 372 450 372 416 405 c 0,145,146
 388 431 388 431 358 441 c 1,147,-1
 357 441 l 1,148,149
 285 464 285 464 211 426 c 1,150,-1
 210 425 l 1,151,152
 182 410 182 410 162 389 c 2,153,-1
 161 388 l 1,154,155
 134 359 134 359 124 325 c 1,156,-1
 119 295 l 1,0,1
207 282 m 1,157,158
 192 281 192 281 177 272 c 1,159,160
 164 263 164 263 153 251 c 1,161,162
 129 218 129 218 140 182 c 1,163,164
 142 172 142 172 152 159 c 0,165,166
 181 119 181 119 224 123 c 0,167,168
 238 124 238 124 252 132 c 1,169,170
 265 138 265 138 274 149 c 0,171,172
 306 185 306 185 290 230 c 0,173,174
 283 249 283 249 268 262 c 1,175,-1
 267 263 l 2,176,177
 256 273 256 273 243 277 c 1,178,179
 227 284 227 284 208 282 c 1,180,-1
 207 282 l 1,157,158
EndSplineSet
EndChar

StartChar: uni0D08
Encoding: 3336 3336 51
Width: 1433
GlyphClass: 2
Flags: W
LayerCount: 2
Fore
SplineSet
1154 426 m 1,0,1
 1179 480 1179 480 1239 498 c 1,2,-1
 1240 498 l 1,3,4
 1283 511 1283 511 1324 491 c 1,5,-1
 1325 491 l 1,6,-1
 1326 491 l 1,7,8
 1357 475 1357 475 1379 440 c 0,9,10
 1405 397 1405 397 1414 326 c 1,11,-1
 1414 325 l 1,12,13
 1419 283 1419 283 1418 251 c 1,14,-1
 1418 250 l 1,15,-1
 1418 249 l 1,16,17
 1413 165 1413 165 1369 94 c 1,18,-1
 1368 93 l 1,19,20
 1310 5 1310 5 1216 -18 c 1,21,-1
 1201 -21 l 1,22,-1
 1187 -24 l 1,23,24
 1149 -28 1149 -28 1139 -21 c 0,25,26
 1133 -18 1133 -18 1130 -12 c 0,27,28
 1119 7 1119 7 1135 22 c 1,29,-1
 1136 22 l 1,30,-1
 1137 23 l 1,31,-1
 1142 26 l 2,32,33
 1147 29 1147 29 1164 29 c 1,34,-1
 1196 34 l 1,35,36
 1249 46 1249 46 1290 85 c 0,37,38
 1348 140 1348 140 1361 226 c 1,39,-1
 1361 227 l 1,40,41
 1365 258 1365 258 1361 305 c 0,42,43
 1355 371 1355 371 1332 409 c 1,44,-1
 1332 410 l 1,45,46
 1323 425 1323 425 1312 434 c 0,47,48
 1281 459 1281 459 1243 441 c 1,49,-1
 1242 441 l 1,50,-1
 1238 439 l 1,51,52
 1219 428 1219 428 1205 404 c 1,53,-1
 1204 403 l 1,54,55
 1181 364 1181 364 1181 292 c 2,56,-1
 1181 291 l 1,57,-1
 1181 290 l 1,58,-1
 1181 289 l 1,59,-1
 1181 288 l 1,60,-1
 1181 287 l 1,61,-1
 1181 286 l 1,62,-1
 1181 222 l 1,63,-1
 1181 189 l 1,64,65
 1179 169 1179 169 1159 164 c 1,66,-1
 1149 164 l 1,67,-1
 1143 166 l 1,68,69
 1128 173 1128 173 1126 195 c 1,70,-1
 1126 197 l 1,71,-1
 1126 199 l 1,72,-1
 1126 201 l 1,73,-1
 1126 203 l 1,74,-1
 1126 204 l 1,75,-1
 1126 244 l 2,76,77
 1126 328 1126 328 1121 353 c 1,78,-1
 1121 353 l 1,79,80
 1116 378 1116 378 1106 398 c 2,81,-1
 1105 400 l 1,82,83
 1077 448 1077 448 1035 448 c 0,84,85
 1019 448 1019 448 1003 440 c 1,86,-1
 1002 440 l 1,87,88
 984 431 984 431 971 414 c 1,89,-1
 970 413 l 1,90,91
 925 355 925 355 955 266 c 1,92,-1
 957 259 l 1,93,-1
 976 221 l 1,94,-1
 989 200 l 1,95,-1
 990 196 l 2,96,97
 995 175 995 175 974 166 c 0,98,99
 963 161 963 161 953 166 c 2,100,-1
 949 168 l 2,101,102
 941 173 941 173 931 189 c 0,103,104
 913 217 913 217 903 245 c 1,105,-1
 903 246 l 1,106,-1
 903 247 l 1,107,108
 872 340 872 340 907 415 c 0,109,110
 925 455 925 455 957 478 c 0,111,112
 1012 517 1012 517 1073 497 c 1,113,-1
 1074 497 l 1,114,-1
 1075 496 l 1,115,-1
 1076 496 l 1,116,-1
 1077 496 l 1,117,-1
 1103 483 l 1,118,119
 1125 469 1125 469 1154 426 c 1,0,1
119 295 m 1,120,121
 137 313 137 313 157 323 c 0,122,123
 217 353 217 353 276 323 c 1,124,-1
 277 322 l 1,125,126
 291 315 291 315 303 305 c 0,127,128
 324 287 324 287 337 259 c 1,129,130
 348 238 348 238 350 211 c 1,131,-1
 350 210 l 1,132,-1
 350 209 l 1,133,134
 351 189 351 189 345 167 c 0,135,136
 329 107 329 107 271 80 c 0,137,138
 248 69 248 69 223 68 c 0,139,140
 188 66 188 66 157 82 c 0,141,142
 87 116 87 116 69 228 c 1,143,-1
 69 229 l 1,144,145
 61 276 61 276 66 313 c 1,146,-1
 66 315 l 1,147,-1
 66 316 l 1,148,149
 78 396 78 396 149 451 c 1,150,151
 229 511 229 511 327 502 c 0,152,153
 395 496 395 496 444 454 c 0,154,155
 475 428 475 428 487 402 c 1,156,-1
 489 402 l 1,157,158
 497 422 497 422 524 449 c 0,159,160
 543 468 543 468 563 478 c 1,161,-1
 564 479 l 1,162,163
 643 524 643 524 729 488 c 0,164,165
 756 477 756 477 779 458 c 0,166,167
 815 429 815 429 840 379 c 0,168,169
 893 272 893 272 861 160 c 1,170,-1
 861 159 l 1,171,-1
 858 148 l 1,172,173
 826 52 826 52 744 4 c 0,174,175
 712 -14 712 -14 678 -21 c 0,176,177
 653 -26 653 -26 604 -26 c 2,178,-1
 523 -26 l 1,179,-1
 306 -26 l 1,180,-1
 189 -28 l 1,181,182
 161 -31 161 -31 139 -39 c 0,183,184
 86 -59 86 -59 89 -98 c 0,185,186
 92 -127 92 -127 126 -142 c 1,187,188
 164 -161 164 -161 237 -161 c 2,189,-1
 735 -161 l 1,190,-1
 839 -161 l 1,191,-1
 893 -161 l 1,192,193
 913 -163 913 -163 918 -182 c 0,194,195
 920 -189 920 -189 917 -197 c 0,196,197
 911 -217 911 -217 876 -216 c 1,198,-1
 874 -216 l 1,199,-1
 872 -216 l 1,200,-1
 863 -216 l 1,201,-1
 703 -216 l 1,202,-1
 370 -216 l 1,203,-1
 263 -216 l 1,204,-1
 191 -214 l 1,205,206
 72 -201 72 -201 43 -136 c 1,207,-1
 36 -111 l 1,208,209
 33 -96 33 -96 36 -81 c 1,210,-1
 36 -80 l 1,211,-1
 36 -78 l 1,212,-1
 36 -77 l 1,213,-1
 36 -76 l 1,214,-1
 43 -51 l 1,215,216
 58 -18 58 -18 99 3 c 0,217,218
 140 23 140 23 214 29 c 1,219,-1
 247 29 l 1,220,-1
 529 29 l 1,221,-1
 607 29 l 2,222,223
 655 29 655 29 679 36 c 1,224,-1
 680 36 l 1,225,226
 756 59 756 59 794 139 c 1,227,-1
 795 140 l 1,228,-1
 796 141 l 1,229,230
 816 185 816 185 817 231 c 0,231,232
 819 293 819 293 795 344 c 1,233,-1
 794 346 l 1,234,-1
 794 347 l 1,235,236
 763 415 763 415 703 439 c 1,237,-1
 702 440 l 1,238,239
 675 450 675 450 646 448 c 1,240,-1
 612 441 l 1,241,242
 594 434 594 434 576 421 c 1,243,244
 556 405 556 405 542 384 c 0,245,246
 519 349 519 349 516 309 c 1,247,-1
 516 308 l 1,248,-1
 516 266 l 1,249,-1
 516 192 l 1,250,-1
 516 133 l 1,251,-1
 515 102 l 1,252,253
 510 82 510 82 489 80 c 1,254,255
 469 80 469 80 463 99 c 1,256,-1
 462 103 l 1,257,-1
 461 137 l 1,258,-1
 461 138 l 1,259,-1
 461 206 l 1,260,-1
 461 274 l 2,261,262
 461 313 461 313 458 326 c 0,263,264
 450 372 450 372 416 405 c 0,265,266
 388 431 388 431 358 441 c 1,267,-1
 357 441 l 1,268,269
 285 464 285 464 211 426 c 1,270,-1
 210 425 l 1,271,272
 182 410 182 410 162 389 c 2,273,-1
 161 388 l 1,274,275
 134 359 134 359 124 325 c 1,276,-1
 119 295 l 1,120,121
207 282 m 1,277,278
 192 281 192 281 177 272 c 1,279,280
 164 263 164 263 153 251 c 1,281,282
 129 218 129 218 140 182 c 1,283,284
 142 172 142 172 152 159 c 0,285,286
 181 119 181 119 224 123 c 0,287,288
 238 124 238 124 252 132 c 1,289,290
 265 138 265 138 274 149 c 0,291,292
 306 185 306 185 290 230 c 0,293,294
 283 249 283 249 268 262 c 1,295,-1
 267 263 l 2,296,297
 256 273 256 273 243 277 c 1,298,299
 227 284 227 284 208 282 c 1,300,-1
 207 282 l 1,277,278
EndSplineSet
EndChar

StartChar: uni0D09
Encoding: 3337 3337 52
Width: 645
GlyphClass: 2
Flags: W
LayerCount: 2
Fore
SplineSet
119 295 m 1,0,1
 137 313 137 313 157 323 c 0,2,3
 217 353 217 353 278 322 c 1,4,-1
 306 302 l 1,5,-1
 307 301 l 2,6,7
 323 286 323 286 334 264 c 1,8,-1
 335 263 l 1,9,-1
 336 262 l 1,10,11
 347 241 347 241 350 211 c 0,12,13
 351 195 351 195 346 173 c 1,14,-1
 346 172 l 1,15,16
 342 154 342 154 332 137 c 1,17,-1
 331 135 l 1,18,-1
 329 131 l 1,19,20
 295 77 295 77 230 69 c 1,21,-1
 229 69 l 1,22,23
 190 65 190 65 155 83 c 1,24,25
 124 101 124 101 106 128 c 1,26,-1
 105 129 l 1,27,-1
 104 130 l 1,28,-1
 103 131 l 1,29,-1
 88 161 l 1,30,31
 68 212 68 212 65 263 c 0,32,33
 62 307 62 307 72 340 c 1,34,-1
 72 341 l 1,35,36
 97 420 97 420 177 466 c 0,37,38
 271 519 271 519 375 498 c 1,39,-1
 376 498 l 1,40,-1
 377 498 l 1,41,42
 403 492 403 492 427 482 c 0,43,44
 522 440 522 440 564 344 c 0,45,46
 589 288 589 288 587 228 c 1,47,-1
 587 227 l 1,48,49
 583 122 583 122 513 47 c 1,50,-1
 512 46 l 1,51,52
 466 -2 466 -2 406 -18 c 0,53,54
 377 -26 377 -26 317 -26 c 2,55,-1
 229 -26 l 2,56,57
 161 -26 161 -26 120 -48 c 1,58,-1
 119 -48 l 1,59,60
 84 -68 84 -68 90 -102 c 1,61,-1
 90 -103 l 1,62,-1
 91 -107 l 2,63,64
 96 -125 96 -125 117 -137 c 1,65,-1
 118 -138 l 1,66,67
 144 -153 144 -153 191 -159 c 1,68,-1
 308 -161 l 1,69,-1
 506 -161 l 1,70,-1
 575 -161 l 1,71,-1
 612 -162 l 1,72,73
 633 -166 633 -166 634 -188 c 1,74,-1
 634 -192 l 1,75,76
 631 -216 631 -216 599 -216 c 2,77,-1
 478 -216 l 1,78,-1
 287 -216 l 2,79,80
 190 -216 190 -216 156 -209 c 2,81,-1
 147 -207 l 2,82,83
 63 -188 63 -188 40 -129 c 1,84,-1
 40 -128 l 1,85,-1
 36 -113 l 1,86,87
 33 -94 33 -94 35 -81 c 1,88,-1
 42 -54 l 1,89,90
 69 11 69 11 178 26 c 1,91,-1
 179 26 l 1,92,93
 206 29 206 29 314 29 c 0,94,95
 371 29 371 29 393 35 c 0,96,97
 423 44 423 44 445 61 c 0,98,99
 518 115 518 115 530 210 c 0,100,101
 537 262 537 262 518 312 c 1,102,-1
 517 315 l 1,103,-1
 516 318 l 1,104,-1
 516 319 l 1,105,106
 504 347 504 347 486 369 c 0,107,108
 469 389 469 389 447 406 c 1,109,-1
 446 407 l 1,110,-1
 445 408 l 1,111,112
 366 465 366 465 265 441 c 1,113,-1
 223 427 l 1,114,-1
 222 427 l 1,115,116
 166 402 166 402 138 355 c 0,117,118
 127 336 127 336 119 296 c 1,119,-1
 119 295 l 1,0,1
207 282 m 1,120,121
 192 281 192 281 177 272 c 1,122,123
 164 263 164 263 153 251 c 1,124,125
 129 218 129 218 140 182 c 1,126,127
 142 172 142 172 152 159 c 0,128,129
 181 119 181 119 224 123 c 0,130,131
 238 124 238 124 252 132 c 1,132,133
 265 138 265 138 274 149 c 0,134,135
 306 185 306 185 290 230 c 0,136,137
 283 249 283 249 268 262 c 1,138,-1
 267 263 l 2,139,140
 256 273 256 273 243 277 c 1,141,142
 227 284 227 284 208 282 c 1,143,-1
 207 282 l 1,120,121
EndSplineSet
EndChar

StartChar: uni0D0A
Encoding: 3338 3338 53
Width: 1150
GlyphClass: 2
Flags: W
LayerCount: 2
Fore
SplineSet
869 399 m 1,0,1
 903 448 903 448 932 462 c 1,2,-1
 932 462 l 1,3,-1
 932 462 l 1,4,-1
 933 463 l 1,5,-1
 955 471 l 1,6,7
 999 484 999 484 1039 465 c 2,8,-1
 1041 464 l 2,9,10
 1072 448 1072 448 1094 413 c 0,11,12
 1120 370 1120 370 1129 301 c 1,13,-1
 1129 300 l 1,14,-1
 1129 299 l 1,15,-1
 1129 298 l 1,16,17
 1134 255 1134 255 1133 223 c 1,18,-1
 1133 222 l 1,19,20
 1128 137 1128 137 1083 66 c 1,21,22
 1025 -22 1025 -22 931 -45 c 0,23,24
 923 -47 923 -47 916 -48 c 2,25,-1
 902 -51 l 1,26,27
 864 -55 864 -55 854 -48 c 0,28,29
 848 -45 848 -45 845 -39 c 0,30,31
 834 -20 834 -20 850 -5 c 1,32,-1
 857 -1 l 2,33,34
 862 2 862 2 879 2 c 1,35,-1
 911 7 l 1,36,37
 965 19 965 19 1005 58 c 0,38,39
 1063 113 1063 113 1076 200 c 0,40,41
 1080 231 1080 231 1076 278 c 0,42,43
 1070 344 1070 344 1047 383 c 0,44,45
 1038 398 1038 398 1027 407 c 0,46,47
 996 432 996 432 958 414 c 1,48,-1
 957 414 l 1,49,-1
 953 412 l 2,50,51
 933 401 933 401 919 376 c 0,52,53
 896 337 896 337 896 265 c 2,54,-1
 896 264 l 1,55,-1
 896 263 l 1,56,-1
 896 262 l 1,57,-1
 896 261 l 1,58,-1
 896 260 l 1,59,-1
 896 259 l 1,60,-1
 896 195 l 1,61,-1
 896 162 l 1,62,63
 894 143 894 143 876 137 c 1,64,-1
 874 137 l 1,65,66
 866 135 866 135 859 139 c 1,67,-1
 858 139 l 1,68,69
 844 146 844 146 841 167 c 1,70,-1
 841 168 l 1,71,-1
 841 170 l 1,72,-1
 841 172 l 1,73,-1
 841 174 l 1,74,-1
 841 176 l 1,75,-1
 841 177 l 1,76,-1
 841 217 l 2,77,78
 841 302 841 302 836 326 c 0,79,80
 831 352 831 352 820 373 c 1,81,82
 792 421 792 421 750 421 c 0,83,84
 735 421 735 421 721 414 c 2,85,-1
 719 413 l 1,86,-1
 718 413 l 1,87,-1
 717 413 l 1,88,89
 698 404 698 404 685 386 c 0,90,91
 640 328 640 328 670 239 c 1,92,-1
 672 232 l 1,93,-1
 691 194 l 1,94,-1
 704 173 l 1,95,-1
 705 169 l 2,96,97
 710 148 710 148 689 139 c 0,98,99
 678 134 678 134 668 139 c 2,100,-1
 664 141 l 2,101,102
 656 146 656 146 646 162 c 0,103,104
 629 189 629 189 619 216 c 1,105,-1
 619 217 l 1,106,-1
 618 219 l 1,107,-1
 618 220 l 1,108,109
 587 313 587 313 622 388 c 0,110,111
 640 428 640 428 672 451 c 0,112,113
 727 490 727 490 789 470 c 1,114,-1
 817 457 l 1,115,-1
 818 456 l 1,116,117
 840 442 840 442 869 399 c 1,0,1
119 295 m 1,118,119
 137 313 137 313 157 323 c 0,120,121
 217 353 217 353 278 322 c 1,122,-1
 306 302 l 1,123,-1
 307 301 l 2,124,125
 323 286 323 286 334 264 c 1,126,-1
 335 263 l 1,127,-1
 336 262 l 1,128,129
 347 241 347 241 350 211 c 0,130,131
 351 195 351 195 346 173 c 1,132,-1
 346 172 l 1,133,134
 342 154 342 154 332 137 c 1,135,-1
 331 135 l 1,136,-1
 329 131 l 1,137,138
 295 77 295 77 230 69 c 1,139,-1
 229 69 l 1,140,141
 190 65 190 65 155 83 c 1,142,143
 124 101 124 101 106 128 c 1,144,-1
 105 129 l 1,145,-1
 104 130 l 1,146,-1
 103 131 l 1,147,-1
 88 161 l 1,148,149
 68 212 68 212 65 263 c 0,150,151
 62 307 62 307 72 340 c 1,152,-1
 72 341 l 1,153,154
 97 420 97 420 177 466 c 0,155,156
 271 519 271 519 375 498 c 1,157,-1
 376 498 l 1,158,-1
 377 498 l 1,159,160
 403 492 403 492 427 482 c 0,161,162
 522 440 522 440 564 344 c 0,163,164
 589 288 589 288 587 228 c 1,165,-1
 587 227 l 1,166,167
 583 122 583 122 513 47 c 1,168,-1
 512 46 l 1,169,170
 466 -2 466 -2 406 -18 c 0,171,172
 377 -26 377 -26 317 -26 c 2,173,-1
 229 -26 l 2,174,175
 161 -26 161 -26 120 -48 c 1,176,-1
 119 -48 l 1,177,178
 84 -68 84 -68 90 -102 c 1,179,-1
 90 -103 l 1,180,-1
 91 -107 l 2,181,182
 96 -125 96 -125 117 -137 c 1,183,-1
 118 -138 l 1,184,185
 144 -153 144 -153 191 -159 c 1,186,-1
 308 -161 l 1,187,-1
 506 -161 l 1,188,-1
 575 -161 l 1,189,-1
 612 -162 l 1,190,191
 633 -166 633 -166 634 -188 c 1,192,-1
 634 -192 l 1,193,194
 631 -216 631 -216 599 -216 c 2,195,-1
 478 -216 l 1,196,-1
 287 -216 l 2,197,198
 190 -216 190 -216 156 -209 c 2,199,-1
 147 -207 l 2,200,201
 63 -188 63 -188 40 -129 c 1,202,-1
 40 -128 l 1,203,-1
 36 -113 l 1,204,205
 33 -94 33 -94 35 -81 c 1,206,-1
 42 -54 l 1,207,208
 69 11 69 11 178 26 c 1,209,-1
 179 26 l 1,210,211
 206 29 206 29 314 29 c 0,212,213
 371 29 371 29 393 35 c 0,214,215
 423 44 423 44 445 61 c 0,216,217
 518 115 518 115 530 210 c 0,218,219
 537 262 537 262 518 312 c 1,220,-1
 517 315 l 1,221,-1
 516 318 l 1,222,-1
 516 319 l 1,223,224
 504 347 504 347 486 369 c 0,225,226
 469 389 469 389 447 406 c 1,227,-1
 446 407 l 1,228,-1
 445 408 l 1,229,230
 366 465 366 465 265 441 c 1,231,-1
 223 427 l 1,232,-1
 222 427 l 1,233,234
 166 402 166 402 138 355 c 0,235,236
 127 336 127 336 119 296 c 1,237,-1
 119 295 l 1,118,119
207 282 m 1,238,239
 192 281 192 281 177 272 c 1,240,241
 164 263 164 263 153 251 c 1,242,243
 129 218 129 218 140 182 c 1,244,245
 142 172 142 172 152 159 c 0,246,247
 181 119 181 119 224 123 c 0,248,249
 238 124 238 124 252 132 c 1,250,251
 265 138 265 138 274 149 c 0,252,253
 306 185 306 185 290 230 c 0,254,255
 283 249 283 249 268 262 c 1,256,-1
 267 263 l 2,257,258
 256 273 256 273 243 277 c 1,259,260
 227 284 227 284 208 282 c 1,261,-1
 207 282 l 1,238,239
EndSplineSet
EndChar

StartChar: uni0D0B
Encoding: 3339 3339 54
Width: 784
GlyphClass: 2
Flags: W
LayerCount: 2
Fore
SplineSet
200 5 m 1,0,-1
 176 18 l 1,1,2
 155 33 155 33 134 53 c 2,3,-1
 133 54 l 2,4,5
 76 111 76 111 62 191 c 1,6,-1
 62 192 l 1,7,-1
 62 193 l 1,8,9
 54 236 54 236 61 291 c 1,10,-1
 61 292 l 1,11,12
 68 355 68 355 85 393 c 1,13,14
 105 442 105 442 140 472 c 0,15,16
 192 515 192 515 259 499 c 1,17,-1
 294 486 l 1,18,-1
 296 485 l 1,19,-1
 297 484 l 1,20,-1
 298 483 l 1,21,22
 363 442 363 442 373 356 c 1,23,-1
 373 355 l 1,24,25
 379 299 379 299 357 252 c 1,26,-1
 356 250 l 2,27,28
 338 214 338 214 310 192 c 1,29,-1
 309 191 l 1,30,31
 254 148 254 148 188 169 c 1,32,-1
 187 169 l 1,33,-1
 160 182 l 1,34,-1
 158 183 l 1,35,-1
 134 203 l 1,36,-1
 114 226 l 1,37,-1
 113 227 l 1,38,-1
 116 202 l 1,39,40
 120 179 120 179 132 151 c 1,41,42
 146 124 146 124 162 104 c 1,43,-1
 164 102 l 1,44,45
 216 42 216 42 290 31 c 1,46,-1
 291 31 l 1,47,-1
 292 31 l 1,48,-1
 293 31 l 1,49,-1
 346 29 l 1,50,-1
 417 29 l 1,51,-1
 489 29 l 1,52,-1
 543 31 l 1,53,54
 618 43 618 43 669 100 c 1,55,-1
 670 101 l 1,56,-1
 671 102 l 1,57,58
 689 122 689 122 702 150 c 1,59,-1
 703 151 l 1,60,61
 715 179 715 179 719 202 c 1,62,-1
 722 227 l 1,63,-1
 721 227 l 1,64,65
 714 214 714 214 700 201 c 2,66,-1
 699 200 l 1,67,68
 649 153 649 153 581 166 c 0,69,70
 546 172 546 172 519 196 c 0,71,72
 461 247 461 247 461 327 c 2,73,-1
 461 328 l 1,74,-1
 461 329 l 1,75,-1
 461 330 l 1,76,-1
 461 331 l 1,77,-1
 461 332 l 1,78,-1
 465 372 l 1,79,-1
 465 373 l 1,80,81
 480 446 480 446 536 482 c 0,82,83
 557 496 557 496 581 500 c 1,84,85
 598 505 598 505 615 503 c 1,86,87
 636 502 636 502 657 494 c 1,88,-1
 658 494 l 1,89,90
 678 486 678 486 698 470 c 1,91,-1
 699 469 l 1,92,93
 749 424 749 424 767 336 c 0,94,95
 787 238 787 238 768 170 c 0,96,97
 755 124 755 124 732 91 c 1,98,-1
 731 90 l 1,99,100
 707 52 707 52 664 22 c 1,101,102
 650 11 650 11 636 5 c 1,103,-1
 635 5 l 1,104,-1
 635 4 l 1,105,106
 660 -3 660 -3 694 -29 c 0,107,108
 739 -64 739 -64 759 -108 c 0,109,110
 794 -182 794 -182 764 -257 c 1,111,-1
 764 -258 l 1,112,-1
 764 -259 l 1,113,-1
 755 -278 l 1,114,115
 734 -317 734 -317 698 -345 c 0,116,117
 635 -395 635 -395 542 -405 c 1,118,-1
 481 -406 l 1,119,-1
 392 -406 l 1,120,-1
 309 -406 l 1,121,122
 260 -403 260 -403 215 -388 c 1,123,-1
 214 -388 l 1,124,-1
 212 -387 l 1,125,126
 108 -347 108 -347 73 -262 c 1,127,-1
 72 -261 l 1,128,-1
 61 -224 l 1,129,-1
 57 -187 l 1,130,-1
 57 -186 l 2,131,132
 57 -159 57 -159 66 -132 c 1,133,-1
 76 -107 l 1,134,-1
 79 -101 l 2,135,136
 101 -59 101 -59 146 -26 c 1,137,-1
 147 -25 l 1,138,139
 178 -2 178 -2 200 4 c 1,140,-1
 200 5 l 1,0,-1
219 448 m 1,141,142
 177 444 177 444 153 399 c 1,143,-1
 149 391 l 1,144,145
 123 334 123 334 149 277 c 1,146,-1
 149 276 l 1,147,148
 168 233 168 233 208 220 c 1,149,-1
 209 220 l 1,150,-1
 236 218 l 1,151,152
 280 222 280 222 304 269 c 1,153,-1
 307 276 l 1,154,155
 333 332 333 332 308 389 c 1,156,-1
 307 391 l 1,157,158
 289 435 289 435 247 446 c 1,159,-1
 246 446 l 1,160,-1
 219 448 l 1,141,142
598 448 m 1,161,162
 556 444 556 444 532 399 c 1,163,-1
 528 391 l 1,164,165
 502 334 502 334 528 277 c 1,166,-1
 528 276 l 1,167,168
 547 233 547 233 587 220 c 1,169,-1
 588 220 l 1,170,-1
 615 218 l 1,171,172
 659 222 659 222 683 269 c 1,173,-1
 686 276 l 2,174,175
 711 333 711 333 686 390 c 1,176,-1
 686 391 l 1,177,178
 668 435 668 435 626 446 c 1,179,-1
 625 446 l 1,180,-1
 598 448 l 1,161,162
307 -26 m 1,181,182
 209 -35 209 -35 156 -88 c 0,183,184
 106 -138 106 -138 114 -206 c 0,185,186
 117 -225 117 -225 125 -243 c 1,187,-1
 126 -246 l 1,188,-1
 126 -247 l 1,189,-1
 127 -249 l 2,190,191
 143 -280 143 -280 173 -303 c 1,192,-1
 174 -304 l 1,193,194
 223 -342 223 -342 293 -350 c 1,195,-1
 401 -351 l 1,196,-1
 406 -351 l 1,197,-1
 485 -351 l 1,198,-1
 541 -350 l 1,199,200
 632 -341 632 -341 685 -283 c 0,201,202
 706 -259 706 -259 716 -231 c 1,203,-1
 716 -230 l 1,204,-1
 722 -199 l 1,205,206
 724 -180 724 -180 719 -160 c 0,207,208
 714 -135 714 -135 701 -116 c 1,209,210
 688 -94 688 -94 663 -74 c 1,211,-1
 662 -73 l 1,212,213
 613 -36 613 -36 542 -27 c 1,214,-1
 541 -27 l 1,215,-1
 433 -26 l 1,216,-1
 352 -26 l 1,217,-1
 307 -26 l 1,181,182
EndSplineSet
EndChar

StartChar: uni0D0C
Encoding: 3340 3340 55
Width: 926
GlyphClass: 2
Flags: W
LayerCount: 2
Fore
SplineSet
831 360 m 1,0,-1
 782 421 l 1,1,-1
 779 424 l 1,2,3
 723 462 723 462 654 441 c 1,4,-1
 653 441 l 1,5,-1
 648 439 l 1,6,7
 621 430 621 430 599 413 c 1,8,-1
 598 412 l 1,9,10
 576 395 576 395 563 378 c 0,11,12
 528 334 528 334 519 276 c 0,13,14
 516 259 516 259 516 216 c 2,15,-1
 516 215 l 1,16,-1
 516 214 l 1,17,-1
 516 213 l 1,18,-1
 516 212 l 1,19,-1
 516 211 l 1,20,-1
 516 210 l 1,21,-1
 516 122 l 1,22,-1
 516 48 l 1,23,-1
 516 9 l 1,24,25
 511 -12 511 -12 492 -14 c 1,26,-1
 488 -14 l 2,27,28
 469 -14 469 -14 462 5 c 1,29,-1
 461 11 l 1,30,-1
 461 53 l 1,31,-1
 461 132 l 1,32,-1
 461 211 l 1,33,-1
 460 267 l 1,34,35
 450 353 450 353 399 405 c 0,36,37
 381 423 381 423 361 433 c 0,38,39
 295 468 295 468 222 430 c 1,40,-1
 221 429 l 1,41,-1
 220 428 l 1,42,43
 194 415 194 415 174 394 c 2,44,-1
 173 393 l 1,45,46
 131 348 131 348 119 290 c 1,47,-1
 113 249 l 1,48,-1
 114 249 l 1,49,50
 119 259 119 259 135 275 c 0,51,52
 183 321 183 321 247 312 c 1,53,-1
 248 312 l 1,54,55
 269 309 269 309 286 300 c 2,56,-1
 288 299 l 1,57,-1
 290 298 l 1,58,59
 348 265 348 265 367 195 c 1,60,-1
 367 194 l 1,61,62
 391 105 391 105 339 32 c 1,63,-1
 338 31 l 1,64,65
 318 4 318 4 287 -12 c 0,66,67
 225 -42 225 -42 162 -9 c 1,68,-1
 142 3 l 1,69,70
 95 41 95 41 73 119 c 0,71,72
 63 153 63 153 60 193 c 1,73,-1
 60 194 l 1,74,-1
 60 195 l 1,75,-1
 60 196 l 1,76,-1
 58 251 l 1,77,78
 63 336 63 336 110 403 c 0,79,80
 162 477 162 477 249 498 c 0,81,82
 301 510 301 510 350 496 c 0,83,84
 377 489 377 489 404 472 c 1,85,-1
 405 471 l 1,86,87
 443 447 443 447 471 403 c 1,88,-1
 491 365 l 1,89,-1
 505 392 l 1,90,91
 521 416 521 416 538 433 c 0,92,93
 607 503 607 503 700 503 c 0,94,95
 738 503 738 503 772 490 c 1,96,97
 795 480 795 480 812 469 c 1,98,-1
 813 468 l 1,99,100
 835 453 835 453 852 432 c 0,101,102
 938 331 938 331 914 148 c 1,103,104
 900 50 900 50 855 6 c 2,105,-1
 854 5 l 1,106,-1
 853 4 l 1,107,108
 810 -20 810 -20 799 24 c 1,109,-1
 798 33 l 1,110,111
 792 35 792 35 811 52 c 0,112,113
 836 75 836 75 845 93 c 2,114,-1
 846 95 l 1,115,116
 861 139 861 139 863 202 c 1,117,-1
 863 203 l 1,118,-1
 863 204 l 1,119,120
 877 276 877 276 831 360 c 1,0,-1
219 258 m 1,121,122
 175 254 175 254 151 205 c 1,123,124
 123 151 123 151 146 94 c 1,125,-1
 146 93 l 1,126,-1
 154 76 l 1,127,128
 177 41 177 41 208 31 c 1,129,-1
 209 31 l 1,130,-1
 210 31 l 1,131,-1
 236 29 l 1,132,133
 281 33 281 33 306 83 c 1,134,-1
 308 88 l 1,135,136
 334 150 334 150 304 207 c 1,137,-1
 301 212 l 2,138,139
 281 247 281 247 246 256 c 1,140,-1
 219 258 l 1,121,122
EndSplineSet
EndChar

StartChar: uni0D0E
Encoding: 3342 3342 56
Width: 1116
GlyphClass: 2
Flags: W
LayerCount: 2
Fore
SplineSet
556 40 m 1,0,-1
 556 139 l 1,1,2
 561 217 561 217 580 279 c 1,3,-1
 581 281 l 1,4,-1
 582 283 l 1,5,-1
 583 285 l 1,6,7
 615 380 615 380 678 438 c 0,8,9
 753 506 753 506 851 503 c 0,10,11
 893 502 893 502 932 484 c 1,12,-1
 934 483 l 1,13,-1
 935 483 l 1,14,-1
 936 483 l 1,15,-1
 954 474 l 1,16,17
 1012 440 1012 440 1050 372 c 0,18,19
 1115 255 1115 255 1108 82 c 1,20,-1
 1108 81 l 1,21,22
 1105 -9 1105 -9 1086 -80 c 0,23,24
 1047 -223 1047 -223 948 -256 c 1,25,-1
 947 -256 l 1,26,-1
 907 -263 l 1,27,-1
 884 -263 l 1,28,29
 863 -256 863 -256 865 -234 c 0,30,31
 865 -224 865 -224 872 -217 c 2,32,-1
 873 -216 l 1,33,-1
 879 -212 l 1,34,-1
 910 -208 l 1,35,-1
 917 -207 l 1,36,37
 949 -200 949 -200 974 -177 c 1,38,-1
 975 -176 l 1,39,40
 1017 -136 1017 -136 1037 -48 c 1,41,-1
 1037 -47 l 1,42,43
 1050 7 1050 7 1053 83 c 0,44,45
 1056 186 1056 186 1036 259 c 0,46,47
 996 403 996 403 901 439 c 1,48,-1
 900 439 l 1,49,-1
 889 442 l 2,50,51
 865 448 865 448 841 448 c 0,52,53
 816 448 816 448 789 440 c 0,54,55
 761 431 761 431 735 413 c 1,56,-1
 734 412 l 1,57,-1
 733 411 l 1,58,59
 641 343 641 343 617 197 c 1,60,-1
 617 196 l 1,61,62
 611 165 611 165 611 133 c 2,63,-1
 611 132 l 1,64,-1
 611 131 l 1,65,-1
 611 129 l 1,66,-1
 611 65 l 1,67,-1
 611 49 l 1,68,-1
 613 42 l 1,69,-1
 626 40 l 1,70,-1
 659 40 l 1,71,-1
 793 40 l 1,72,-1
 793 325 l 1,73,-1
 793 365 l 1,74,-1
 794 388 l 1,75,76
 801 408 801 408 820 408 c 2,77,-1
 823 408 l 1,78,79
 844 405 844 405 848 385 c 1,80,-1
 848 383 l 1,81,-1
 848 345 l 1,82,-1
 848 274 l 1,83,-1
 848 19 l 2,84,85
 848 -100 848 -100 842 -137 c 1,86,-1
 837 -163 l 1,87,88
 824 -217 824 -217 793 -242 c 0,89,90
 747 -279 747 -279 680 -258 c 0,91,92
 650 -248 650 -248 628 -228 c 0,93,94
 578 -181 578 -181 564 -70 c 1,95,96
 559 -46 559 -46 559 -25 c 2,97,-1
 559 -24 l 1,98,-1
 559 -22 l 1,99,-1
 559 -20 l 1,100,-1
 559 -19 l 1,101,-1
 559 -17 l 1,102,-1
 559 -15 l 1,103,-1
 437 -15 l 2,104,105
 375 -15 375 -15 359 -18 c 2,106,-1
 323 -26 l 1,107,108
 307 -26 307 -26 299 -13 c 0,109,110
 296 -8 296 -8 296 -4 c 0,111,112
 293 12 293 12 314 28 c 1,113,-1
 315 29 l 1,114,-1
 322 34 l 2,115,116
 340 47 340 47 356 67 c 0,117,118
 402 126 402 126 386 195 c 1,119,-1
 386 196 l 1,120,-1
 386 197 l 1,121,122
 378 237 378 237 349 266 c 0,123,124
 302 313 302 313 233 305 c 1,125,-1
 203 297 l 1,126,-1
 202 297 l 1,127,128
 181 289 181 289 161 273 c 1,129,-1
 159 271 l 1,130,131
 142 256 142 256 133 237 c 1,132,-1
 132 236 l 1,133,-1
 131 235 l 1,134,-1
 130 234 l 1,135,136
 119 215 119 215 114 188 c 1,137,138
 105 111 105 111 158 54 c 1,139,-1
 159 53 l 2,140,141
 172 40 172 40 184 32 c 2,142,-1
 201 19 l 1,143,144
 215 2 215 2 202 -16 c 1,145,-1
 197 -21 l 1,146,-1
 187 -25 l 1,147,148
 175 -28 175 -28 157 -18 c 1,149,-1
 156 -17 l 1,150,-1
 155 -16 l 1,151,152
 132 1 132 1 110 25 c 1,153,-1
 108 27 l 1,154,155
 50 98 50 98 60 189 c 0,156,157
 65 237 65 237 91 276 c 0,158,159
 109 303 109 303 131 319 c 1,160,161
 201 374 201 374 289 357 c 0,162,163
 337 347 337 347 375 317 c 1,164,-1
 376 316 l 1,165,166
 400 296 400 296 416 268 c 1,167,-1
 417 267 l 1,168,-1
 418 266 l 1,169,170
 466 184 466 184 430 88 c 1,171,-1
 430 87 l 1,172,173
 423 70 423 70 405 40 c 1,174,-1
 556 40 l 1,0,-1
793 -15 m 1,175,-1
 614 -15 l 1,176,-1
 617 -55 l 1,177,178
 623 -104 623 -104 633 -133 c 0,179,180
 644 -164 644 -164 660 -183 c 1,181,-1
 661 -184 l 2,182,183
 685 -209 685 -209 725 -209 c 0,184,185
 749 -209 749 -209 762 -197 c 0,186,187
 779 -180 779 -180 785 -143 c 1,188,189
 793 -106 793 -106 793 -21 c 2,190,-1
 793 -20 l 1,191,-1
 793 -19 l 1,192,-1
 793 -18 l 1,193,-1
 793 -17 l 1,194,-1
 793 -16 l 1,195,-1
 793 -15 l 1,175,-1
EndSplineSet
EndChar

StartChar: uni0D0F
Encoding: 3343 3343 57
Width: 1119
GlyphClass: 2
Flags: W
LayerCount: 2
Fore
SplineSet
556 40 m 1,0,-1
 556 139 l 1,1,2
 561 223 561 223 584 288 c 1,3,4
 612 371 612 371 664 424 c 0,5,6
 709 469 709 469 757 487 c 1,7,-1
 758 487 l 1,8,9
 790 499 790 499 821 502 c 0,10,11
 868 508 868 508 915 494 c 1,12,-1
 921 492 l 1,13,-1
 958 477 l 1,14,-1
 959 477 l 1,15,-1
 960 476 l 1,16,17
 986 464 986 464 1009 446 c 0,18,19
 1062 404 1062 404 1088 342 c 0,20,21
 1131 239 1131 239 1089 132 c 1,22,-1
 1072 96 l 1,23,24
 1047 51 1047 51 1003 20 c 1,25,26
 1055 -3 1055 -3 1081 -36 c 1,27,28
 1121 -90 1121 -90 1104 -151 c 1,29,-1
 1100 -163 l 1,30,31
 1090 -186 1090 -186 1071 -206 c 2,32,-1
 1069 -208 l 2,33,34
 1049 -227 1049 -227 1016 -241 c 1,35,-1
 1015 -242 l 1,36,37
 975 -258 975 -258 913 -263 c 1,38,39
 882 -267 882 -267 871 -254 c 1,40,-1
 870 -253 l 1,41,42
 857 -235 857 -235 870 -220 c 1,43,-1
 872 -218 l 2,44,45
 877 -212 877 -212 885 -210 c 1,46,-1
 903 -209 l 1,47,-1
 929 -207 l 1,48,-1
 954 -203 l 1,49,50
 1048 -182 1048 -182 1054 -124 c 1,51,-1
 1053 -104 l 1,52,53
 1043 -43 1043 -43 950 -21 c 1,54,-1
 934 -18 l 1,55,-1
 904 -15 l 1,56,-1
 884 -14 l 1,57,58
 865 -7 865 -7 864 11 c 1,59,-1
 864 12 l 2,60,61
 864 31 864 31 882 38 c 1,62,-1
 883 39 l 1,63,-1
 884 39 l 1,64,-1
 885 39 l 1,65,-1
 920 43 l 1,66,67
 968 54 968 54 1000 90 c 0,68,69
 1059 158 1059 158 1054 249 c 0,70,71
 1053 269 1053 269 1048 288 c 0,72,73
 1034 343 1034 343 995 384 c 1,74,-1
 994 385 l 1,75,-1
 993 386 l 2,76,77
 971 408 971 408 943 422 c 1,78,-1
 942 423 l 1,79,-1
 941 424 l 1,80,81
 905 442 905 442 872 446 c 0,82,83
 845 450 845 450 818 446 c 1,84,-1
 817 446 l 1,85,-1
 780 437 l 1,86,87
 683 399 683 399 638 275 c 1,88,-1
 637 273 l 1,89,-1
 636 271 l 1,90,-1
 622 221 l 2,91,92
 615 193 615 193 614 170 c 1,93,94
 611 146 611 146 611 77 c 2,95,-1
 611 76 l 1,96,-1
 611 75 l 1,97,-1
 611 52 l 1,98,-1
 613 42 l 1,99,-1
 626 40 l 1,100,-1
 659 40 l 1,101,-1
 793 40 l 1,102,-1
 793 325 l 1,103,-1
 793 365 l 1,104,-1
 794 388 l 1,105,106
 801 408 801 408 820 408 c 2,107,-1
 823 408 l 1,108,109
 844 405 844 405 848 385 c 1,110,-1
 848 383 l 1,111,-1
 848 345 l 1,112,-1
 848 274 l 1,113,-1
 848 19 l 2,114,115
 848 -100 848 -100 842 -137 c 1,116,-1
 837 -163 l 1,117,118
 824 -217 824 -217 793 -242 c 0,119,120
 747 -279 747 -279 680 -258 c 0,121,122
 650 -248 650 -248 628 -228 c 0,123,124
 578 -181 578 -181 564 -70 c 1,125,126
 559 -46 559 -46 559 -25 c 2,127,-1
 559 -24 l 1,128,-1
 559 -22 l 1,129,-1
 559 -20 l 1,130,-1
 559 -19 l 1,131,-1
 559 -17 l 1,132,-1
 559 -15 l 1,133,-1
 437 -15 l 2,134,135
 375 -15 375 -15 359 -18 c 2,136,-1
 323 -26 l 1,137,138
 307 -26 307 -26 299 -13 c 0,139,140
 296 -8 296 -8 296 -4 c 0,141,142
 293 12 293 12 314 28 c 1,143,-1
 315 29 l 1,144,-1
 322 34 l 2,145,146
 340 47 340 47 356 67 c 0,147,148
 402 126 402 126 386 195 c 1,149,-1
 386 196 l 1,150,-1
 386 197 l 1,151,152
 378 237 378 237 349 266 c 0,153,154
 302 313 302 313 233 305 c 1,155,-1
 203 297 l 1,156,-1
 202 297 l 1,157,158
 181 289 181 289 161 273 c 1,159,-1
 159 271 l 1,160,161
 142 256 142 256 133 237 c 1,162,-1
 132 236 l 1,163,-1
 131 235 l 1,164,-1
 130 234 l 1,165,166
 119 215 119 215 114 188 c 1,167,168
 105 111 105 111 158 54 c 1,169,-1
 159 53 l 2,170,171
 172 40 172 40 184 32 c 2,172,-1
 201 19 l 1,173,174
 215 2 215 2 202 -16 c 1,175,-1
 197 -21 l 1,176,-1
 187 -25 l 1,177,178
 175 -28 175 -28 157 -18 c 1,179,-1
 156 -17 l 1,180,-1
 155 -16 l 1,181,182
 132 1 132 1 110 25 c 1,183,-1
 108 27 l 1,184,185
 50 98 50 98 60 189 c 0,186,187
 65 237 65 237 91 276 c 0,188,189
 109 303 109 303 131 319 c 1,190,191
 201 374 201 374 289 357 c 0,192,193
 337 347 337 347 375 317 c 1,194,-1
 376 316 l 1,195,196
 400 296 400 296 416 268 c 1,197,-1
 417 267 l 1,198,-1
 418 266 l 1,199,200
 466 184 466 184 430 88 c 1,201,-1
 430 87 l 1,202,203
 423 70 423 70 405 40 c 1,204,-1
 556 40 l 1,0,-1
793 -15 m 1,205,-1
 614 -15 l 1,206,-1
 617 -55 l 1,207,208
 623 -104 623 -104 633 -133 c 0,209,210
 644 -164 644 -164 660 -183 c 1,211,-1
 661 -184 l 2,212,213
 685 -209 685 -209 725 -209 c 0,214,215
 749 -209 749 -209 762 -197 c 0,216,217
 779 -180 779 -180 785 -143 c 1,218,219
 793 -106 793 -106 793 -21 c 2,220,-1
 793 -20 l 1,221,-1
 793 -19 l 1,222,-1
 793 -18 l 1,223,-1
 793 -17 l 1,224,-1
 793 -16 l 1,225,-1
 793 -15 l 1,205,-1
EndSplineSet
EndChar

StartChar: uni0D10
Encoding: 3344 3344 58
Width: 1663
GlyphClass: 2
Flags: W
LayerCount: 2
Fore
SplineSet
1095 40 m 1,0,-1
 1095 139 l 1,1,2
 1100 216 1100 216 1121 281 c 1,3,-1
 1121 282 l 1,4,-1
 1121 283 l 1,5,-1
 1122 285 l 1,6,7
 1154 380 1154 380 1217 438 c 0,8,9
 1292 506 1292 506 1387 503 c 1,10,-1
 1388 503 l 1,11,-1
 1389 503 l 1,12,-1
 1390 503 l 1,13,14
 1446 502 1446 502 1493 474 c 0,15,16
 1551 440 1551 440 1589 372 c 0,17,18
 1654 255 1654 255 1647 82 c 1,19,-1
 1647 81 l 1,20,21
 1644 -9 1644 -9 1625 -80 c 0,22,23
 1586 -223 1586 -223 1487 -256 c 1,24,-1
 1486 -256 l 1,25,-1
 1446 -263 l 1,26,-1
 1423 -263 l 1,27,28
 1403 -256 1403 -256 1404 -235 c 1,29,-1
 1404 -234 l 2,30,31
 1404 -224 1404 -224 1411 -217 c 2,32,-1
 1412 -216 l 1,33,-1
 1413 -215 l 1,34,-1
 1418 -212 l 1,35,-1
 1449 -208 l 1,36,-1
 1450 -208 l 1,37,-1
 1451 -208 l 1,38,-1
 1456 -207 l 2,39,40
 1488 -200 1488 -200 1513 -177 c 1,41,-1
 1514 -176 l 1,42,43
 1556 -136 1556 -136 1576 -49 c 1,44,-1
 1576 -48 l 1,45,-1
 1576 -47 l 1,46,47
 1589 7 1589 7 1592 83 c 0,48,49
 1595 186 1595 186 1575 259 c 0,50,51
 1535 403 1535 403 1440 439 c 1,52,-1
 1439 439 l 1,53,-1
 1438 439 l 1,54,-1
 1438 439 l 1,55,-1
 1428 442 l 1,56,57
 1404 448 1404 448 1380 448 c 0,58,59
 1355 448 1355 448 1328 440 c 0,60,61
 1299 431 1299 431 1274 412 c 1,62,-1
 1272 411 l 1,63,64
 1180 343 1180 343 1156 196 c 0,65,66
 1150 165 1150 165 1150 133 c 2,67,-1
 1150 132 l 1,68,-1
 1150 131 l 1,69,-1
 1150 129 l 1,70,-1
 1150 65 l 1,71,-1
 1150 49 l 1,72,-1
 1152 42 l 1,73,-1
 1165 40 l 1,74,-1
 1198 40 l 1,75,-1
 1332 40 l 1,76,-1
 1332 325 l 1,77,-1
 1332 365 l 1,78,-1
 1333 388 l 1,79,80
 1340 408 1340 408 1359 408 c 2,81,-1
 1362 408 l 1,82,83
 1383 405 1383 405 1387 385 c 1,84,-1
 1387 383 l 1,85,-1
 1387 345 l 1,86,-1
 1387 274 l 1,87,-1
 1387 19 l 2,88,89
 1387 -100 1387 -100 1381 -137 c 1,90,-1
 1376 -163 l 1,91,92
 1363 -217 1363 -217 1332 -242 c 0,93,94
 1286 -279 1286 -279 1220 -258 c 1,95,-1
 1219 -258 l 1,96,-1
 1219 -258 l 1,97,98
 1189 -248 1189 -248 1167 -228 c 0,99,100
 1117 -181 1117 -181 1103 -70 c 1,101,102
 1098 -48 1098 -48 1098 -26 c 2,103,-1
 1098 -24 l 1,104,-1
 1098 -22 l 1,105,-1
 1098 -20 l 1,106,-1
 1098 -19 l 1,107,-1
 1098 -17 l 1,108,-1
 1098 -15 l 1,109,-1
 976 -15 l 2,110,111
 914 -15 914 -15 898 -18 c 2,112,-1
 862 -26 l 1,113,114
 846 -26 846 -26 838 -13 c 0,115,116
 835 -8 835 -8 835 -4 c 0,117,118
 832 12 832 12 853 28 c 1,119,-1
 854 29 l 1,120,-1
 855 29 l 1,121,-1
 861 34 l 1,122,123
 879 47 879 47 895 67 c 0,124,125
 941 126 941 126 925 195 c 1,126,-1
 925 196 l 1,127,-1
 925 197 l 1,128,129
 917 237 917 237 888 266 c 0,130,131
 841 313 841 313 773 305 c 1,132,-1
 772 305 l 1,133,-1
 741 297 l 1,134,135
 722 291 722 291 704 275 c 1,136,-1
 701 273 l 1,137,-1
 698 271 l 1,138,139
 682 256 682 256 669 234 c 0,140,141
 658 215 658 215 653 189 c 1,142,-1
 653 188 l 1,143,144
 644 112 644 112 696 55 c 1,145,-1
 697 54 l 1,146,-1
 698 53 l 2,147,148
 711 40 711 40 723 32 c 2,149,-1
 740 19 l 1,150,151
 754 2 754 2 742 -15 c 1,152,-1
 741 -16 l 1,153,-1
 736 -21 l 1,154,-1
 736 -21 l 1,155,-1
 736 -21 l 1,156,-1
 726 -25 l 1,157,158
 714 -28 714 -28 694 -16 c 1,159,160
 671 1 671 1 649 25 c 1,161,-1
 648 26 l 1,162,-1
 647 27 l 1,163,164
 589 98 589 98 599 189 c 0,165,166
 604 236 604 236 630 276 c 0,167,168
 648 303 648 303 670 319 c 1,169,170
 740 374 740 374 828 357 c 0,171,172
 875 347 875 347 912 318 c 1,173,-1
 913 317 l 1,174,-1
 915 316 l 1,175,176
 939 296 939 296 955 268 c 1,177,-1
 956 267 l 1,178,-1
 957 266 l 1,179,180
 1005 184 1005 184 969 88 c 1,181,-1
 969 87 l 1,182,183
 962 70 962 70 944 40 c 1,184,-1
 1095 40 l 1,0,-1
1332 -15 m 1,185,-1
 1153 -15 l 1,186,-1
 1156 -55 l 1,187,188
 1162 -104 1162 -104 1172 -133 c 0,189,190
 1183 -164 1183 -164 1198 -182 c 1,191,-1
 1199 -183 l 1,192,-1
 1200 -184 l 2,193,194
 1224 -209 1224 -209 1264 -209 c 0,195,196
 1288 -209 1288 -209 1301 -197 c 0,197,198
 1318 -180 1318 -180 1324 -143 c 1,199,200
 1332 -106 1332 -106 1332 -21 c 2,201,-1
 1332 -20 l 1,202,-1
 1332 -19 l 1,203,-1
 1332 -18 l 1,204,-1
 1332 -17 l 1,205,-1
 1332 -16 l 1,206,-1
 1332 -15 l 1,185,-1
114 249 m 1,207,208
 119 259 119 259 135 275 c 0,209,210
 183 321 183 321 247 312 c 1,211,-1
 248 312 l 1,212,213
 269 309 269 309 286 300 c 2,214,-1
 288 299 l 1,215,-1
 290 298 l 1,216,217
 346 266 346 266 368 195 c 1,218,-1
 368 194 l 1,219,-1
 368 193 l 1,220,221
 389 112 389 112 347 45 c 1,222,-1
 346 43 l 1,223,-1
 345 42 l 1,224,-1
 331 23 l 2,225,226
 316 4 316 4 291 -10 c 1,227,-1
 290 -11 l 1,228,229
 236 -39 236 -39 179 -17 c 1,230,-1
 176 -16 l 1,231,232
 141 -3 141 -3 116 30 c 1,233,234
 79 76 79 76 65 155 c 1,235,-1
 65 156 l 1,236,237
 49 253 49 253 71 321 c 1,238,-1
 71 322 l 1,239,240
 103 418 103 418 193 469 c 0,241,242
 221 484 221 484 249 493 c 1,243,-1
 251 494 l 1,244,-1
 252 494 l 1,245,-1
 253 494 l 1,246,-1
 254 494 l 1,247,248
 305 508 305 508 363 500 c 0,249,250
 415 492 415 492 459 465 c 0,251,252
 485 448 485 448 511 424 c 1,253,-1
 512 423 l 2,254,255
 529 406 529 406 545 382 c 0,256,257
 612 277 612 277 574 140 c 1,258,-1
 564 109 l 1,259,260
 544 52 544 52 502 1 c 0,261,262
 480 -27 480 -27 463 -26 c 1,263,-1
 462 -26 l 1,264,-1
 458 -25 l 2,265,266
 441 -21 441 -21 438 -6 c 1,267,-1
 438 -4 l 1,268,-1
 438 -2 l 1,269,-1
 438 0 l 2,270,271
 438 9 438 9 442 16 c 1,272,-1
 443 17 l 1,273,-1
 461 39 l 1,274,-1
 490 80 l 1,275,276
 547 180 547 180 528 279 c 0,277,278
 523 303 523 303 513 326 c 1,279,280
 475 404 475 404 396 434 c 0,281,282
 364 447 364 447 332 448 c 1,283,-1
 331 448 l 1,284,-1
 330 448 l 1,285,286
 239 450 239 450 174 386 c 2,287,-1
 173 385 l 2,288,289
 143 355 143 355 128 316 c 0,290,291
 112 276 112 276 114 250 c 1,292,-1
 114 249 l 1,207,208
219 258 m 1,293,294
 175 254 175 254 151 205 c 1,295,296
 123 151 123 151 146 94 c 1,297,-1
 146 93 l 1,298,-1
 154 76 l 1,299,300
 177 41 177 41 208 31 c 1,301,-1
 209 31 l 1,302,-1
 210 31 l 1,303,-1
 236 29 l 1,304,305
 281 33 281 33 306 83 c 1,306,-1
 308 88 l 1,307,308
 334 150 334 150 304 207 c 1,309,-1
 301 212 l 2,310,311
 281 247 281 247 246 256 c 1,312,-1
 219 258 l 1,293,294
EndSplineSet
EndChar

StartChar: uni0D12
Encoding: 3346 3346 59
Width: 640
GlyphClass: 2
Flags: W
LayerCount: 2
Fore
SplineSet
114 249 m 1,0,1
 120 260 120 260 137 277 c 2,2,-1
 138 278 l 1,3,4
 190 324 190 324 257 309 c 1,5,-1
 280 302 l 1,6,-1
 282 301 l 1,7,-1
 285 300 l 1,8,9
 306 290 306 290 325 271 c 0,10,11
 381 214 381 214 373 127 c 0,12,13
 367 56 367 56 320 11 c 0,14,15
 271 -36 271 -36 201 -23 c 1,16,17
 171 -16 171 -16 147 1 c 1,18,-1
 145 2 l 1,19,-1
 143 3 l 1,20,21
 107 30 107 30 84 85 c 1,22,-1
 84 86 l 1,23,24
 68 124 68 124 61 185 c 0,25,26
 52 265 52 265 73 323 c 1,27,28
 99 399 99 399 173 450 c 0,29,30
 267 514 267 514 379 501 c 0,31,32
 427 495 427 495 469 474 c 0,33,34
 509 455 509 455 534 421 c 0,35,36
 576 365 576 365 559 300 c 0,37,38
 557 295 557 295 556 291 c 2,39,-1
 553 284 l 1,40,41
 547 267 547 267 531 250 c 1,42,43
 562 239 562 239 589 217 c 1,44,-1
 590 216 l 1,45,-1
 591 215 l 1,46,-1
 592 214 l 2,47,48
 607 200 607 200 620 177 c 1,49,-1
 621 176 l 1,50,51
 629 162 629 162 632 141 c 1,52,-1
 632 140 l 1,53,54
 636 120 636 120 633 106 c 1,55,56
 630 84 630 84 621 63 c 1,57,-1
 621 62 l 1,58,59
 589 -2 589 -2 508 -21 c 0,60,61
 465 -31 465 -31 429 -21 c 0,62,63
 408 -15 408 -15 400 -8 c 0,64,65
 383 6 383 6 394 26 c 0,66,67
 400 37 400 37 412 39 c 0,68,69
 418 40 418 40 440 33 c 1,70,-1
 441 33 l 1,71,72
 454 29 454 29 471 29 c 0,73,74
 528 31 528 31 560 70 c 1,75,76
 581 94 581 94 579 125 c 1,77,-1
 573 149 l 1,78,79
 550 195 550 195 481 208 c 1,80,-1
 480 208 l 1,81,-1
 478 208 l 1,82,-1
 452 211 l 1,83,84
 425 213 425 213 418 225 c 2,85,-1
 417 227 l 2,86,87
 407 245 407 245 424 259 c 1,88,-1
 425 260 l 1,89,-1
 430 263 l 1,90,-1
 450 267 l 1,91,92
 466 269 466 269 474 275 c 1,93,94
 514 298 514 298 507 346 c 0,95,96
 505 362 505 362 498 375 c 2,97,-1
 497 377 l 1,98,99
 463 437 463 437 370 447 c 1,100,-1
 365 447 l 1,101,102
 267 455 267 455 191 395 c 0,103,104
 154 365 154 365 134 325 c 0,105,106
 121 300 121 300 113 249 c 1,107,-1
 114 249 l 1,0,1
219 258 m 1,108,109
 175 254 175 254 151 205 c 1,110,111
 123 151 123 151 146 94 c 1,112,-1
 146 93 l 1,113,-1
 154 76 l 1,114,115
 177 41 177 41 208 31 c 1,116,-1
 209 31 l 1,117,-1
 210 31 l 1,118,-1
 236 29 l 1,119,120
 281 33 281 33 306 83 c 1,121,-1
 308 88 l 1,122,123
 334 150 334 150 304 207 c 1,124,-1
 301 212 l 2,125,126
 281 247 281 247 246 256 c 1,127,-1
 219 258 l 1,108,109
EndSplineSet
EndChar

StartChar: uni0D13
Encoding: 3347 3347 60
Width: 1064
GlyphClass: 2
Flags: W
LayerCount: 2
Fore
SplineSet
848 503 m 1,0,1
 915 509 915 509 969 463 c 1,2,-1
 970 462 l 1,3,4
 1004 432 1004 432 1026 382 c 0,5,6
 1077 268 1077 268 1043 145 c 1,7,-1
 1043 144 l 1,8,-1
 1043 143 l 1,9,10
 1035 116 1035 116 1024 92 c 1,11,-1
 1024 91 l 1,12,13
 989 13 989 13 918 -16 c 1,14,-1
 894 -23 l 2,15,16
 881 -26 881 -26 853 -26 c 1,17,18
 768 -22 768 -22 711 40 c 1,19,-1
 710 41 l 1,20,-1
 709 42 l 1,21,-1
 690 67 l 1,22,-1
 671 105 l 2,23,24
 666 117 666 117 669 126 c 1,25,-1
 669 128 l 1,26,-1
 670 130 l 1,27,28
 678 149 678 149 700 146 c 1,29,-1
 713 141 l 1,30,-1
 714 140 l 2,31,32
 719 135 719 135 726 117 c 0,33,34
 734 99 734 99 742 90 c 0,35,36
 781 38 781 38 842 29 c 1,37,-1
 843 29 l 1,38,39
 863 27 863 27 881 31 c 0,40,41
 944 44 944 44 977 121 c 1,42,-1
 978 123 l 1,43,-1
 981 130 l 1,44,45
 1019 228 1019 228 987 330 c 1,46,-1
 978 355 l 1,47,48
 952 415 952 415 909 436 c 1,49,-1
 908 437 l 1,50,51
 852 465 852 465 789 429 c 0,52,53
 765 415 765 415 748 395 c 0,54,55
 736 382 736 382 728 365 c 1,56,-1
 728 364 l 1,57,-1
 717 341 l 1,58,-1
 716 340 l 1,59,-1
 715 338 l 1,60,61
 701 322 701 322 682 333 c 0,62,63
 675 338 675 338 672 344 c 1,64,-1
 671 345 l 1,65,66
 666 355 666 355 672 374 c 1,67,-1
 691 411 l 1,68,69
 732 472 732 472 799 494 c 1,70,-1
 800 494 l 1,71,72
 816 499 816 499 848 503 c 1,0,1
114 249 m 1,73,74
 120 260 120 260 137 277 c 2,75,-1
 138 278 l 1,76,77
 190 324 190 324 257 309 c 1,78,-1
 280 302 l 1,79,-1
 282 301 l 1,80,-1
 285 300 l 1,81,82
 306 290 306 290 325 271 c 0,83,84
 381 214 381 214 373 127 c 0,85,86
 367 56 367 56 320 11 c 0,87,88
 271 -36 271 -36 201 -23 c 1,89,90
 171 -16 171 -16 147 1 c 1,91,-1
 145 2 l 1,92,-1
 143 3 l 1,93,94
 107 30 107 30 84 85 c 1,95,-1
 84 86 l 1,96,97
 68 124 68 124 61 185 c 0,98,99
 52 265 52 265 73 323 c 1,100,101
 99 399 99 399 173 450 c 0,102,103
 267 514 267 514 379 501 c 0,104,105
 427 495 427 495 469 474 c 0,106,107
 509 455 509 455 534 421 c 0,108,109
 576 365 576 365 559 300 c 0,110,111
 557 295 557 295 556 291 c 2,112,-1
 553 284 l 1,113,114
 547 267 547 267 531 250 c 1,115,116
 562 239 562 239 589 217 c 1,117,-1
 590 216 l 1,118,-1
 591 215 l 1,119,-1
 592 214 l 2,120,121
 607 200 607 200 620 177 c 1,122,-1
 621 176 l 1,123,124
 629 162 629 162 632 141 c 1,125,-1
 632 140 l 1,126,127
 636 120 636 120 633 106 c 1,128,129
 630 84 630 84 621 63 c 1,130,-1
 621 62 l 1,131,132
 589 -2 589 -2 508 -21 c 0,133,134
 465 -31 465 -31 429 -21 c 0,135,136
 408 -15 408 -15 400 -8 c 0,137,138
 383 6 383 6 394 26 c 0,139,140
 400 37 400 37 412 39 c 0,141,142
 418 40 418 40 440 33 c 1,143,-1
 441 33 l 1,144,145
 454 29 454 29 471 29 c 0,146,147
 528 31 528 31 560 70 c 1,148,149
 581 94 581 94 579 125 c 1,150,-1
 573 149 l 1,151,152
 550 195 550 195 481 208 c 1,153,-1
 480 208 l 1,154,-1
 478 208 l 1,155,-1
 452 211 l 1,156,157
 425 213 425 213 418 225 c 2,158,-1
 417 227 l 2,159,160
 407 245 407 245 424 259 c 1,161,-1
 425 260 l 1,162,-1
 430 263 l 1,163,-1
 450 267 l 1,164,165
 466 269 466 269 474 275 c 1,166,167
 514 298 514 298 507 346 c 0,168,169
 505 362 505 362 498 375 c 2,170,-1
 497 377 l 1,171,172
 463 437 463 437 370 447 c 1,173,-1
 365 447 l 1,174,175
 267 455 267 455 191 395 c 0,176,177
 154 365 154 365 134 325 c 0,178,179
 121 300 121 300 113 249 c 1,180,-1
 114 249 l 1,73,74
219 258 m 1,181,182
 175 254 175 254 151 205 c 1,183,184
 123 151 123 151 146 94 c 1,185,-1
 146 93 l 1,186,-1
 154 76 l 1,187,188
 177 41 177 41 208 31 c 1,189,-1
 209 31 l 1,190,-1
 210 31 l 1,191,-1
 236 29 l 1,192,193
 281 33 281 33 306 83 c 1,194,-1
 308 88 l 1,195,196
 334 150 334 150 304 207 c 1,197,-1
 301 212 l 2,198,199
 281 247 281 247 246 256 c 1,200,-1
 219 258 l 1,181,182
EndSplineSet
EndChar

StartChar: uni0D14
Encoding: 3348 3348 61
Width: 1154
GlyphClass: 2
Flags: W
LayerCount: 2
Fore
SplineSet
880 426 m 1,0,1
 905 482 905 482 966 498 c 1,2,3
 1010 511 1010 511 1051 491 c 1,4,-1
 1052 491 l 1,5,6
 1083 475 1083 475 1105 440 c 0,7,8
 1131 397 1131 397 1140 326 c 1,9,-1
 1140 325 l 1,10,11
 1145 283 1145 283 1144 251 c 1,12,-1
 1144 250 l 1,13,-1
 1144 249 l 1,14,15
 1139 165 1139 165 1095 94 c 1,16,-1
 1094 93 l 1,17,18
 1036 5 1036 5 942 -18 c 1,19,-1
 927 -21 l 1,20,-1
 913 -24 l 1,21,22
 875 -28 875 -28 865 -21 c 0,23,24
 859 -18 859 -18 856 -12 c 0,25,26
 845 7 845 7 861 22 c 1,27,-1
 868 26 l 2,28,29
 873 29 873 29 890 29 c 1,30,-1
 922 34 l 1,31,32
 976 46 976 46 1016 85 c 0,33,34
 1074 140 1074 140 1087 226 c 1,35,-1
 1087 227 l 1,36,37
 1091 258 1091 258 1087 305 c 0,38,39
 1081 371 1081 371 1058 409 c 1,40,-1
 1058 410 l 1,41,42
 1049 425 1049 425 1038 434 c 0,43,44
 1007 459 1007 459 969 441 c 1,45,-1
 964 439 l 1,46,47
 944 428 944 428 930 403 c 0,48,49
 907 364 907 364 907 292 c 2,50,-1
 907 291 l 1,51,-1
 907 290 l 1,52,-1
 907 289 l 1,53,-1
 907 288 l 1,54,-1
 907 287 l 1,55,-1
 907 286 l 1,56,-1
 907 222 l 1,57,-1
 907 189 l 1,58,59
 905 170 905 170 885 164 c 0,60,61
 878 162 878 162 871 165 c 1,62,-1
 870 166 l 1,63,-1
 869 166 l 1,64,65
 855 173 855 173 852 194 c 1,66,-1
 852 195 l 1,67,-1
 852 197 l 1,68,-1
 852 199 l 1,69,-1
 852 201 l 1,70,-1
 852 203 l 1,71,-1
 852 204 l 1,72,-1
 852 244 l 2,73,74
 852 329 852 329 847 353 c 0,75,76
 842 378 842 378 831 399 c 1,77,-1
 831 400 l 1,78,79
 803 448 803 448 761 448 c 0,80,81
 745 448 745 448 729 440 c 1,82,-1
 728 440 l 1,83,84
 710 431 710 431 697 414 c 1,85,-1
 696 413 l 1,86,87
 651 355 651 355 681 266 c 1,88,-1
 683 259 l 1,89,-1
 702 221 l 1,90,-1
 715 200 l 1,91,-1
 716 196 l 2,92,93
 721 175 721 175 700 166 c 0,94,95
 689 161 689 161 679 166 c 2,96,-1
 675 168 l 2,97,98
 667 173 667 173 657 189 c 0,99,100
 639 217 639 217 629 245 c 1,101,-1
 629 246 l 1,102,-1
 629 247 l 1,103,104
 598 340 598 340 633 415 c 0,105,106
 651 455 651 455 683 478 c 0,107,108
 738 517 738 517 800 497 c 0,109,110
 816 492 816 492 829 483 c 0,111,112
 851 469 851 469 880 426 c 1,0,1
114 249 m 1,113,114
 120 260 120 260 137 277 c 2,115,-1
 138 278 l 1,116,117
 190 324 190 324 257 309 c 1,118,-1
 280 302 l 1,119,-1
 282 301 l 1,120,-1
 285 300 l 1,121,122
 306 290 306 290 325 271 c 0,123,124
 381 214 381 214 373 127 c 0,125,126
 367 56 367 56 320 11 c 0,127,128
 271 -36 271 -36 201 -23 c 1,129,130
 171 -16 171 -16 147 1 c 1,131,-1
 145 2 l 1,132,-1
 143 3 l 1,133,134
 107 30 107 30 84 85 c 1,135,-1
 84 86 l 1,136,137
 68 124 68 124 61 185 c 0,138,139
 52 265 52 265 73 323 c 1,140,141
 99 399 99 399 173 450 c 0,142,143
 267 514 267 514 379 501 c 0,144,145
 427 495 427 495 469 474 c 0,146,147
 509 455 509 455 534 421 c 0,148,149
 576 365 576 365 559 300 c 0,150,151
 557 295 557 295 556 291 c 2,152,-1
 553 284 l 1,153,154
 547 267 547 267 531 250 c 1,155,156
 562 239 562 239 589 217 c 1,157,-1
 590 216 l 1,158,-1
 591 215 l 1,159,-1
 592 214 l 2,160,161
 607 200 607 200 620 177 c 1,162,-1
 621 176 l 1,163,164
 629 162 629 162 632 141 c 1,165,-1
 632 140 l 1,166,167
 636 120 636 120 633 106 c 1,168,169
 630 84 630 84 621 63 c 1,170,-1
 621 62 l 1,171,172
 589 -2 589 -2 508 -21 c 0,173,174
 465 -31 465 -31 429 -21 c 0,175,176
 408 -15 408 -15 400 -8 c 0,177,178
 383 6 383 6 394 26 c 0,179,180
 400 37 400 37 412 39 c 0,181,182
 418 40 418 40 440 33 c 1,183,-1
 441 33 l 1,184,185
 454 29 454 29 471 29 c 0,186,187
 528 31 528 31 560 70 c 1,188,189
 581 94 581 94 579 125 c 1,190,-1
 573 149 l 1,191,192
 550 195 550 195 481 208 c 1,193,-1
 480 208 l 1,194,-1
 478 208 l 1,195,-1
 452 211 l 1,196,197
 425 213 425 213 418 225 c 2,198,-1
 417 227 l 2,199,200
 407 245 407 245 424 259 c 1,201,-1
 425 260 l 1,202,-1
 430 263 l 1,203,-1
 450 267 l 1,204,205
 466 269 466 269 474 275 c 1,206,207
 514 298 514 298 507 346 c 0,208,209
 505 362 505 362 498 375 c 2,210,-1
 497 377 l 1,211,212
 463 437 463 437 370 447 c 1,213,-1
 365 447 l 1,214,215
 267 455 267 455 191 395 c 0,216,217
 154 365 154 365 134 325 c 0,218,219
 121 300 121 300 113 249 c 1,220,-1
 114 249 l 1,113,114
219 258 m 1,221,222
 175 254 175 254 151 205 c 1,223,224
 123 151 123 151 146 94 c 1,225,-1
 146 93 l 1,226,-1
 154 76 l 1,227,228
 177 41 177 41 208 31 c 1,229,-1
 209 31 l 1,230,-1
 210 31 l 1,231,-1
 236 29 l 1,232,233
 281 33 281 33 306 83 c 1,234,-1
 308 88 l 1,235,236
 334 150 334 150 304 207 c 1,237,-1
 301 212 l 2,238,239
 281 247 281 247 246 256 c 1,240,-1
 219 258 l 1,221,222
EndSplineSet
EndChar

StartChar: uni0D15
Encoding: 3349 3349 62
Width: 881
GlyphClass: 2
Flags: W
LayerCount: 2
Fore
SplineSet
296 289 m 1,0,1
 301 398 301 398 364 461 c 2,2,-1
 371 468 l 1,3,4
 426 515 426 515 496 499 c 1,5,-1
 497 499 l 1,6,-1
 506 497 l 1,7,8
 530 490 530 490 550 474 c 0,9,10
 585 448 585 448 608 397 c 0,11,12
 630 348 630 348 633 289 c 1,13,-1
 727 287 l 1,14,15
 788 279 788 279 831 235 c 0,16,17
 844 222 844 222 855 201 c 1,18,-1
 856 200 l 1,19,20
 890 134 890 134 856 62 c 0,21,22
 833 13 833 13 787 -11 c 1,23,-1
 786 -12 l 1,24,-1
 751 -24 l 1,25,26
 724 -28 724 -28 706 -24 c 0,27,28
 678 -18 678 -18 660 3 c 1,29,-1
 659 4 l 1,30,31
 646 23 646 23 655 39 c 2,32,-1
 656 41 l 1,33,-1
 664 48 l 1,34,35
 680 57 680 57 694 47 c 1,36,-1
 712 32 l 1,37,-1
 717 30 l 1,38,39
 745 22 745 22 776 46 c 1,40,-1
 777 47 l 1,41,42
 816 79 816 79 817 126 c 1,43,-1
 817 127 l 1,44,-1
 817 128 l 1,45,-1
 817 129 l 1,46,-1
 817 130 l 1,47,-1
 817 131 l 2,48,49
 817 149 817 149 810 165 c 1,50,-1
 810 166 l 1,51,52
 797 199 797 199 761 219 c 1,53,-1
 760 220 l 1,54,55
 734 234 734 234 684 234 c 2,56,-1
 683 234 l 1,57,-1
 633 234 l 1,58,59
 633 207 633 207 628 172 c 0,60,61
 613 64 613 64 559 11 c 0,62,63
 511 -35 511 -35 443 -24 c 1,64,-1
 442 -24 l 1,65,66
 400 -17 400 -17 370 11 c 0,67,68
 351 30 351 30 346 41 c 1,69,70
 312 5 312 5 274 -13 c 1,71,-1
 273 -13 l 1,72,-1
 272 -13 l 1,73,-1
 234 -23 l 1,74,-1
 198 -26 l 1,75,-1
 161 -19 l 1,76,-1
 160 -19 l 1,77,78
 97 3 97 3 71 69 c 1,79,-1
 70 71 l 1,80,81
 51 119 51 119 62 167 c 2,82,-1
 63 171 l 1,83,84
 82 239 82 239 149 271 c 1,85,-1
 150 272 l 1,86,-1
 155 274 l 1,87,88
 192 291 192 291 275 289 c 1,89,-1
 278 289 l 1,90,-1
 296 289 l 1,0,1
578 289 m 1,91,92
 575 334 575 334 559 371 c 0,93,94
 544 406 544 406 526 423 c 0,95,96
 489 459 489 459 443 445 c 1,97,-1
 442 445 l 1,98,-1
 441 445 l 1,99,-1
 430 441 l 1,100,-1
 428 440 l 2,101,102
 418 436 418 436 402 422 c 1,103,104
 357 377 357 377 351 289 c 1,105,-1
 578 289 l 1,91,92
296 234 m 1,106,-1
 244 234 l 1,107,-1
 197 231 l 1,108,109
 168 224 168 224 146 204 c 1,110,111
 126 189 126 189 118 163 c 1,112,113
 101 115 101 115 129 72 c 1,114,-1
 130 70 l 1,115,-1
 131 68 l 1,116,117
 148 44 148 44 175 34 c 0,118,119
 226 16 226 16 278 52 c 1,120,-1
 279 53 l 1,121,-1
 290 61 l 1,122,123
 301 72 301 72 308 83 c 1,124,-1
 309 84 l 1,125,-1
 316 97 l 2,126,127
 318 102 318 102 313 114 c 1,128,-1
 307 141 l 2,129,130
 297 185 297 185 296 228 c 1,131,-1
 296 233 l 1,132,-1
 296 234 l 1,106,-1
578 234 m 1,133,-1
 351 234 l 1,134,135
 351 149 351 149 382 87 c 0,136,137
 402 45 402 45 436 33 c 0,138,139
 473 20 473 20 506 39 c 1,140,-1
 507 40 l 1,141,-1
 509 41 l 1,142,143
 525 52 525 52 539 73 c 1,144,-1
 540 74 l 1,145,146
 555 97 555 97 566 137 c 1,147,-1
 566 138 l 1,148,-1
 566 139 l 1,149,150
 578 185 578 185 578 232 c 2,151,-1
 578 233 l 1,152,-1
 578 234 l 1,133,-1
EndSplineSet
EndChar

StartChar: uni0D16
Encoding: 3350 3350 63
Width: 929
GlyphClass: 2
Flags: W
LayerCount: 2
Fore
SplineSet
114 249 m 1,0,1
 122 262 122 262 135 275 c 2,2,-1
 136 276 l 1,3,4
 185 323 185 323 254 310 c 1,5,6
 291 302 291 302 319 277 c 1,7,-1
 320 276 l 1,8,-1
 321 275 l 2,9,10
 378 219 378 219 374 137 c 1,11,-1
 374 136 l 1,12,-1
 374 135 l 1,13,-1
 374 134 l 1,14,-1
 374 133 l 1,15,16
 370 56 370 56 318 9 c 0,17,18
 268 -37 268 -37 199 -22 c 1,19,-1
 198 -22 l 1,20,21
 169 -16 169 -16 144 2 c 1,22,-1
 143 3 l 1,23,24
 108 29 108 29 85 84 c 0,25,26
 68 126 68 126 61 184 c 0,27,28
 54 240 54 240 61 282 c 1,29,-1
 62 285 l 1,30,31
 79 378 79 378 152 441 c 1,32,-1
 153 442 l 1,33,34
 237 512 237 512 349 501 c 1,35,-1
 350 501 l 1,36,37
 429 493 429 493 489 444 c 0,38,39
 541 402 541 402 566 342 c 0,40,41
 615 227 615 227 556 92 c 1,42,-1
 556 91 l 1,43,-1
 532 44 l 1,44,-1
 530 40 l 1,45,-1
 864 40 l 1,46,-1
 864 217 l 1,47,-1
 864 335 l 1,48,-1
 864 425 l 1,49,-1
 864 452 l 1,50,-1
 865 470 l 1,51,52
 871 491 871 491 893 490 c 1,53,-1
 895 490 l 1,54,-1
 896 490 l 1,55,56
 910 488 910 488 916 475 c 0,57,58
 919 468 919 468 919 445 c 2,59,-1
 919 443 l 1,60,-1
 919 441 l 1,61,-1
 919 440 l 1,62,-1
 919 369 l 1,63,-1
 919 116 l 1,64,-1
 919 28 l 2,65,66
 919 -2 919 -2 907 -10 c 0,67,68
 899 -15 899 -15 873 -15 c 2,69,-1
 806 -15 l 1,70,-1
 544 -15 l 2,71,72
 513 -15 513 -15 498 -18 c 2,73,-1
 467 -26 l 1,74,-1
 462 -26 l 1,75,76
 444 -24 444 -24 438 -6 c 1,77,-1
 438 -5 l 1,78,79
 435 8 435 8 453 30 c 1,80,-1
 456 33 l 1,81,82
 481 62 481 62 497 95 c 1,83,-1
 498 96 l 1,84,-1
 499 97 l 1,85,86
 553 205 553 205 521 303 c 0,87,88
 513 330 513 330 497 354 c 0,89,90
 477 383 477 383 453 402 c 1,91,-1
 452 403 l 1,92,-1
 451 404 l 1,93,94
 379 460 379 460 289 445 c 1,95,-1
 288 445 l 1,96,-1
 287 445 l 1,97,98
 263 441 263 441 239 430 c 1,99,-1
 238 430 l 1,100,-1
 237 430 l 1,101,102
 201 413 201 413 175 387 c 0,103,104
 134 346 134 346 120 291 c 1,105,-1
 113 249 l 1,106,-1
 114 249 l 1,0,1
219 258 m 1,107,108
 175 254 175 254 151 205 c 1,109,110
 123 151 123 151 146 94 c 1,111,-1
 146 93 l 1,112,-1
 154 76 l 1,113,114
 177 41 177 41 208 31 c 1,115,-1
 209 31 l 1,116,-1
 210 31 l 1,117,-1
 236 29 l 1,118,119
 281 33 281 33 306 83 c 1,120,-1
 308 88 l 1,121,122
 334 150 334 150 304 207 c 1,123,-1
 301 212 l 2,124,125
 281 247 281 247 246 256 c 1,126,-1
 219 258 l 1,107,108
EndSplineSet
EndChar

StartChar: uni0D17
Encoding: 3351 3351 64
Width: 884
GlyphClass: 2
Flags: W
LayerCount: 2
Fore
SplineSet
272 502 m 0,0,1
 293 505 293 505 300 484 c 0,2,3
 306 469 306 469 296 458 c 0,4,5
 290 451 290 451 270 446 c 1,6,-1
 238 434 l 1,7,8
 189 411 189 411 157 368 c 0,9,10
 98 291 98 291 117 189 c 0,11,12
 123 156 123 156 138 126 c 1,13,-1
 138 125 l 1,14,15
 178 46 178 46 248 32 c 1,16,-1
 280 29 l 1,17,18
 298 29 298 29 314 35 c 0,19,20
 391 59 391 59 424 154 c 1,21,-1
 431 179 l 1,22,-1
 439 261 l 1,23,-1
 443 296 l 1,24,25
 463 405 463 405 537 463 c 1,26,-1
 538 463 l 1,27,28
 573 490 573 490 615 499 c 0,29,30
 654 507 654 507 692 500 c 2,31,-1
 697 499 l 1,32,-1
 700 498 l 1,33,34
 719 494 719 494 738 484 c 0,35,36
 827 441 827 441 859 330 c 0,37,38
 874 279 874 279 872 227 c 0,39,40
 870 196 870 196 863 168 c 0,41,42
 835 66 835 66 747 10 c 1,43,-1
 735 3 l 2,44,45
 713 -10 713 -10 687 -19 c 1,46,-1
 686 -19 l 1,47,-1
 660 -26 l 1,48,49
 647 -26 647 -26 641 -23 c 0,50,51
 623 -13 623 -13 628 8 c 1,52,-1
 628 9 l 1,53,-1
 633 18 l 1,54,55
 639 26 639 26 657 30 c 1,56,-1
 658 30 l 1,57,-1
 690 42 l 1,58,59
 738 65 738 65 771 106 c 1,60,-1
 772 107 l 1,61,62
 833 185 833 185 812 291 c 1,63,-1
 812 292 l 1,64,65
 807 319 807 319 796 344 c 1,66,-1
 795 346 l 1,67,68
 761 418 761 418 697 441 c 1,69,-1
 696 441 l 1,70,-1
 695 441 l 1,71,-1
 686 444 l 2,72,73
 671 448 671 448 652 448 c 2,74,-1
 651 448 l 2,75,76
 635 448 635 448 617 443 c 0,77,78
 539 419 539 419 506 323 c 1,79,-1
 499 298 l 1,80,-1
 491 216 l 1,81,-1
 487 181 l 1,82,83
 467 72 467 72 393 14 c 0,84,85
 358 -13 358 -13 315 -22 c 0,86,87
 272 -30 272 -30 231 -21 c 0,88,89
 139 1 139 1 90 99 c 0,90,91
 39 202 39 202 68 311 c 1,92,-1
 78 341 l 1,93,94
 100 392 100 392 141 433 c 2,95,-1
 142 434 l 1,96,-1
 143 435 l 2,97,98
 168 460 168 460 194 473 c 1,99,-1
 201 477 l 1,100,-1
 202 477 l 1,101,-1
 203 478 l 1,102,103
 242 498 242 498 272 502 c 0,0,1
EndSplineSet
EndChar

StartChar: uni0D18
Encoding: 3352 3352 65
Width: 1328
GlyphClass: 2
Flags: W
LayerCount: 2
Fore
SplineSet
508 175 m 1,0,-1
 409 175 l 1,1,-1
 346 174 l 1,2,-1
 306 164 l 2,3,4
 282 159 282 159 273 181 c 1,5,-1
 272 185 l 2,6,7
 269 201 269 201 289 219 c 1,8,-1
 290 220 l 1,9,-1
 294 223 l 1,10,-1
 316 248 l 1,11,-1
 317 250 l 1,12,13
 355 307 355 307 336 368 c 0,14,15
 328 393 328 393 310 413 c 1,16,-1
 309 414 l 1,17,-1
 308 415 l 1,18,-1
 307 416 l 1,19,20
 260 460 260 460 200 444 c 1,21,-1
 199 444 l 1,22,23
 173 437 173 437 153 420 c 1,24,-1
 151 419 l 1,25,26
 137 406 137 406 127 388 c 0,27,28
 116 369 116 369 113 344 c 0,29,30
 107 287 107 287 147 239 c 1,31,-1
 163 221 l 1,32,33
 177 210 177 210 180 205 c 0,34,35
 190 189 190 189 179 175 c 1,36,-1
 177 173 l 1,37,-1
 176 172 l 2,38,39
 170 166 170 166 162 164 c 1,40,-1
 161 164 l 1,41,42
 149 162 149 162 133 174 c 1,43,44
 110 194 110 194 97 213 c 1,45,-1
 96 214 l 1,46,47
 44 289 44 289 62 370 c 1,48,-1
 62 371 l 1,49,50
 69 398 69 398 83 422 c 1,51,-1
 84 424 l 1,52,-1
 85 425 l 1,53,54
 101 451 101 451 124 468 c 0,55,56
 189 518 189 518 268 497 c 1,57,-1
 269 497 l 1,58,-1
 270 497 l 1,59,60
 322 484 322 484 357 443 c 0,61,62
 410 381 410 381 393 294 c 0,63,64
 387 259 387 259 369 230 c 1,65,-1
 509 230 l 1,66,67
 519 359 519 359 596 437 c 0,68,69
 628 469 628 469 668 487 c 0,70,71
 692 497 692 497 715 500 c 1,72,-1
 716 500 l 1,73,74
 749 505 749 505 775 501 c 1,75,76
 807 498 807 498 840 482 c 1,77,-1
 841 482 l 1,78,79
 880 462 880 462 907 432 c 1,80,-1
 908 431 l 1,81,82
 974 359 974 359 987 251 c 1,83,-1
 987 250 l 1,84,-1
 990 210 l 1,85,86
 990 190 990 190 980 182 c 0,87,88
 972 175 972 175 947 175 c 2,89,-1
 945 175 l 1,90,-1
 869 175 l 1,91,-1
 563 175 l 1,92,-1
 563 40 l 1,93,-1
 1267 40 l 1,94,-1
 1267 387 l 1,95,-1
 1267 440 l 1,96,-1
 1268 469 l 1,97,98
 1273 489 1273 489 1292 491 c 1,99,-1
 1295 491 l 2,100,101
 1314 491 1314 491 1321 470 c 1,102,-1
 1321 469 l 1,103,-1
 1322 439 l 1,104,-1
 1322 384 l 1,105,-1
 1322 99 l 1,106,-1
 1322 29 l 2,107,108
 1322 4 1322 4 1315 -5 c 0,109,110
 1306 -16 1306 -16 1271 -15 c 1,111,-1
 1271 -15 l 1,112,-1
 1266 -15 l 1,113,-1
 1138 -15 l 1,114,-1
 682 -15 l 1,115,-1
 566 -15 l 1,116,-1
 528 -13 l 1,117,-1
 518 -8 l 1,118,119
 507 1 507 1 508 36 c 1,120,-1
 508 42 l 1,121,-1
 508 175 l 1,0,-1
934 230 m 1,122,123
 926 330 926 330 868 393 c 1,124,-1
 867 394 l 1,125,-1
 866 395 l 1,126,127
 832 432 832 432 787 443 c 0,128,129
 769 448 769 448 752 448 c 0,130,131
 725 448 725 448 707 442 c 0,132,133
 683 434 683 434 661 420 c 2,134,-1
 658 418 l 1,135,-1
 656 417 l 1,136,137
 631 397 631 397 610 367 c 1,138,-1
 609 366 l 1,139,-1
 608 365 l 1,140,141
 572 309 572 309 564 231 c 1,142,-1
 564 230 l 1,143,-1
 934 230 l 1,122,123
EndSplineSet
EndChar

StartChar: uni0D19
Encoding: 3353 3353 66
Width: 926
GlyphClass: 2
Flags: W
LayerCount: 2
Fore
SplineSet
114 249 m 1,0,1
 119 259 119 259 135 275 c 0,2,3
 183 321 183 321 247 312 c 1,4,-1
 248 312 l 1,5,6
 269 309 269 309 286 300 c 2,7,-1
 288 299 l 1,8,-1
 290 298 l 1,9,10
 348 265 348 265 367 195 c 1,11,-1
 367 194 l 1,12,13
 391 105 391 105 339 32 c 1,14,-1
 338 31 l 1,15,16
 318 4 318 4 287 -12 c 0,17,18
 225 -42 225 -42 162 -9 c 1,19,-1
 142 3 l 1,20,21
 95 41 95 41 73 119 c 0,22,23
 63 153 63 153 60 193 c 1,24,-1
 60 194 l 1,25,-1
 60 195 l 1,26,-1
 60 196 l 1,27,-1
 58 251 l 1,28,29
 63 336 63 336 110 403 c 0,30,31
 162 477 162 477 249 498 c 0,32,33
 301 510 301 510 350 496 c 0,34,35
 377 489 377 489 404 472 c 1,36,-1
 405 471 l 1,37,38
 443 447 443 447 471 403 c 1,39,-1
 491 365 l 1,40,-1
 505 392 l 1,41,42
 521 416 521 416 538 433 c 0,43,44
 564 459 564 459 592 474 c 1,45,-1
 593 475 l 1,46,47
 669 517 669 517 760 497 c 0,48,49
 813 485 813 485 849 454 c 0,50,51
 864 442 864 442 877 422 c 0,52,53
 913 363 913 363 880 293 c 1,54,-1
 879 292 l 1,55,-1
 879 291 l 1,56,-1
 878 289 l 2,57,58
 863 258 863 258 841 244 c 1,59,-1
 841 243 l 1,60,61
 870 227 870 227 890 202 c 1,62,-1
 891 201 l 1,63,64
 904 185 904 185 910 167 c 0,65,66
 935 100 935 100 893 41 c 0,67,68
 881 25 881 25 865 12 c 0,69,70
 805 -34 805 -34 721 -24 c 1,71,-1
 720 -24 l 1,72,73
 685 -19 685 -19 658 -7 c 0,74,75
 640 0 640 0 634 6 c 0,76,77
 619 23 619 23 634 42 c 1,78,-1
 637 45 l 1,79,-1
 638 46 l 2,80,81
 645 52 645 52 654 52 c 0,82,83
 662 52 662 52 680 43 c 0,84,85
 695 36 695 36 714 33 c 1,86,87
 779 19 779 19 826 51 c 1,88,-1
 827 52 l 1,89,-1
 828 53 l 1,90,91
 846 67 846 67 856 87 c 1,92,-1
 857 88 l 1,93,94
 863 101 863 101 864 112 c 1,95,-1
 864 114 l 1,96,-1
 864 115 l 1,97,-1
 864 116 l 2,98,99
 864 134 864 134 859 146 c 0,100,101
 854 159 854 159 847 168 c 1,102,-1
 846 169 l 1,103,104
 819 203 819 203 770 210 c 1,105,-1
 704 211 l 1,106,-1
 686 211 l 2,107,108
 650 211 650 211 640 215 c 1,109,-1
 640 215 l 1,110,-1
 639 216 l 1,111,-1
 639 216 l 1,112,113
 632 221 632 221 628 229 c 1,114,-1
 628 230 l 1,115,-1
 628 231 l 1,116,117
 622 254 622 254 644 263 c 1,118,-1
 645 264 l 1,119,-1
 656 266 l 1,120,-1
 729 266 l 2,121,122
 776 266 776 266 799 283 c 1,123,-1
 800 283 l 1,124,-1
 801 283 l 1,125,-1
 802 283 l 1,126,127
 818 295 818 295 826 309 c 1,128,-1
 827 310 l 1,129,130
 835 323 835 323 838 336 c 1,131,-1
 838 337 l 1,132,-1
 840 362 l 1,133,134
 837 413 837 413 769 437 c 1,135,-1
 767 438 l 1,136,-1
 732 446 l 1,137,138
 691 452 691 452 651 440 c 1,139,-1
 650 440 l 1,140,141
 620 430 620 430 599 413 c 0,142,143
 577 396 577 396 564 379 c 0,144,145
 528 334 528 334 519 275 c 0,146,147
 516 259 516 259 516 217 c 2,148,-1
 516 216 l 1,149,-1
 516 215 l 1,150,-1
 516 214 l 1,151,-1
 516 213 l 1,152,-1
 516 212 l 1,153,-1
 516 211 l 1,154,-1
 516 128 l 1,155,-1
 516 13 l 2,156,157
 516 -21 516 -21 496 -25 c 1,158,159
 475 -31 475 -31 465 -12 c 1,160,-1
 462 -4 l 1,161,-1
 461 32 l 1,162,-1
 461 33 l 1,163,-1
 461 103 l 1,164,-1
 461 195 l 1,165,-1
 460 267 l 1,166,167
 450 350 450 350 402 402 c 0,168,169
 387 417 387 417 369 429 c 0,170,171
 306 467 306 467 233 433 c 1,172,-1
 232 433 l 1,173,-1
 231 433 l 1,174,-1
 230 433 l 1,175,176
 198 419 198 419 174 394 c 2,177,-1
 173 393 l 1,178,179
 131 348 131 348 119 290 c 1,180,-1
 113 249 l 1,181,-1
 114 249 l 1,0,1
219 258 m 1,182,183
 175 254 175 254 151 205 c 1,184,185
 123 151 123 151 146 94 c 1,186,-1
 146 93 l 1,187,-1
 154 76 l 1,188,189
 177 41 177 41 208 31 c 1,190,-1
 209 31 l 1,191,-1
 210 31 l 1,192,-1
 236 29 l 1,193,194
 281 33 281 33 306 83 c 1,195,-1
 308 88 l 1,196,197
 334 150 334 150 304 207 c 1,198,-1
 301 212 l 2,199,200
 281 247 281 247 246 256 c 1,201,-1
 219 258 l 1,182,183
EndSplineSet
EndChar

StartChar: uni0D1A
Encoding: 3354 3354 67
Width: 979
GlyphClass: 2
Flags: W
LayerCount: 2
Fore
SplineSet
911 40 m 1,0,-1
 911 383 l 1,1,-1
 911 438 l 1,2,-1
 912 468 l 1,3,4
 915 487 915 487 934 490 c 0,5,6
 954 494 954 494 964 474 c 1,7,-1
 965 470 l 1,8,-1
 966 441 l 1,9,-1
 966 386 l 1,10,-1
 966 111 l 1,11,-1
 966 36 l 2,12,13
 966 6 966 6 963 0 c 0,14,15
 954 -16 954 -16 921 -15 c 1,16,-1
 919 -15 l 1,17,-1
 911 -15 l 1,18,-1
 769 -15 l 1,19,-1
 234 -15 l 1,20,-1
 108 -15 l 2,21,22
 77 -15 77 -15 68 -8 c 1,23,-1
 68 -8 l 1,24,-1
 61 0 l 1,25,26
 52 19 52 19 68 33 c 1,27,-1
 76 38 l 1,28,-1
 102 40 l 1,29,-1
 149 40 l 1,30,-1
 263 40 l 2,31,32
 344 40 344 40 384 54 c 1,33,-1
 385 54 l 1,34,35
 455 77 455 77 477 127 c 0,36,37
 501 184 501 184 462 244 c 1,38,39
 441 274 441 274 411 290 c 1,40,-1
 410 291 l 1,41,42
 351 321 351 321 290 294 c 0,43,44
 231 268 231 268 213 205 c 1,45,-1
 210 189 l 1,46,-1
 208 154 l 2,47,48
 208 137 208 137 204 130 c 0,49,50
 193 111 193 111 172 118 c 0,51,52
 162 122 162 122 157 132 c 1,53,-1
 156 133 l 1,54,-1
 155 134 l 1,55,-1
 153 154 l 1,56,-1
 153 155 l 1,57,-1
 154 190 l 1,58,59
 165 276 165 276 234 326 c 0,60,61
 255 340 255 340 278 349 c 0,62,63
 364 380 364 380 442 336 c 0,64,65
 475 317 475 317 498 288 c 0,66,67
 519 261 519 261 532 225 c 1,68,-1
 532 224 l 1,69,70
 546 174 546 174 535 128 c 1,71,-1
 535 127 l 1,72,73
 522 77 522 77 477 41 c 1,74,-1
 476 40 l 1,75,-1
 911 40 l 1,0,-1
EndSplineSet
EndChar

StartChar: uni0D1B
Encoding: 3355 3355 68
Width: 1216
GlyphClass: 2
Flags: W
LayerCount: 2
Fore
SplineSet
732 39 m 1,0,1
 665 143 665 143 675 258 c 1,2,-1
 675 259 l 1,3,-1
 682 303 l 1,4,5
 694 350 694 350 724 393 c 1,6,-1
 726 396 l 1,7,-1
 727 397 l 1,8,9
 752 430 752 430 781 451 c 0,10,11
 822 481 822 481 868 494 c 1,12,-1
 869 494 l 1,13,14
 971 522 971 522 1066 471 c 1,15,-1
 1069 469 l 1,16,-1
 1070 468 l 1,17,18
 1094 454 1094 454 1115 436 c 0,19,20
 1149 407 1149 407 1169 371 c 0,21,22
 1191 330 1191 330 1200 290 c 1,23,-1
 1200 288 l 1,24,-1
 1200 287 l 1,25,26
 1209 235 1209 235 1200 162 c 1,27,28
 1193 93 1193 93 1171 50 c 1,29,-1
 1171 49 l 1,30,-1
 1171 48 l 1,31,32
 1155 18 1155 18 1132 -1 c 0,33,34
 1088 -36 1088 -36 1039 -23 c 1,35,-1
 1038 -23 l 1,36,37
 1024 -20 1024 -20 1012 -12 c 0,38,39
 1003 -7 1003 -7 990 8 c 1,40,-1
 989 9 l 1,41,42
 966 41 966 41 960 99 c 1,43,44
 952 201 952 201 1004 289 c 0,45,46
 1027 328 1027 328 1062 363 c 2,47,-1
 1064 365 l 1,48,-1
 1081 380 l 2,49,50
 1087 384 1087 384 1084 389 c 1,51,-1
 1073 400 l 1,52,-1
 1071 401 l 1,53,54
 1053 416 1053 416 1034 425 c 1,55,-1
 1033 426 l 1,56,57
 948 468 948 468 861 433 c 1,58,-1
 860 433 l 1,59,-1
 839 423 l 1,60,61
 812 406 812 406 794 390 c 1,62,-1
 793 389 l 1,63,-1
 792 388 l 1,64,-1
 763 353 l 1,65,66
 706 266 706 266 743 147 c 1,67,-1
 743 146 l 1,68,-1
 743 145 l 1,69,-1
 749 127 l 1,70,71
 763 91 763 91 788 54 c 1,72,-1
 789 53 l 1,73,-1
 808 30 l 1,74,-1
 820 15 l 1,75,76
 831 -4 831 -4 816 -19 c 2,77,-1
 815 -20 l 1,78,-1
 813 -21 l 1,79,80
 803 -29 803 -29 772 -23 c 2,81,-1
 767 -22 l 1,82,-1
 723 -15 l 1,83,-1
 663 -15 l 1,84,-1
 224 -15 l 1,85,-1
 99 -15 l 2,86,87
 69 -15 69 -15 61 0 c 1,88,-1
 59 8 l 2,89,90
 55 27 55 27 74 37 c 1,91,-1
 80 39 l 1,92,-1
 113 40 l 1,93,-1
 176 40 l 1,94,-1
 267 40 l 1,95,-1
 311 40 l 1,96,97
 361 43 361 43 401 60 c 1,98,-1
 402 60 l 1,99,100
 477 93 477 93 484 156 c 0,101,102
 487 178 487 178 480 203 c 1,103,-1
 480 204 l 1,104,-1
 480 205 l 1,105,106
 471 233 471 233 458 250 c 1,107,108
 440 271 440 271 416 287 c 1,109,-1
 415 288 l 1,110,-1
 414 289 l 1,111,112
 352 323 352 323 288 292 c 1,113,-1
 287 292 l 1,114,-1
 286 292 l 1,115,116
 251 275 251 275 230 243 c 0,117,118
 211 214 211 214 208 176 c 1,119,-1
 207 140 l 1,120,-1
 206 135 l 1,121,122
 200 116 200 116 180 116 c 2,123,-1
 176 116 l 1,124,125
 158 119 158 119 153 140 c 1,126,-1
 153 141 l 1,127,-1
 153 161 l 2,128,129
 153 187 153 187 159 214 c 0,130,131
 176 290 176 290 246 333 c 0,132,133
 277 352 277 352 310 358 c 1,134,-1
 311 358 l 1,135,136
 399 373 399 373 465 321 c 1,137,-1
 466 320 l 1,138,-1
 477 311 l 1,139,140
 535 257 535 257 540 179 c 0,141,142
 543 134 543 134 524 97 c 0,143,144
 505 61 505 61 476 40 c 1,145,-1
 646 40 l 1,146,-1
 700 40 l 1,147,-1
 732 39 l 1,0,1
1122 342 m 1,148,149
 1100 328 1100 328 1076 297 c 1,150,-1
 1075 296 l 1,151,-1
 1074 295 l 1,152,153
 1014 219 1014 219 1014 121 c 2,154,-1
 1014 120 l 1,155,-1
 1014 119 l 2,156,157
 1014 80 1014 80 1026 53 c 1,158,159
 1036 34 1036 34 1050 30 c 0,160,161
 1057 28 1057 28 1071 30 c 0,162,163
 1111 38 1111 38 1131 96 c 1,164,-1
 1132 98 l 1,165,166
 1146 142 1146 142 1148 204 c 1,167,-1
 1148 265 l 1,168,169
 1142 305 1142 305 1122 342 c 1,148,149
EndSplineSet
EndChar

StartChar: uni0D1C
Encoding: 3356 3356 69
Width: 735
GlyphClass: 2
Flags: W
LayerCount: 2
Fore
SplineSet
139 401 m 1,0,-1
 172 408 l 1,1,2
 203 409 203 409 230 397 c 1,3,-1
 233 396 l 1,4,5
 251 388 251 388 264 375 c 0,6,7
 312 330 312 330 301 266 c 1,8,-1
 301 265 l 1,9,10
 297 242 297 242 285 222 c 1,11,-1
 284 220 l 1,12,-1
 283 219 l 1,13,14
 273 203 273 203 255 189 c 1,15,-1
 253 187 l 1,16,-1
 252 186 l 1,17,18
 199 148 199 148 137 171 c 0,19,20
 99 186 99 186 78 219 c 0,21,22
 65 240 65 240 60 263 c 1,23,-1
 60 264 l 1,24,-1
 60 265 l 1,25,-1
 58 310 l 1,26,-1
 58 311 l 1,27,-1
 58 343 l 1,28,29
 61 382 61 382 83 418 c 0,30,31
 126 485 126 485 213 500 c 0,32,33
 272 510 272 510 324 489 c 1,34,-1
 325 489 l 1,35,36
 368 470 368 470 397 438 c 1,37,-1
 418 409 l 1,38,-1
 434 433 l 1,39,40
 444 446 444 446 460 458 c 1,41,-1
 461 459 l 1,42,-1
 462 460 l 1,43,44
 526 511 526 511 599 501 c 0,45,46
 639 496 639 496 668 472 c 0,47,48
 731 420 731 420 729 327 c 0,49,50
 728 303 728 303 722 279 c 1,51,-1
 722 278 l 1,52,53
 713 243 713 243 692 209 c 1,54,-1
 691 208 l 1,55,-1
 690 207 l 1,56,57
 624 109 624 109 476 78 c 1,58,-1
 444 72 l 1,59,-1
 285 61 l 1,60,61
 199 49 199 49 162 22 c 1,62,-1
 161 22 l 1,63,64
 122 -7 122 -7 125 -47 c 1,65,-1
 125 -48 l 1,66,-1
 126 -54 l 2,67,68
 130 -83 130 -83 168 -99 c 0,69,70
 230 -125 230 -125 294 -109 c 0,71,72
 345 -97 345 -97 432 -44 c 1,73,-1
 433 -43 l 1,74,75
 515 8 515 8 562 21 c 0,76,77
 642 42 642 42 684 4 c 1,78,-1
 700 -15 l 1,79,80
 731 -63 731 -63 706 -114 c 0,81,82
 698 -129 698 -129 685 -143 c 1,83,84
 672 -154 672 -154 659 -160 c 0,85,86
 643 -167 643 -167 623 -169 c 0,87,88
 606 -170 606 -170 584 -163 c 1,89,90
 563 -154 563 -154 551 -142 c 0,91,92
 535 -126 535 -126 528 -108 c 0,93,94
 519 -87 519 -87 521 -56 c 1,95,-1
 521 -55 l 1,96,-1
 481 -78 l 1,97,-1
 413 -119 l 1,98,99
 330 -165 330 -165 263 -169 c 1,100,-1
 262 -169 l 1,101,102
 242 -170 242 -170 207 -166 c 1,103,-1
 206 -166 l 1,104,105
 132 -155 132 -155 95 -114 c 0,106,107
 54 -67 54 -67 78 0 c 0,108,109
 91 34 91 34 117 57 c 1,110,-1
 118 58 l 1,111,112
 151 87 151 87 214 104 c 1,113,-1
 215 104 l 1,114,115
 266 116 266 116 353 122 c 1,116,-1
 354 122 l 1,117,-1
 413 124 l 1,118,119
 538 134 538 134 616 205 c 0,120,121
 675 260 675 260 674 331 c 1,122,-1
 674 332 l 1,123,-1
 674 333 l 1,124,-1
 674 334 l 2,125,126
 674 361 674 361 663 387 c 1,127,-1
 663 388 l 1,128,129
 646 428 646 428 612 442 c 0,130,131
 586 453 586 453 554 444 c 1,132,-1
 553 444 l 1,133,-1
 552 444 l 1,134,-1
 551 444 l 1,135,136
 489 429 489 429 460 371 c 1,137,-1
 452 353 l 1,138,139
 444 329 444 329 445 264 c 1,140,-1
 445 263 l 1,141,-1
 445 262 l 1,142,-1
 445 261 l 1,143,-1
 445 257 l 1,144,-1
 445 210 l 1,145,-1
 444 184 l 1,146,147
 439 167 439 167 423 163 c 1,148,-1
 421 163 l 1,149,-1
 419 163 l 1,150,151
 400 162 400 162 392 181 c 1,152,-1
 392 182 l 1,153,-1
 391 186 l 1,154,-1
 390 220 l 1,155,-1
 390 221 l 1,156,-1
 390 287 l 1,157,-1
 390 319 l 1,158,159
 387 356 387 356 369 383 c 1,160,-1
 368 384 l 1,161,162
 357 400 357 400 340 416 c 2,163,-1
 339 417 l 1,164,165
 283 462 283 462 211 443 c 1,166,-1
 210 443 l 1,167,-1
 209 443 l 1,168,-1
 180 432 l 1,169,170
 159 421 159 421 140 402 c 2,171,-1
 139 401 l 1,0,-1
172 353 m 1,172,-1
 152 347 l 1,173,-1
 149 345 l 2,174,175
 137 338 137 338 130 330 c 0,176,177
 102 299 102 299 118 261 c 1,178,-1
 118 260 l 1,179,-1
 118 259 l 1,180,-1
 119 258 l 1,181,182
 124 245 124 245 134 236 c 0,183,184
 145 226 145 226 158 222 c 1,185,186
 172 216 172 216 188 218 c 0,187,188
 201 220 201 220 212 226 c 0,189,190
 224 233 224 233 231 241 c 0,191,192
 259 274 259 274 242 313 c 1,193,-1
 242 313 l 1,194,195
 237 325 237 325 228 334 c 0,196,197
 218 343 218 343 204 349 c 0,198,199
 190 354 190 354 173 353 c 1,200,-1
 172 353 l 1,172,-1
612 -26 m 1,201,-1
 597 -32 l 1,202,203
 571 -47 571 -47 576 -79 c 1,204,205
 581 -102 581 -102 603 -111 c 1,206,-1
 604 -112 l 1,207,-1
 624 -114 l 1,208,-1
 639 -109 l 1,209,210
 666 -94 666 -94 661 -63 c 0,211,212
 657 -40 657 -40 637 -31 c 1,213,-1
 636 -30 l 1,214,215
 628 -26 628 -26 612 -26 c 1,201,-1
EndSplineSet
EndChar

StartChar: uni0D1D
Encoding: 3357 3357 70
Width: 1494
GlyphClass: 2
Flags: W
LayerCount: 2
Fore
SplineSet
392 434 m 1,0,1
 362 447 362 447 332 448 c 0,2,3
 247 452 247 452 181 393 c 1,4,-1
 174 386 l 1,5,6
 116 326 116 326 113 248 c 1,7,-1
 113 247 l 1,8,9
 110 155 110 155 160 72 c 1,10,-1
 161 71 l 1,11,-1
 186 36 l 1,12,-1
 202 17 l 1,13,14
 216 -3 216 -3 199 -18 c 1,15,-1
 198 -19 l 1,16,-1
 197 -20 l 1,17,-1
 197 -20 l 1,18,-1
 185 -25 l 1,19,-1
 179 -26 l 1,20,21
 164 -26 164 -26 143 1 c 1,22,-1
 138 7 l 1,23,24
 93 63 93 63 73 134 c 1,25,-1
 73 135 l 1,26,27
 33 270 33 270 96 375 c 2,28,-1
 99 380 l 1,29,30
 120 410 120 410 139 429 c 2,31,-1
 140 430 l 1,32,33
 167 455 167 455 194 470 c 0,34,35
 228 488 228 488 261 496 c 0,36,37
 326 510 326 510 386 494 c 1,38,-1
 423 481 l 1,39,40
 436 473 436 473 441 473 c 1,41,-1
 452 477 l 1,42,-1
 469 485 l 2,43,44
 494 496 494 496 523 500 c 0,45,46
 617 516 617 516 688 455 c 1,47,-1
 689 454 l 1,48,49
 716 430 716 430 737 394 c 0,50,51
 768 341 768 341 776 273 c 1,52,-1
 776 272 l 1,53,-1
 776 271 l 1,54,-1
 778 211 l 1,55,56
 783 163 783 163 796 130 c 1,57,-1
 796 129 l 1,58,59
 829 46 829 46 893 31 c 1,60,-1
 894 31 l 1,61,-1
 906 29 l 1,62,63
 974 23 974 23 1019 96 c 1,64,-1
 1024 105 l 2,65,66
 1051 154 1051 154 1054 225 c 1,67,-1
 1054 270 l 1,68,-1
 1054 364 l 1,69,-1
 1054 431 l 1,70,-1
 1054 466 l 1,71,72
 1057 487 1057 487 1077 490 c 1,73,74
 1096 494 1096 494 1106 475 c 1,75,-1
 1108 469 l 1,76,-1
 1109 437 l 1,77,-1
 1109 436 l 1,78,-1
 1109 373 l 1,79,-1
 1109 314 l 1,80,-1
 1111 202 l 1,81,82
 1123 113 1123 113 1180 64 c 1,83,-1
 1181 63 l 1,84,85
 1199 48 1199 48 1220 39 c 0,86,87
 1236 32 1236 32 1254 30 c 1,88,-1
 1255 30 l 1,89,90
 1327 21 1327 21 1380 82 c 0,91,92
 1394 98 1394 98 1403 117 c 1,93,-1
 1404 118 l 1,94,95
 1455 215 1455 215 1419 331 c 0,96,97
 1418 336 1418 336 1416 340 c 0,98,99
 1401 384 1401 384 1374 423 c 1,100,-1
 1373 424 l 1,101,-1
 1353 448 l 2,102,103
 1341 462 1341 462 1339 469 c 0,104,105
 1334 491 1334 491 1355 500 c 0,106,107
 1368 505 1368 505 1379 499 c 1,108,-1
 1380 498 l 1,109,-1
 1382 497 l 1,110,111
 1393 489 1393 489 1405 472 c 1,112,113
 1428 445 1428 445 1444 412 c 1,114,-1
 1445 411 l 1,115,116
 1507 297 1507 297 1481 173 c 1,117,-1
 1481 172 l 1,118,-1
 1475 148 l 1,119,120
 1457 82 1457 82 1414 37 c 0,121,122
 1386 8 1386 8 1353 -7 c 1,123,-1
 1352 -8 l 1,124,125
 1328 -18 1328 -18 1304 -23 c 1,126,-1
 1303 -23 l 1,127,128
 1282 -28 1282 -28 1261 -26 c 1,129,-1
 1260 -26 l 1,130,131
 1166 -19 1166 -19 1108 62 c 0,132,133
 1094 81 1094 81 1084 102 c 1,134,-1
 1084 103 l 1,135,-1
 1067 68 l 1,136,137
 1042 28 1042 28 1014 7 c 0,138,139
 993 -8 993 -8 969 -17 c 1,140,141
 896 -41 896 -41 833 -3 c 0,142,143
 802 16 802 16 777 50 c 1,144,-1
 776 51 l 1,145,-1
 775 52 l 1,146,147
 734 111 734 111 724 198 c 1,148,-1
 722 254 l 1,149,150
 719 293 719 293 709 323 c 0,151,152
 680 408 680 408 613 437 c 1,153,-1
 612 437 l 1,154,-1
 599 442 l 1,155,156
 578 448 578 448 555 448 c 0,157,158
 527 448 527 448 490 434 c 1,159,160
 577 347 577 347 586 218 c 1,161,-1
 586 217 l 1,162,-1
 586 216 l 1,163,164
 591 157 591 157 576 102 c 1,165,-1
 576 101 l 1,166,-1
 575 99 l 1,167,168
 550 4 550 4 482 -19 c 1,169,-1
 472 -22 l 1,170,-1
 444 -26 l 1,171,172
 422 -26 422 -26 407 -21 c 1,173,174
 335 -2 335 -2 307 97 c 1,175,-1
 306 101 l 1,176,177
 273 224 273 224 328 342 c 0,178,179
 353 395 353 395 392 434 c 1,0,1
441 402 m 1,180,-1
 434 398 l 1,181,-1
 420 384 l 1,182,183
 395 356 395 356 375 315 c 1,184,185
 331 213 331 213 361 109 c 1,186,-1
 361 108 l 1,187,-1
 361 107 l 1,188,189
 381 39 381 39 428 30 c 1,190,-1
 446 29 l 1,191,192
 494 31 494 31 519 100 c 1,193,194
 527 126 527 126 531 168 c 0,195,196
 538 258 538 258 498 331 c 1,197,-1
 498 332 l 1,198,-1
 498 333 l 1,199,200
 485 359 485 359 464 383 c 1,201,-1
 462 385 l 2,202,203
 446 401 446 401 441 402 c 1,180,-1
EndSplineSet
EndChar

StartChar: uni0D1E
Encoding: 3358 3358 71
Width: 1210
GlyphClass: 2
Flags: W
LayerCount: 2
Fore
SplineSet
114 249 m 1,0,1
 119 259 119 259 135 275 c 0,2,3
 183 321 183 321 247 312 c 1,4,-1
 248 312 l 1,5,6
 269 309 269 309 286 300 c 2,7,-1
 288 299 l 1,8,-1
 290 298 l 1,9,10
 348 265 348 265 367 195 c 1,11,-1
 367 194 l 1,12,13
 391 105 391 105 339 32 c 1,14,-1
 338 31 l 1,15,16
 318 4 318 4 287 -12 c 0,17,18
 225 -42 225 -42 162 -9 c 1,19,-1
 142 3 l 1,20,21
 95 41 95 41 73 119 c 0,22,23
 63 153 63 153 60 193 c 1,24,-1
 60 194 l 1,25,-1
 60 195 l 1,26,-1
 60 196 l 1,27,-1
 58 251 l 1,28,29
 63 336 63 336 110 403 c 0,30,31
 162 477 162 477 249 498 c 0,32,33
 301 510 301 510 350 496 c 0,34,35
 377 489 377 489 404 472 c 1,36,-1
 405 471 l 1,37,38
 443 447 443 447 471 403 c 1,39,-1
 491 365 l 1,40,41
 500 390 500 390 526 420 c 1,42,-1
 527 421 l 1,43,44
 592 497 592 497 691 503 c 1,45,-1
 727 502 l 1,46,47
 757 498 757 498 787 487 c 1,48,-1
 788 487 l 1,49,-1
 808 478 l 1,50,-1
 820 473 l 1,51,-1
 833 478 l 1,52,-1
 857 489 l 1,53,54
 892 501 892 501 926 503 c 1,55,-1
 927 503 l 1,56,-1
 928 503 l 1,57,-1
 929 503 l 1,58,59
 1037 507 1037 507 1118 434 c 1,60,-1
 1146 404 l 1,61,62
 1180 361 1180 361 1196 304 c 0,63,64
 1210 252 1210 252 1200 188 c 1,65,66
 1189 106 1189 106 1146 39 c 1,67,68
 1124 7 1124 7 1106 -13 c 0,69,70
 1089 -31 1089 -31 1072 -24 c 1,71,-1
 1071 -24 l 1,72,73
 1052 -18 1052 -18 1054 4 c 1,74,-1
 1057 13 l 2,75,76
 1060 20 1060 20 1069 29 c 2,77,-1
 1070 30 l 1,78,-1
 1091 56 l 1,79,80
 1116 91 1116 91 1132 136 c 0,81,82
 1168 236 1168 236 1132 320 c 0,83,84
 1100 394 1100 394 1024 428 c 1,85,-1
 1023 429 l 1,86,-1
 1022 430 l 1,87,88
 977 450 977 450 930 448 c 0,89,90
 900 447 900 447 870 434 c 1,91,-1
 869 434 l 1,92,93
 956 347 956 347 965 218 c 1,94,-1
 965 217 l 1,95,-1
 965 216 l 1,96,97
 970 157 970 157 955 102 c 1,98,-1
 955 101 l 1,99,-1
 954 99 l 1,100,101
 929 4 929 4 861 -19 c 1,102,-1
 851 -22 l 1,103,-1
 823 -26 l 1,104,105
 801 -26 801 -26 786 -21 c 1,106,107
 714 -2 714 -2 686 97 c 1,108,-1
 685 101 l 1,109,110
 652 224 652 224 707 342 c 0,111,112
 732 395 732 395 771 434 c 1,113,114
 741 447 741 447 711 448 c 0,115,116
 635 453 635 453 578 395 c 2,117,-1
 577 394 l 2,118,119
 544 360 544 360 526 307 c 1,120,121
 516 273 516 273 516 218 c 2,122,-1
 516 217 l 1,123,-1
 516 216 l 1,124,-1
 516 215 l 1,125,-1
 516 214 l 1,126,-1
 516 213 l 1,127,-1
 516 212 l 1,128,-1
 516 137 l 1,129,-1
 516 26 l 2,130,131
 516 -8 516 -8 496 -13 c 0,132,133
 475 -19 475 -19 465 0 c 1,134,-1
 462 7 l 1,135,-1
 461 41 l 1,136,-1
 461 42 l 1,137,-1
 461 111 l 1,138,-1
 461 206 l 2,139,140
 461 259 461 259 457 285 c 0,141,142
 446 355 446 355 401 403 c 0,143,144
 387 418 387 418 365 430 c 1,145,-1
 364 431 l 1,146,-1
 363 432 l 1,147,148
 298 467 298 467 223 429 c 0,149,150
 194 415 194 415 173 393 c 0,151,152
 131 348 131 348 119 290 c 1,153,-1
 113 249 l 1,154,-1
 114 249 l 1,0,1
820 402 m 1,155,-1
 813 398 l 1,156,-1
 799 384 l 1,157,-1
 772 348 l 1,158,-1
 755 316 l 1,159,160
 710 217 710 217 739 110 c 1,161,-1
 740 107 l 1,162,163
 760 40 760 40 806 30 c 1,164,-1
 807 30 l 1,165,-1
 825 29 l 1,166,167
 873 31 873 31 898 100 c 1,168,169
 906 126 906 126 910 168 c 0,170,171
 917 258 917 258 877 331 c 1,172,-1
 877 332 l 1,173,-1
 877 333 l 1,174,175
 864 359 864 359 843 383 c 1,176,-1
 841 385 l 2,177,178
 825 401 825 401 820 402 c 1,155,-1
219 258 m 1,179,180
 175 254 175 254 151 205 c 1,181,182
 123 151 123 151 146 94 c 1,183,-1
 146 93 l 1,184,-1
 154 76 l 1,185,186
 177 41 177 41 208 31 c 1,187,-1
 209 31 l 1,188,-1
 210 31 l 1,189,-1
 236 29 l 1,190,191
 281 33 281 33 306 83 c 1,192,-1
 308 88 l 1,193,194
 334 150 334 150 304 207 c 1,195,-1
 301 212 l 2,196,197
 281 247 281 247 246 256 c 1,198,-1
 219 258 l 1,179,180
EndSplineSet
EndChar

StartChar: uni0D1F
Encoding: 3359 3359 72
Width: 548
GlyphClass: 2
Flags: W
LayerCount: 2
Fore
SplineSet
275 503 m 1,0,-1
 327 502 l 1,1,2
 410 498 410 498 488 468 c 1,3,-1
 490 467 l 1,4,-1
 515 457 l 1,5,-1
 532 447 l 1,6,7
 548 430 548 430 534 412 c 1,8,-1
 533 411 l 1,9,-1
 523 403 l 1,10,11
 512 398 512 398 489 408 c 1,12,-1
 487 409 l 1,13,-1
 429 430 l 1,14,15
 366 447 366 447 303 448 c 1,16,-1
 273 447 l 1,17,-1
 272 447 l 1,18,19
 235 446 235 446 197 436 c 1,20,-1
 196 436 l 1,21,-1
 195 436 l 1,22,23
 122 415 122 415 114 368 c 1,24,25
 104 317 104 317 158 283 c 1,26,-1
 159 282 l 1,27,28
 172 273 172 273 188 268 c 0,29,30
 225 255 225 255 267 260 c 1,31,-1
 268 260 l 1,32,-1
 328 272 l 1,33,34
 394 279 394 279 448 254 c 0,35,36
 488 235 488 235 512 204 c 1,37,38
 552 149 552 149 536 87 c 1,39,40
 529 64 529 64 515 46 c 0,41,42
 481 3 481 3 404 -16 c 1,43,-1
 403 -16 l 1,44,-1
 402 -16 l 1,45,46
 337 -30 337 -30 271 -25 c 1,47,48
 202 -22 202 -22 138 -1 c 1,49,-1
 137 -1 l 1,50,-1
 90 16 l 1,51,-1
 67 28 l 1,52,53
 51 44 51 44 62 62 c 1,54,-1
 63 63 l 1,55,-1
 70 70 l 1,56,-1
 71 71 l 1,57,-1
 72 72 l 1,58,59
 83 79 83 79 108 68 c 1,60,-1
 109 68 l 1,61,62
 149 52 149 52 169 47 c 0,63,64
 294 13 294 13 400 41 c 1,65,-1
 401 41 l 1,66,-1
 402 41 l 1,67,68
 472 60 472 60 483 105 c 1,69,-1
 485 124 l 1,70,71
 484 176 484 176 424 204 c 1,72,-1
 405 211 l 1,73,-1
 370 218 l 1,74,75
 350 219 350 219 331 216 c 1,76,-1
 329 216 l 1,77,-1
 269 205 l 1,78,79
 191 198 191 198 133 232 c 0,80,81
 97 253 97 253 76 289 c 1,82,-1
 75 290 l 1,83,84
 44 345 44 345 66 401 c 1,85,-1
 66 402 l 1,86,-1
 75 420 l 1,87,88
 86 437 86 437 102 450 c 1,89,-1
 103 451 l 1,90,91
 149 489 149 489 238 500 c 1,92,-1
 275 503 l 1,0,-1
EndSplineSet
EndChar

StartChar: uni0D20
Encoding: 3360 3360 73
Width: 597
GlyphClass: 2
Flags: W
LayerCount: 2
Fore
SplineSet
307 503 m 1,0,1
 345 507 345 507 399 492 c 1,2,3
 442 479 442 479 483 449 c 1,4,-1
 484 448 l 1,5,6
 513 427 513 427 537 394 c 0,7,8
 566 352 566 352 578 308 c 1,9,-1
 578 307 l 1,10,11
 607 205 607 205 555 110 c 1,12,-1
 554 108 l 1,13,-1
 553 107 l 1,14,-1
 552 106 l 1,15,-1
 528 72 l 1,16,17
 497 36 497 36 459 13 c 1,18,-1
 458 12 l 1,19,-1
 457 11 l 1,20,21
 408 -19 408 -19 349 -25 c 0,22,23
 296 -30 296 -30 247 -15 c 0,24,25
 195 1 195 1 158 31 c 0,26,27
 130 53 130 53 108 83 c 0,28,29
 43 175 43 175 62 285 c 1,30,-1
 62 286 l 1,31,32
 71 334 71 334 96 376 c 1,33,-1
 97 377 l 1,34,35
 128 427 128 427 180 461 c 0,36,37
 230 494 230 494 306 503 c 1,38,-1
 307 503 l 1,0,1
309 448 m 0,39,40
 258 443 258 443 217 420 c 1,41,-1
 216 419 l 1,42,43
 186 402 186 402 160 371 c 0,44,45
 101 299 101 299 116 205 c 0,46,47
 123 165 123 165 143 130 c 1,48,-1
 144 128 l 1,49,-1
 145 127 l 1,50,51
 163 98 163 98 191 75 c 1,52,-1
 192 74 l 1,53,54
 222 50 222 50 260 38 c 0,55,56
 300 26 300 26 335 29 c 0,57,58
 387 34 387 34 428 57 c 1,59,-1
 429 57 l 1,60,-1
 430 58 l 1,61,62
 461 77 461 77 486 107 c 0,63,64
 544 180 544 180 529 274 c 1,65,66
 522 311 522 311 503 346 c 1,67,-1
 502 347 l 1,68,-1
 501 349 l 1,69,-1
 500 350 l 1,70,71
 482 379 482 379 454 402 c 1,72,-1
 453 403 l 1,73,74
 423 427 423 427 385 439 c 0,75,76
 344 451 344 451 309 448 c 0,39,40
EndSplineSet
EndChar

StartChar: uni0D21
Encoding: 3361 3361 74
Width: 1163
GlyphClass: 2
Flags: W
LayerCount: 2
Fore
SplineSet
752 103 m 1,0,-1
 733 65 l 1,1,2
 704 20 704 20 668 -2 c 0,3,4
 600 -44 600 -44 524 -14 c 0,5,6
 503 -6 503 -6 485 7 c 0,7,8
 448 34 448 34 424 84 c 1,9,-1
 423 85 l 1,10,11
 400 135 400 135 392 195 c 1,12,-1
 392 196 l 1,13,-1
 388 278 l 1,14,15
 382 333 382 333 356 380 c 1,16,17
 333 414 333 414 308 430 c 1,18,-1
 307 431 l 1,19,-1
 306 432 l 1,20,-1
 305 433 l 1,21,22
 256 463 256 463 204 437 c 1,23,-1
 197 433 l 2,24,25
 179 422 179 422 163 403 c 1,26,27
 135 366 135 366 122 315 c 0,28,29
 98 217 98 217 136 121 c 1,30,-1
 137 119 l 1,31,-1
 138 116 l 1,32,33
 155 72 155 72 190 32 c 1,34,35
 208 8 208 8 207 -2 c 1,36,-1
 204 -12 l 1,37,38
 192 -32 192 -32 170 -24 c 1,39,-1
 157 -15 l 1,40,-1
 156 -14 l 1,41,42
 116 29 116 29 91 85 c 0,43,44
 35 211 35 211 72 340 c 0,45,46
 78 363 78 363 88 385 c 0,47,48
 125 464 125 464 192 492 c 0,49,50
 210 499 210 499 240 503 c 1,51,-1
 277 501 l 1,52,53
 308 496 308 496 335 480 c 1,54,-1
 336 479 l 1,55,-1
 338 478 l 1,56,57
 426 422 426 422 443 283 c 1,58,-1
 443 282 l 1,59,-1
 445 225 l 2,60,61
 446 191 446 191 456 157 c 1,62,-1
 457 152 l 1,63,64
 480 70 480 70 536 40 c 1,65,-1
 537 40 l 1,66,67
 558 29 558 29 580 29 c 2,68,-1
 581 29 l 1,69,-1
 609 32 l 1,70,71
 668 47 668 47 699 120 c 0,72,73
 719 167 719 167 722 225 c 1,74,-1
 722 271 l 1,75,-1
 722 364 l 1,76,-1
 722 432 l 1,77,-1
 723 468 l 1,78,79
 726 486 726 486 743 491 c 1,80,-1
 745 491 l 1,81,-1
 752 491 l 1,82,83
 771 488 771 488 776 469 c 2,84,-1
 777 465 l 1,85,-1
 777 424 l 1,86,-1
 777 347 l 1,87,-1
 777 266 l 1,88,-1
 779 201 l 1,89,90
 789 136 789 136 821 93 c 1,91,-1
 822 92 l 1,92,-1
 823 91 l 1,93,94
 833 77 833 77 850 62 c 1,95,96
 872 45 872 45 892 37 c 0,97,98
 915 29 915 29 943 29 c 2,99,-1
 944 29 l 1,100,101
 1014 30 1014 30 1061 98 c 1,102,-1
 1073 119 l 1,103,104
 1124 220 1124 220 1085 337 c 1,105,-1
 1085 338 l 1,106,-1
 1085 339 l 1,107,-1
 1077 360 l 1,108,109
 1060 399 1060 399 1037 429 c 2,110,-1
 1020 450 l 1,111,112
 1010 460 1010 460 1008 467 c 0,113,114
 1001 488 1001 488 1021 499 c 0,115,116
 1034 506 1034 506 1047 499 c 1,117,-1
 1048 498 l 1,118,-1
 1074 472 l 1,119,120
 1103 435 1103 435 1120 397 c 0,121,122
 1177 276 1177 276 1145 155 c 1,123,-1
 1145 154 l 1,124,125
 1133 105 1133 105 1105 65 c 1,126,127
 1089 44 1089 44 1072 27 c 2,128,-1
 1071 26 l 1,129,130
 1050 7 1050 7 1021 -8 c 1,131,132
 997 -18 997 -18 973 -23 c 1,133,-1
 972 -23 l 1,134,135
 944 -27 944 -27 928 -26 c 0,136,137
 834 -19 834 -19 776 62 c 0,138,139
 762 81 762 81 753 101 c 1,140,-1
 752 102 l 1,141,-1
 752 103 l 1,0,-1
EndSplineSet
EndChar

StartChar: uni0D22
Encoding: 3362 3362 75
Width: 1163
GlyphClass: 2
Flags: W
LayerCount: 2
Fore
SplineSet
752 103 m 1,0,-1
 735 68 l 1,1,2
 713 31 713 31 681 7 c 1,3,-1
 680 6 l 1,4,5
 657 -10 657 -10 640 -16 c 1,6,-1
 639 -16 l 1,7,8
 567 -42 567 -42 501 -4 c 1,9,-1
 498 -2 l 2,10,11
 493 1 493 1 489 4 c 2,12,-1
 488 5 l 1,13,-1
 484 8 l 2,14,15
 447 37 447 37 424 84 c 0,16,17
 400 133 400 133 392 195 c 1,18,-1
 392 196 l 1,19,-1
 389 268 l 1,20,21
 384 321 384 321 362 367 c 1,22,-1
 362 368 l 1,23,24
 327 437 327 437 266 447 c 1,25,-1
 261 448 l 1,26,-1
 236 447 l 1,27,28
 175 438 175 438 140 367 c 1,29,-1
 137 359 l 1,30,31
 91 253 91 253 130 137 c 1,32,-1
 143 104 l 2,33,34
 155 76 155 76 176 49 c 1,35,-1
 177 48 l 1,36,-1
 178 46 l 1,37,-1
 204 15 l 1,38,-1
 205 13 l 2,39,40
 214 -6 214 -6 197 -21 c 1,41,-1
 195 -22 l 1,42,43
 181 -31 181 -31 165 -22 c 1,44,-1
 148 -5 l 1,45,46
 107 44 107 44 85 99 c 0,47,48
 39 213 39 213 70 333 c 0,49,50
 89 406 89 406 132 451 c 1,51,52
 167 486 167 486 206 497 c 1,53,-1
 207 497 l 1,54,-1
 208 497 l 1,55,56
 244 507 244 507 278 501 c 1,57,-1
 279 501 l 1,58,59
 310 495 310 495 336 480 c 1,60,-1
 338 479 l 1,61,-1
 339 478 l 1,62,-1
 340 477 l 1,63,64
 423 421 423 421 441 296 c 1,65,-1
 441 295 l 1,66,-1
 443 281 l 1,67,-1
 446 209 l 1,68,69
 451 158 451 158 467 123 c 1,70,71
 498 47 498 47 559 32 c 1,72,-1
 560 32 l 1,73,-1
 569 30 l 1,74,75
 635 21 635 21 680 85 c 1,76,-1
 695 110 l 1,77,78
 716 157 716 157 721 208 c 1,79,-1
 721 209 l 1,80,-1
 722 275 l 1,81,-1
 722 366 l 1,82,-1
 722 431 l 1,83,-1
 722 465 l 1,84,85
 724 485 724 485 743 490 c 0,86,87
 763 495 763 495 773 477 c 1,88,-1
 774 476 l 1,89,-1
 776 469 l 1,90,-1
 777 435 l 1,91,-1
 777 434 l 1,92,-1
 777 366 l 1,93,-1
 777 273 l 1,94,-1
 777 226 l 1,95,96
 780 176 780 176 799 132 c 1,97,-1
 799 131 l 1,98,99
 837 50 837 50 908 33 c 1,100,-1
 929 29 l 1,101,-1
 962 31 l 1,102,103
 980 34 980 34 998 43 c 1,104,-1
 999 43 l 1,105,106
 1023 55 1023 55 1048 82 c 1,107,-1
 1049 83 l 1,108,-1
 1050 84 l 1,109,110
 1022 103 1022 103 997 132 c 1,111,-1
 996 133 l 1,112,-1
 994 135 l 1,113,114
 927 212 927 212 914 314 c 1,115,-1
 914 315 l 1,116,117
 909 342 909 342 911 371 c 0,118,119
 917 435 917 435 941 467 c 0,120,121
 950 479 950 479 962 488 c 0,122,123
 1005 519 1005 519 1061 493 c 1,124,-1
 1062 492 l 1,125,-1
 1080 481 l 1,126,127
 1135 441 1135 441 1149 339 c 0,128,129
 1175 161 1175 161 1100 59 c 0,130,131
 1087 41 1087 41 1068 23 c 1,132,133
 1044 2 1044 2 1016 -10 c 1,134,-1
 1015 -10 l 1,135,136
 996 -19 996 -19 967 -24 c 1,137,-1
 928 -26 l 1,138,139
 834 -19 834 -19 776 62 c 0,140,141
 762 81 762 81 753 101 c 1,142,-1
 752 102 l 1,143,-1
 752 103 l 1,0,-1
1079 131 m 1,144,145
 1093 166 1093 166 1099 200 c 1,146,147
 1102 224 1102 224 1100 272 c 1,148,-1
 1100 273 l 1,149,150
 1098 337 1098 337 1083 381 c 0,151,152
 1063 438 1063 438 1024 447 c 1,153,-1
 1001 447 l 1,154,155
 988 442 988 442 978 423 c 0,156,157
 966 398 966 398 966 357 c 2,158,-1
 966 356 l 2,159,160
 966 254 966 254 1030 177 c 1,161,-1
 1031 176 l 1,162,163
 1055 147 1055 147 1079 131 c 1,144,145
EndSplineSet
EndChar

StartChar: uni0D23
Encoding: 3363 3363 76
Width: 1316
GlyphClass: 2
Flags: W
LayerCount: 2
Fore
SplineSet
114 249 m 1,0,1
 125 269 125 269 148 286 c 1,2,-1
 149 287 l 1,3,4
 168 300 168 300 184 305 c 1,5,-1
 186 306 l 1,6,-1
 187 306 l 1,7,8
 208 313 208 313 223 313 c 0,9,10
 243 313 243 313 259 309 c 0,11,12
 323 294 323 294 356 225 c 1,13,-1
 367 195 l 1,14,15
 390 108 390 108 341 35 c 1,16,-1
 338 31 l 2,17,18
 318 4 318 4 287 -12 c 0,19,20
 225 -42 225 -42 162 -9 c 1,21,-1
 142 3 l 1,22,23
 94 41 94 41 73 120 c 1,24,25
 60 164 60 164 59 209 c 1,26,-1
 59 210 l 1,27,-1
 58 251 l 1,28,29
 63 336 63 336 110 404 c 1,30,-1
 111 405 l 1,31,32
 166 479 166 479 253 499 c 0,33,34
 301 510 301 510 346 497 c 1,35,-1
 350 496 l 2,36,37
 377 489 377 489 404 472 c 1,38,-1
 405 471 l 1,39,40
 444 445 444 445 469 405 c 1,41,-1
 489 369 l 1,42,43
 498 395 498 395 523 426 c 1,44,-1
 524 427 l 1,45,46
 551 460 551 460 584 478 c 1,47,-1
 585 479 l 1,48,49
 661 522 661 522 743 492 c 1,50,-1
 744 492 l 1,51,-1
 762 484 l 1,52,-1
 770 480 l 1,53,54
 806 459 806 459 831 428 c 1,55,-1
 832 427 l 1,56,57
 858 396 858 396 867 370 c 1,58,-1
 867 369 l 1,59,-1
 868 369 l 1,60,61
 877 392 877 392 893 414 c 2,62,-1
 896 418 l 1,63,-1
 897 420 l 1,64,-1
 899 422 l 1,65,66
 929 460 929 460 964 479 c 0,67,68
 1043 523 1043 523 1135 488 c 1,69,-1
 1136 488 l 1,70,-1
 1138 488 l 1,71,72
 1167 476 1167 476 1192 458 c 0,73,74
 1212 444 1212 444 1234 419 c 1,75,-1
 1235 418 l 1,76,77
 1314 324 1314 324 1295 187 c 0,78,79
 1287 131 1287 131 1262 79 c 1,80,-1
 1261 76 l 1,81,-1
 1260 74 l 2,82,83
 1239 33 1239 33 1215 4 c 0,84,85
 1199 -16 1199 -16 1191 -22 c 0,86,87
 1173 -33 1173 -33 1158 -19 c 2,88,-1
 1156 -17 l 2,89,90
 1146 -6 1146 -6 1150 9 c 0,91,92
 1151 14 1151 14 1162 27 c 2,93,-1
 1182 51 l 1,94,95
 1210 90 1210 90 1225 132 c 1,96,-1
 1225 133 l 1,97,98
 1265 249 1265 249 1218 341 c 1,99,-1
 1218 342 l 1,100,-1
 1218 343 l 1,101,-1
 1191 384 l 1,102,-1
 1190 385 l 1,103,-1
 1189 386 l 1,104,105
 1174 403 1174 403 1152 419 c 1,106,-1
 1151 420 l 1,107,108
 1127 435 1127 435 1103 442 c 1,109,-1
 1101 443 l 1,110,-1
 1100 443 l 1,111,112
 1071 450 1071 450 1039 447 c 1,113,-1
 1038 447 l 1,114,115
 1010 442 1010 442 987 429 c 1,116,-1
 986 428 l 1,117,118
 968 417 968 417 951 398 c 1,119,-1
 950 397 l 1,120,-1
 949 396 l 1,121,122
 907 346 907 346 897 277 c 1,123,-1
 897 276 l 1,124,-1
 895 209 l 1,125,-1
 895 208 l 1,126,-1
 895 119 l 1,127,-1
 895 41 l 1,128,-1
 895 0 l 1,129,130
 893 -20 893 -20 875 -25 c 1,131,-1
 870 -26 l 1,132,133
 850 -27 850 -27 842 -9 c 1,134,-1
 841 -3 l 1,135,-1
 840 35 l 1,136,-1
 840 37 l 1,137,-1
 840 112 l 1,138,-1
 840 198 l 1,139,-1
 839 266 l 1,140,141
 831 341 831 341 789 393 c 0,142,143
 777 408 777 408 759 421 c 1,144,145
 738 438 738 438 711 444 c 1,146,147
 685 451 685 451 656 446 c 1,148,-1
 655 446 l 1,149,-1
 654 446 l 1,150,151
 629 442 629 442 603 426 c 1,152,-1
 602 425 l 1,153,154
 584 412 584 412 569 395 c 0,155,156
 528 346 528 346 518 276 c 1,157,-1
 516 209 l 1,158,-1
 516 208 l 1,159,-1
 516 119 l 1,160,-1
 516 21 l 2,161,162
 516 -8 516 -8 496 -13 c 0,163,164
 475 -19 475 -19 465 0 c 1,165,-1
 462 7 l 1,166,-1
 461 41 l 1,167,-1
 461 42 l 1,168,-1
 461 111 l 1,169,-1
 461 206 l 2,170,171
 461 259 461 259 457 285 c 0,172,173
 446 355 446 355 401 403 c 0,174,175
 387 418 387 418 365 430 c 1,176,-1
 364 431 l 1,177,-1
 363 432 l 1,178,179
 298 467 298 467 223 429 c 0,180,181
 194 415 194 415 173 393 c 0,182,183
 131 348 131 348 119 290 c 1,184,-1
 113 249 l 1,185,-1
 114 249 l 1,0,1
219 258 m 1,186,187
 175 254 175 254 151 205 c 1,188,189
 123 151 123 151 146 94 c 1,190,-1
 146 93 l 1,191,-1
 154 76 l 1,192,193
 177 41 177 41 208 31 c 1,194,-1
 209 31 l 1,195,-1
 210 31 l 1,196,-1
 236 29 l 1,197,198
 281 33 281 33 306 83 c 1,199,-1
 308 88 l 1,200,201
 334 150 334 150 304 207 c 1,202,-1
 301 212 l 2,203,204
 281 247 281 247 246 256 c 1,205,-1
 219 258 l 1,186,187
EndSplineSet
EndChar

StartChar: uni0D24
Encoding: 3364 3364 77
Width: 834
GlyphClass: 2
Flags: W
LayerCount: 2
Fore
SplineSet
392 434 m 1,0,1
 366 445 366 445 336 448 c 1,2,-1
 335 448 l 1,3,-1
 334 448 l 1,4,-1
 333 448 l 1,5,6
 246 454 246 454 178 390 c 1,7,-1
 177 389 l 1,8,-1
 173 385 l 2,9,10
 147 358 147 358 132 325 c 0,11,12
 107 271 107 271 115 199 c 1,13,14
 124 128 124 128 163 67 c 1,15,-1
 188 34 l 1,16,-1
 205 12 l 1,17,18
 214 -8 214 -8 196 -21 c 0,19,20
 185 -28 185 -28 175 -26 c 1,21,-1
 173 -25 l 1,22,-1
 172 -25 l 1,23,-1
 170 -24 l 2,24,25
 160 -20 160 -20 144 0 c 0,26,27
 116 35 116 35 98 71 c 1,28,-1
 97 72 l 1,29,30
 38 191 38 191 67 306 c 0,31,32
 76 339 76 339 92 368 c 1,33,-1
 93 370 l 1,34,35
 112 401 112 401 139 429 c 2,36,-1
 140 430 l 1,37,38
 214 501 214 501 319 503 c 1,39,-1
 363 500 l 1,40,41
 385 496 385 496 415 484 c 1,42,-1
 430 477 l 1,43,-1
 441 473 l 1,44,45
 446 473 446 473 459 481 c 1,46,-1
 494 494 l 1,47,48
 551 511 551 511 612 498 c 0,49,50
 716 476 716 476 776 390 c 1,51,-1
 777 389 l 1,52,53
 805 349 805 349 816 302 c 1,54,55
 832 240 832 240 815 162 c 1,56,-1
 815 161 l 1,57,-1
 815 160 l 1,58,-1
 815 159 l 1,59,60
 799 79 799 79 746 11 c 1,61,-1
 745 9 l 1,62,63
 722 -22 722 -22 707 -26 c 1,64,-1
 706 -26 l 1,65,-1
 693 -25 l 1,66,67
 674 -19 674 -19 675 2 c 0,68,69
 676 8 676 8 678 13 c 1,70,-1
 690 29 l 1,71,-1
 691 30 l 1,72,-1
 710 54 l 1,73,74
 737 92 737 92 750 131 c 2,75,-1
 751 134 l 1,76,77
 785 232 785 232 756 312 c 1,78,79
 726 391 726 391 648 428 c 0,80,81
 600 451 600 451 552 448 c 1,82,-1
 551 448 l 1,83,-1
 550 448 l 1,84,85
 520 447 520 447 490 434 c 1,86,87
 577 347 577 347 586 218 c 1,88,-1
 586 217 l 1,89,-1
 586 216 l 1,90,91
 591 157 591 157 576 102 c 1,92,-1
 576 101 l 1,93,-1
 575 99 l 1,94,95
 550 4 550 4 482 -19 c 1,96,-1
 472 -22 l 1,97,-1
 444 -26 l 1,98,99
 422 -26 422 -26 407 -21 c 1,100,101
 335 -2 335 -2 307 97 c 1,102,-1
 306 101 l 1,103,104
 273 224 273 224 328 342 c 0,105,106
 353 395 353 395 392 434 c 1,0,1
441 402 m 1,107,-1
 434 398 l 1,108,-1
 420 384 l 1,109,110
 395 356 395 356 375 315 c 1,111,112
 331 213 331 213 361 109 c 1,113,-1
 361 108 l 1,114,-1
 361 107 l 1,115,116
 381 39 381 39 428 30 c 1,117,-1
 446 29 l 1,118,119
 494 31 494 31 519 100 c 1,120,121
 527 126 527 126 531 168 c 0,122,123
 538 258 538 258 498 331 c 1,124,-1
 498 332 l 1,125,-1
 498 333 l 1,126,127
 485 359 485 359 464 383 c 1,128,-1
 462 385 l 2,129,130
 446 401 446 401 441 402 c 1,107,-1
EndSplineSet
EndChar

StartChar: uni0D25
Encoding: 3365 3365 78
Width: 881
GlyphClass: 2
Flags: W
LayerCount: 2
Fore
SplineSet
437 40 m 1,0,-1
 437 188 l 1,1,-1
 437 252 l 1,2,3
 440 308 440 308 460 360 c 1,4,-1
 461 362 l 1,5,-1
 462 364 l 1,6,-1
 463 366 l 2,7,8
 491 424 491 424 533 459 c 1,9,-1
 534 460 l 1,10,11
 603 515 603 515 690 499 c 0,12,13
 716 495 716 495 739 483 c 0,14,15
 769 468 769 468 797 440 c 0,16,17
 859 375 859 375 871 270 c 1,18,-1
 871 269 l 1,19,-1
 871 268 l 1,20,-1
 872 206 l 1,21,-1
 872 116 l 1,22,-1
 872 37 l 2,23,24
 872 7 872 7 868 0 c 0,25,26
 860 -15 860 -15 830 -15 c 2,27,-1
 829 -15 l 1,28,-1
 828 -15 l 1,29,-1
 825 -15 l 1,30,-1
 713 -15 l 1,31,-1
 235 -15 l 1,32,-1
 108 -15 l 2,33,34
 76 -15 76 -15 67 -8 c 1,35,-1
 61 1 l 1,36,37
 58 8 58 8 58 35 c 2,38,-1
 58 37 l 1,39,-1
 58 38 l 1,40,-1
 58 114 l 1,41,-1
 58 386 l 1,42,-1
 58 441 l 1,43,-1
 59 470 l 1,44,45
 65 490 65 490 84 491 c 1,46,-1
 91 490 l 2,47,48
 109 487 109 487 112 468 c 1,49,-1
 113 438 l 1,50,-1
 113 383 l 1,51,-1
 113 40 l 1,52,-1
 437 40 l 1,0,-1
817 40 m 1,53,-1
 817 190 l 1,54,-1
 817 251 l 1,55,56
 816 283 816 283 805 319 c 2,57,-1
 804 322 l 2,58,59
 777 402 777 402 715 433 c 1,60,-1
 714 434 l 1,61,-1
 688 444 l 1,62,63
 671 448 671 448 649 448 c 2,64,-1
 648 448 l 1,65,-1
 647 448 l 1,66,67
 625 446 625 446 610 440 c 1,68,-1
 609 440 l 1,69,70
 588 433 588 433 569 418 c 1,71,-1
 568 417 l 1,72,73
 544 397 544 397 527 370 c 0,74,75
 497 321 497 321 492 252 c 1,76,-1
 492 189 l 1,77,-1
 492 40 l 1,78,-1
 817 40 l 1,53,-1
EndSplineSet
EndChar

StartChar: uni0D26
Encoding: 3366 3366 79
Width: 548
GlyphClass: 2
Flags: W
LayerCount: 2
Fore
SplineSet
441 244 m 1,0,-1
 475 228 l 1,1,2
 499 214 499 214 513 196 c 1,3,4
 553 149 553 149 536 87 c 1,5,-1
 536 86 l 1,6,-1
 536 85 l 1,7,-1
 526 60 l 1,8,9
 505 20 505 20 463 -2 c 1,10,-1
 462 -3 l 1,11,12
 400 -36 400 -36 300 -21 c 0,13,14
 267 -16 267 -16 236 -6 c 1,15,-1
 235 -6 l 1,16,17
 215 -2 215 -2 207 7 c 0,18,19
 192 25 192 25 207 42 c 1,20,-1
 210 45 l 2,21,22
 218 52 218 52 228 52 c 1,23,-1
 250 47 l 1,24,-1
 286 37 l 1,25,-1
 344 30 l 1,26,-1
 345 30 l 1,27,28
 393 27 393 27 425 40 c 1,29,30
 474 62 474 62 484 104 c 1,31,-1
 484 105 l 1,32,-1
 485 113 l 1,33,34
 489 160 489 160 438 185 c 0,35,36
 397 205 397 205 304 211 c 1,37,-1
 300 211 l 1,38,-1
 299 211 l 1,39,-1
 262 211 l 2,40,41
 234 211 234 211 226 229 c 1,42,-1
 226 230 l 1,43,44
 219 248 219 248 235 260 c 1,45,-1
 236 261 l 1,46,-1
 237 262 l 1,47,-1
 238 262 l 1,48,-1
 250 266 l 1,49,-1
 251 266 l 1,50,-1
 292 266 l 1,51,52
 382 270 382 270 427 299 c 1,53,54
 443 311 443 311 449 319 c 0,55,56
 456 329 456 329 459 341 c 1,57,-1
 461 360 l 1,58,59
 460 413 460 413 381 436 c 1,60,-1
 380 437 l 1,61,-1
 375 438 l 1,62,-1
 373 439 l 1,63,-1
 371 440 l 1,64,-1
 370 440 l 1,65,66
 330 449 330 449 291 448 c 1,67,-1
 290 448 l 1,68,69
 262 447 262 447 235 435 c 1,70,-1
 232 434 l 2,71,72
 211 426 211 426 189 408 c 1,73,-1
 188 407 l 1,74,75
 171 392 171 392 160 377 c 1,76,-1
 159 376 l 1,77,-1
 158 375 l 1,78,79
 90 286 90 286 125 121 c 0,80,81
 133 82 133 82 143 50 c 1,82,-1
 144 48 l 1,83,-1
 154 23 l 1,84,-1
 160 5 l 1,85,86
 162 -17 162 -17 141 -25 c 1,87,-1
 130 -26 l 1,88,89
 112 -24 112 -24 100 8 c 1,90,-1
 98 14 l 1,91,92
 73 82 73 82 65 142 c 1,93,-1
 65 144 l 1,94,95
 56 210 56 210 58 252 c 0,96,97
 66 365 66 365 141 439 c 0,98,99
 160 458 160 458 192 476 c 1,100,-1
 193 477 l 1,101,102
 228 494 228 494 262 500 c 0,103,104
 288 504 288 504 323 502 c 1,105,-1
 324 502 l 1,106,107
 424 496 424 496 476 448 c 0,108,109
 494 432 494 432 506 406 c 1,110,-1
 507 405 l 1,111,112
 529 352 529 352 503 302 c 0,113,114
 483 263 483 263 441 244 c 1,0,-1
EndSplineSet
EndChar

StartChar: uni0D27
Encoding: 3367 3367 80
Width: 881
GlyphClass: 2
Flags: W
LayerCount: 2
Fore
SplineSet
464 108 m 1,0,1
 457 87 457 87 435 57 c 1,2,-1
 434 56 l 1,3,4
 407 21 407 21 368 -2 c 1,5,-1
 367 -3 l 1,6,7
 288 -46 288 -46 205 -12 c 1,8,-1
 204 -12 l 1,9,10
 174 -1 174 -1 150 20 c 0,11,12
 114 50 114 50 90 98 c 0,13,14
 32 215 32 215 76 352 c 1,15,-1
 93 395 l 1,16,17
 112 437 112 437 139 470 c 1,18,19
 154 490 154 490 163 497 c 1,20,-1
 164 497 l 1,21,22
 178 509 178 509 193 500 c 1,23,-1
 199 495 l 2,24,25
 211 484 211 484 206 469 c 1,26,-1
 206 468 l 1,27,28
 204 463 204 463 194 450 c 2,29,-1
 177 429 l 2,30,31
 154 399 154 399 137 359 c 1,32,-1
 137 358 l 1,33,-1
 136 357 l 1,34,35
 91 246 91 246 130 144 c 1,36,-1
 140 122 l 1,37,38
 174 53 174 53 238 34 c 1,39,-1
 239 34 l 1,40,41
 261 28 261 28 283 29 c 1,42,-1
 284 29 l 1,43,44
 307 30 307 30 330 41 c 2,45,-1
 332 42 l 1,46,-1
 333 42 l 1,47,48
 362 55 362 55 384 82 c 0,49,50
 425 132 425 132 435 201 c 1,51,-1
 437 266 l 1,52,-1
 437 349 l 1,53,-1
 437 454 l 2,54,55
 437 485 437 485 459 490 c 0,56,57
 479 494 479 494 489 475 c 1,58,-1
 491 470 l 1,59,-1
 492 441 l 1,60,-1
 492 439 l 1,61,-1
 492 381 l 1,62,-1
 492 316 l 1,63,-1
 494 202 l 1,64,65
 504 123 504 123 553 73 c 2,66,-1
 554 72 l 2,67,68
 568 58 568 58 590 45 c 1,69,-1
 591 44 l 1,70,71
 646 15 646 15 705 38 c 1,72,-1
 717 44 l 1,73,74
 761 68 761 68 786 114 c 1,75,-1
 787 115 l 1,76,77
 841 215 841 215 801 336 c 1,78,-1
 799 343 l 1,79,80
 782 388 782 388 754 427 c 1,81,-1
 737 448 l 1,82,83
 724 461 724 461 722 472 c 0,84,85
 719 492 719 492 738 500 c 1,86,-1
 739 501 l 1,87,-1
 749 503 l 1,88,89
 761 503 761 503 771 493 c 0,90,91
 806 456 806 456 831 406 c 1,92,-1
 832 405 l 1,93,94
 892 286 892 286 863 163 c 1,95,-1
 863 162 l 1,96,97
 853 120 853 120 833 84 c 0,98,99
 800 25 800 25 744 -4 c 0,100,101
 671 -43 671 -43 592 -15 c 1,102,103
 572 -9 572 -9 555 2 c 0,104,105
 512 28 512 28 485 70 c 1,106,-1
 464 108 l 1,0,1
EndSplineSet
EndChar

StartChar: uni0D28
Encoding: 3368 3368 81
Width: 881
GlyphClass: 2
Flags: W
LayerCount: 2
Fore
SplineSet
465 369 m 1,0,1
 506 457 506 457 586 490 c 1,2,-1
 587 491 l 1,3,-1
 592 493 l 1,4,5
 619 502 619 502 641 503 c 1,6,-1
 642 503 l 1,7,-1
 643 503 l 1,8,-1
 644 503 l 1,9,10
 667 505 667 505 688 500 c 0,11,12
 712 495 712 495 734 485 c 1,13,-1
 735 485 l 1,14,-1
 737 484 l 2,15,16
 767 470 767 470 789 448 c 0,17,18
 809 428 809 428 823 407 c 0,19,20
 895 298 895 298 862 157 c 1,21,-1
 862 156 l 1,22,23
 853 121 853 121 839 87 c 1,24,-1
 837 83 l 1,25,-1
 837 82 l 1,26,27
 820 44 820 44 791 7 c 0,28,29
 772 -17 772 -17 764 -22 c 0,30,31
 746 -33 746 -33 731 -19 c 2,32,-1
 729 -17 l 2,33,34
 719 -6 719 -6 723 9 c 0,35,36
 726 17 726 17 735 26 c 2,37,-1
 736 27 l 1,38,-1
 737 28 l 1,39,-1
 752 47 l 2,40,41
 778 81 778 81 792 116 c 0,42,43
 842 237 842 237 796 341 c 1,44,-1
 796 342 l 1,45,-1
 790 354 l 2,46,47
 756 421 756 421 693 442 c 1,48,-1
 692 442 l 1,49,50
 670 449 670 449 647 448 c 0,51,52
 618 446 618 446 591 432 c 1,53,-1
 590 431 l 1,54,55
 568 419 568 419 550 400 c 0,56,57
 505 350 505 350 494 275 c 1,58,-1
 492 210 l 1,59,-1
 492 127 l 1,60,-1
 492 22 l 2,61,62
 492 -8 492 -8 471 -14 c 1,63,64
 451 -18 451 -18 441 0 c 2,65,-1
 438 6 l 1,66,-1
 437 36 l 1,67,-1
 437 94 l 1,68,-1
 437 160 l 1,69,-1
 436 267 l 1,70,71
 426 347 426 347 380 400 c 1,72,73
 362 419 362 419 341 430 c 1,74,-1
 340 431 l 1,75,-1
 339 432 l 1,76,77
 282 462 282 462 222 437 c 1,78,-1
 211 432 l 1,79,80
 169 409 169 409 143 362 c 0,81,82
 91 266 91 266 126 148 c 1,83,-1
 131 132 l 1,84,85
 148 87 148 87 175 51 c 1,86,-1
 176 49 l 1,87,-1
 193 28 l 1,88,89
 203 18 203 18 206 9 c 2,90,-1
 207 5 l 1,91,-1
 207 4 l 1,92,-1
 207 3 l 1,93,94
 209 -16 209 -16 191 -24 c 0,95,96
 183 -27 183 -27 176 -25 c 1,97,-1
 174 -25 l 1,98,99
 167 -24 167 -24 161 -19 c 2,100,-1
 158 -16 l 1,101,-1
 157 -15 l 1,102,103
 70 76 70 76 59 207 c 0,104,105
 51 308 51 308 97 391 c 1,106,-1
 97 392 l 1,107,108
 124 442 124 442 168 471 c 0,109,110
 243 520 243 520 330 495 c 0,111,112
 356 487 356 487 378 473 c 1,113,-1
 380 472 l 1,114,115
 418 448 418 448 446 404 c 1,116,-1
 465 369 l 1,0,1
EndSplineSet
EndChar

StartChar: uni0D2A
Encoding: 3370 3370 82
Width: 979
GlyphClass: 2
Flags: W
LayerCount: 2
Fore
SplineSet
911 40 m 1,0,-1
 911 390 l 1,1,-1
 911 442 l 1,2,-1
 912 470 l 1,3,4
 918 489 918 489 936 491 c 1,5,-1
 937 491 l 1,6,-1
 944 490 l 2,7,8
 962 487 962 487 965 469 c 1,9,-1
 966 443 l 1,10,-1
 966 395 l 1,11,-1
 966 94 l 1,12,-1
 966 38 l 1,13,-1
 965 8 l 1,14,15
 962 -9 962 -9 945 -14 c 1,16,-1
 923 -15 l 1,17,-1
 891 -15 l 1,18,-1
 787 -15 l 1,19,-1
 453 -15 l 2,20,21
 374 -15 374 -15 358 -18 c 2,22,-1
 347 -20 l 1,23,24
 319 -27 319 -27 310 -23 c 1,25,-1
 310 -23 l 1,26,-1
 309 -23 l 1,27,-1
 307 -22 l 1,28,-1
 306 -21 l 1,29,-1
 301 -16 l 1,30,31
 288 0 288 0 298 15 c 1,32,-1
 299 16 l 1,33,-1
 300 17 l 1,34,-1
 301 18 l 1,35,-1
 323 35 l 1,36,-1
 324 36 l 1,37,-1
 325 36 l 1,38,-1
 327 38 l 1,39,40
 348 54 348 54 363 77 c 0,41,42
 405 140 405 140 384 209 c 1,43,-1
 377 227 l 1,44,45
 370 242 370 242 358 257 c 1,46,-1
 357 258 l 1,47,-1
 356 259 l 1,48,-1
 355 260 l 1,49,50
 342 275 342 275 324 286 c 0,51,52
 304 298 304 298 280 303 c 0,53,54
 214 318 214 318 161 272 c 1,55,-1
 160 271 l 1,56,-1
 148 258 l 2,57,58
 129 237 129 237 120 210 c 0,59,60
 104 165 104 165 123 111 c 0,61,62
 137 73 137 73 166 46 c 1,63,-1
 187 30 l 1,64,-1
 204 14 l 1,65,-1
 204 14 l 1,66,67
 215 -5 215 -5 197 -20 c 1,68,-1
 196 -20 l 1,69,70
 187 -26 187 -26 177 -26 c 0,71,72
 167 -25 167 -25 148 -11 c 0,73,74
 118 12 118 12 94 47 c 1,75,-1
 93 48 l 1,76,77
 40 131 40 131 65 219 c 1,78,-1
 65 220 l 1,79,80
 72 243 72 243 83 265 c 1,81,-1
 84 266 l 1,82,-1
 85 267 l 1,83,84
 99 289 99 289 115 305 c 0,85,86
 132 322 132 322 157 337 c 1,87,88
 236 380 236 380 321 348 c 0,89,90
 350 337 350 337 374 318 c 1,91,-1
 376 316 l 1,92,93
 396 301 396 301 411 277 c 1,94,-1
 412 276 l 1,95,96
 430 250 430 250 438 220 c 1,97,-1
 438 219 l 1,98,99
 456 153 456 153 429 86 c 1,100,-1
 429 85 l 1,101,-1
 405 40 l 1,102,-1
 911 40 l 1,0,-1
EndSplineSet
EndChar

StartChar: uni0D2B
Encoding: 3371 3371 83
Width: 1074
GlyphClass: 2
Flags: W
LayerCount: 2
Fore
SplineSet
627 40 m 1,0,-1
 627 189 l 1,1,-1
 627 252 l 1,2,3
 630 318 630 318 654 368 c 1,4,5
 684 435 684 435 736 470 c 0,6,7
 808 519 808 519 891 496 c 1,8,-1
 892 496 l 1,9,-1
 893 496 l 1,10,-1
 923 486 l 1,11,12
 958 469 958 469 986 441 c 2,13,-1
 987 440 l 1,14,15
 1050 374 1050 374 1060 268 c 1,16,-1
 1061 206 l 1,17,-1
 1061 116 l 1,18,-1
 1061 37 l 2,19,20
 1061 7 1061 7 1058 0 c 0,21,22
 1050 -15 1050 -15 1018 -15 c 2,23,-1
 1013 -15 l 1,24,-1
 895 -15 l 1,25,-1
 448 -15 l 2,26,27
 375 -15 375 -15 359 -18 c 1,28,-1
 358 -18 l 1,29,-1
 349 -20 l 1,30,31
 319 -28 319 -28 310 -23 c 2,32,-1
 306 -21 l 1,33,-1
 303 -18 l 2,34,35
 287 -2 287 -2 301 18 c 1,36,-1
 323 35 l 2,37,38
 340 48 340 48 354 65 c 0,39,40
 400 122 400 122 388 192 c 0,41,42
 385 210 385 210 376 228 c 1,43,-1
 376 229 l 1,44,45
 346 287 346 287 280 303 c 1,46,-1
 279 303 l 1,47,48
 225 314 225 314 179 286 c 0,49,50
 164 276 164 276 151 262 c 2,51,-1
 150 261 l 1,52,-1
 148 259 l 2,53,54
 134 244 134 244 127 229 c 1,55,-1
 127 228 l 1,56,-1
 126 227 l 1,57,58
 96 161 96 161 132 92 c 1,59,-1
 143 73 l 1,60,61
 157 55 157 55 174 40 c 1,62,-1
 175 39 l 1,63,-1
 176 38 l 1,64,-1
 199 20 l 1,65,-1
 201 18 l 1,66,67
 212 4 212 4 204 -12 c 1,68,69
 190 -36 190 -36 161 -20 c 1,70,-1
 160 -19 l 1,71,72
 119 7 119 7 93 48 c 0,73,74
 44 126 44 126 64 213 c 1,75,-1
 64 214 l 1,76,77
 75 263 75 263 108 298 c 0,78,79
 167 363 167 363 257 361 c 0,80,81
 294 360 294 360 329 344 c 1,82,-1
 330 344 l 1,83,-1
 331 344 l 1,84,85
 362 330 362 330 391 302 c 2,86,-1
 392 301 l 1,87,88
 414 277 414 277 428 247 c 0,89,90
 463 170 463 170 429 86 c 0,91,92
 423 70 423 70 405 40 c 1,93,-1
 627 40 l 1,0,-1
1006 40 m 1,94,-1
 1006 190 l 1,95,-1
 1005 267 l 1,96,97
 998 326 998 326 971 371 c 1,98,99
 951 402 951 402 931 417 c 1,100,101
 912 433 912 433 891 440 c 1,102,-1
 890 440 l 1,103,104
 869 448 869 448 851 448 c 0,105,106
 830 448 830 448 810 444 c 1,107,-1
 809 444 l 1,108,109
 739 426 739 426 703 345 c 1,110,-1
 695 324 l 1,111,112
 682 284 682 284 682 198 c 2,113,-1
 682 197 l 1,114,-1
 682 196 l 1,115,-1
 682 195 l 1,116,-1
 682 194 l 1,117,-1
 682 193 l 1,118,-1
 682 192 l 1,119,-1
 682 40 l 1,120,-1
 1006 40 l 1,94,-1
EndSplineSet
EndChar

StartChar: uni0D2C
Encoding: 3372 3372 84
Width: 1213
GlyphClass: 2
Flags: W
LayerCount: 2
Fore
SplineSet
114 249 m 1,0,1
 124 267 124 267 148 286 c 0,2,3
 164 298 164 298 186 306 c 1,4,-1
 222 313 l 1,5,6
 293 316 293 316 339 253 c 0,7,8
 357 230 357 230 365 204 c 1,9,-1
 365 203 l 1,10,-1
 365 202 l 1,11,12
 389 121 389 121 350 50 c 0,13,14
 328 11 328 11 291 -10 c 0,15,16
 272 -20 272 -20 253 -24 c 1,17,18
 227 -27 227 -27 209 -25 c 1,19,20
 182 -20 182 -20 161 -9 c 1,21,-1
 160 -9 l 1,22,23
 88 32 88 32 66 152 c 0,24,25
 55 208 55 208 58 251 c 0,26,27
 65 359 65 359 129 427 c 1,28,-1
 130 428 l 2,29,30
 165 464 165 464 204 482 c 1,31,-1
 205 483 l 1,32,33
 292 522 292 522 374 488 c 1,34,-1
 390 480 l 2,35,36
 414 468 414 468 443 439 c 0,37,38
 469 412 469 412 486 374 c 1,39,-1
 505 412 l 1,40,41
 534 457 534 457 570 479 c 0,42,43
 637 521 637 521 719 492 c 0,44,45
 742 484 742 484 761 471 c 0,46,47
 803 444 803 444 833 393 c 1,48,49
 894 283 894 283 860 148 c 1,50,-1
 854 125 l 2,51,52
 846 97 846 97 815 40 c 1,53,-1
 1149 40 l 1,54,-1
 1149 388 l 1,55,-1
 1149 443 l 1,56,-1
 1150 471 l 1,57,58
 1154 488 1154 488 1174 491 c 1,59,-1
 1175 491 l 1,60,-1
 1179 491 l 1,61,62
 1198 488 1198 488 1203 469 c 1,63,-1
 1204 437 l 1,64,-1
 1204 385 l 1,65,-1
 1204 82 l 1,66,-1
 1204 36 l 1,67,-1
 1203 7 l 1,68,69
 1200 -11 1200 -11 1182 -14 c 1,70,-1
 1143 -15 l 1,71,-1
 1068 -15 l 1,72,-1
 831 -15 l 2,73,74
 799 -15 799 -15 783 -19 c 2,75,-1
 747 -26 l 1,76,77
 730 -24 730 -24 724 -9 c 1,78,-1
 724 -8 l 1,79,80
 718 8 718 8 739 31 c 1,81,-1
 739 31 l 1,82,-1
 742 34 l 1,83,84
 771 69 771 69 790 110 c 0,85,86
 840 222 840 222 803 326 c 1,87,-1
 802 328 l 1,88,-1
 801 330 l 1,89,-1
 796 343 l 1,90,91
 762 421 762 421 693 443 c 1,92,-1
 692 443 l 1,93,-1
 664 448 l 1,94,95
 615 451 615 451 578 416 c 0,96,97
 561 400 561 400 545 370 c 0,98,99
 519 322 519 322 516 252 c 1,100,-1
 516 207 l 1,101,-1
 516 116 l 1,102,-1
 516 46 l 1,103,-1
 516 9 l 1,104,105
 511 -12 511 -12 492 -14 c 1,106,-1
 489 -14 l 1,107,108
 470 -15 470 -15 462 4 c 1,109,-1
 461 10 l 1,110,-1
 461 51 l 1,111,-1
 461 130 l 1,112,-1
 461 210 l 1,113,-1
 460 267 l 1,114,115
 450 351 450 351 401 403 c 1,116,-1
 400 404 l 2,117,118
 383 421 383 421 362 433 c 1,119,120
 296 467 296 467 221 429 c 0,121,122
 194 415 194 415 173 393 c 0,123,124
 131 348 131 348 119 290 c 1,125,-1
 113 249 l 1,126,-1
 114 249 l 1,0,1
219 258 m 1,127,128
 175 254 175 254 151 205 c 1,129,130
 123 151 123 151 146 94 c 1,131,-1
 146 93 l 1,132,-1
 154 76 l 1,133,134
 177 41 177 41 208 31 c 1,135,-1
 209 31 l 1,136,-1
 210 31 l 1,137,-1
 236 29 l 1,138,139
 281 33 281 33 306 83 c 1,140,-1
 308 88 l 1,141,142
 334 150 334 150 304 207 c 1,143,-1
 301 212 l 2,144,145
 281 247 281 247 246 256 c 1,146,-1
 219 258 l 1,127,128
EndSplineSet
EndChar

StartChar: uni0D2D
Encoding: 3373 3373 85
Width: 595
GlyphClass: 2
Flags: W
LayerCount: 2
Fore
SplineSet
329 503 m 1,0,-1
 378 502 l 1,1,-1
 436 496 l 1,2,-1
 437 496 l 1,3,4
 506 483 506 483 537 449 c 0,5,6
 572 411 572 411 560 360 c 1,7,-1
 552 338 l 1,8,-1
 551 337 l 1,9,-1
 549 333 l 1,10,11
 538 316 538 316 518 303 c 1,12,-1
 517 302 l 1,13,14
 476 276 476 276 417 279 c 1,15,-1
 416 279 l 1,16,-1
 331 285 l 1,17,-1
 325 285 l 1,18,19
 291 283 291 283 271 267 c 1,20,21
 257 254 257 254 255 241 c 1,22,-1
 255 240 l 1,23,24
 254 224 254 224 271 210 c 0,25,26
 292 193 292 193 329 191 c 1,27,-1
 330 191 l 1,28,-1
 420 198 l 1,29,-1
 435 199 l 1,30,31
 487 201 487 201 522 185 c 1,32,-1
 548 170 l 2,33,34
 562 161 562 161 571 147 c 0,35,36
 603 101 603 101 576 49 c 1,37,-1
 575 48 l 1,38,39
 565 30 565 30 550 16 c 0,40,41
 506 -22 506 -22 429 -26 c 1,42,-1
 428 -26 l 1,43,44
 382 -27 382 -27 331 -21 c 1,45,-1
 252 -9 l 2,46,47
 224 -4 224 -4 214 1 c 0,48,49
 195 12 195 12 202 34 c 0,50,51
 207 49 207 49 222 51 c 0,52,53
 233 53 233 53 251 47 c 1,54,-1
 298 38 l 1,55,56
 344 31 344 31 383 30 c 1,57,-1
 384 30 l 1,58,-1
 386 30 l 1,59,60
 437 26 437 26 469 36 c 1,61,62
 506 45 506 45 523 68 c 0,63,64
 535 84 535 84 532 99 c 2,65,-1
 531 105 l 1,66,-1
 531 106 l 1,67,-1
 530 108 l 2,68,69
 521 125 521 125 502 133 c 1,70,-1
 501 134 l 1,71,72
 473 147 473 147 432 143 c 1,73,-1
 431 143 l 1,74,-1
 430 143 l 1,75,-1
 333 136 l 1,76,77
 267 137 267 137 230 172 c 0,78,79
 217 185 217 185 211 196 c 0,80,81
 203 210 203 210 200 230 c 1,82,83
 198 256 198 256 209 277 c 0,84,85
 219 295 219 295 232 307 c 0,86,87
 276 346 276 346 374 338 c 1,88,-1
 375 338 l 1,89,90
 440 331 440 331 463 338 c 0,91,92
 478 342 478 342 487 348 c 1,93,-1
 500 360 l 1,94,-1
 506 371 l 1,95,96
 518 404 518 404 475 427 c 1,97,-1
 467 431 l 1,98,99
 439 443 439 443 378 447 c 1,100,-1
 377 447 l 1,101,-1
 376 447 l 1,102,103
 334 450 334 450 295 443 c 1,104,105
 199 423 199 423 148 349 c 1,106,-1
 135 327 l 1,107,108
 107 273 107 273 116 182 c 1,109,-1
 116 181 l 1,110,111
 122 121 122 121 138 68 c 1,112,-1
 151 29 l 1,113,-1
 160 5 l 1,114,115
 162 -15 162 -15 143 -24 c 0,116,117
 135 -27 135 -27 126 -25 c 0,118,119
 110 -22 110 -22 99 11 c 1,120,-1
 96 19 l 1,121,122
 72 88 72 88 63 160 c 0,123,124
 52 246 52 246 66 300 c 0,125,126
 91 401 91 401 186 459 c 0,127,128
 212 475 212 475 241 485 c 0,129,130
 279 498 279 498 328 503 c 1,131,-1
 329 503 l 1,0,-1
EndSplineSet
EndChar

StartChar: uni0D2E
Encoding: 3374 3374 86
Width: 593
GlyphClass: 2
Flags: W
LayerCount: 2
Fore
SplineSet
307 503 m 1,0,1
 332 505 332 505 358 500 c 1,2,-1
 359 500 l 1,3,-1
 360 500 l 1,4,5
 464 486 464 486 531 402 c 0,6,7
 556 370 556 370 570 333 c 0,8,9
 584 293 584 293 587 252 c 1,10,-1
 587 251 l 1,11,-1
 587 184 l 1,12,-1
 587 34 l 2,13,14
 587 3 587 3 580 -6 c 1,15,-1
 580 -6 l 1,16,-1
 578 -8 l 1,17,-1
 577 -9 l 1,18,-1
 576 -10 l 1,19,-1
 575 -10 l 1,20,-1
 572 -12 l 1,21,-1
 563 -15 l 1,22,-1
 521 -15 l 1,23,-1
 440 -15 l 1,24,-1
 191 -15 l 1,25,-1
 104 -15 l 2,26,27
 76 -15 76 -15 67 -8 c 1,28,-1
 67 -8 l 1,29,-1
 66 -7 l 2,30,31
 57 3 57 3 58 33 c 1,32,-1
 58 34 l 1,33,-1
 58 37 l 1,34,-1
 58 143 l 1,35,-1
 58 214 l 2,36,37
 58 270 58 270 66 304 c 1,38,39
 93 405 93 405 180 461 c 0,40,41
 199 473 199 473 219 482 c 0,42,43
 251 496 251 496 306 503 c 1,44,-1
 307 503 l 1,0,1
532 40 m 1,45,-1
 532 176 l 1,46,-1
 530 267 l 1,47,48
 519 353 519 353 450 405 c 0,49,50
 414 433 414 433 373 442 c 1,51,-1
 372 442 l 1,52,-1
 343 446 l 1,53,54
 390 407 390 407 397 343 c 1,55,-1
 397 342 l 1,56,57
 398 324 398 324 394 290 c 0,58,59
 378 159 378 159 276 69 c 1,60,-1
 239 41 l 1,61,-1
 239 40 l 1,62,-1
 532 40 l 1,45,-1
113 46 m 1,63,64
 125 47 125 47 147 55 c 0,65,66
 177 66 177 66 192 76 c 1,67,68
 292 133 292 133 327 240 c 1,69,-1
 335 267 l 1,70,71
 354 354 354 354 320 393 c 1,72,-1
 319 394 l 1,73,74
 286 432 286 432 235 422 c 1,75,-1
 234 422 l 1,76,77
 206 417 206 417 186 397 c 0,78,79
 158 370 158 370 154 363 c 1,80,81
 121 319 121 319 115 267 c 1,82,-1
 113 226 l 1,83,-1
 113 46 l 1,63,64
EndSplineSet
EndChar

StartChar: uni0D2F
Encoding: 3375 3375 87
Width: 881
GlyphClass: 2
Flags: W
LayerCount: 2
Fore
SplineSet
555 35 m 1,0,-1
 578 31 l 2,1,2
 602 27 602 27 626 31 c 1,3,-1
 627 31 l 1,4,-1
 628 31 l 1,5,6
 719 42 719 42 775 115 c 0,7,8
 803 151 803 151 812 195 c 1,9,10
 824 246 824 246 806 320 c 1,11,12
 791 375 791 375 761 417 c 1,13,-1
 739 445 l 1,14,-1
 725 464 l 1,15,16
 716 483 716 483 732 496 c 1,17,-1
 733 497 l 1,18,-1
 745 503 l 1,19,-1
 746 503 l 1,20,-1
 747 503 l 1,21,22
 761 504 761 504 777 486 c 1,23,-1
 778 485 l 1,24,25
 806 454 806 454 825 419 c 0,26,27
 888 305 888 305 867 191 c 1,28,-1
 867 190 l 1,29,30
 857 140 857 140 831 99 c 0,31,32
 775 11 775 11 673 -16 c 1,33,-1
 641 -23 l 1,34,-1
 590 -26 l 1,35,-1
 589 -26 l 1,36,37
 552 -23 552 -23 528 -14 c 1,38,-1
 507 -5 l 1,39,-1
 496 -1 l 1,40,-1
 477 -7 l 1,41,-1
 444 -17 l 1,42,43
 392 -29 392 -29 341 -25 c 1,44,-1
 340 -25 l 1,45,46
 275 -17 275 -17 221 12 c 0,47,48
 119 67 119 67 77 178 c 0,49,50
 51 249 51 249 60 321 c 1,51,-1
 60 322 l 1,52,53
 70 401 70 401 115 451 c 1,54,-1
 116 452 l 1,55,56
 168 507 168 507 236 503 c 0,57,58
 257 501 257 501 277 493 c 0,59,60
 293 487 293 487 305 476 c 1,61,62
 329 457 329 457 351 414 c 1,63,-1
 352 413 l 1,64,-1
 353 412 l 1,65,66
 363 438 363 438 395 464 c 1,67,-1
 396 465 l 1,68,69
 457 514 457 514 532 500 c 1,70,-1
 533 500 l 1,71,-1
 534 500 l 1,72,73
 567 494 567 494 594 476 c 1,74,-1
 596 475 l 1,75,-1
 597 474 l 1,76,-1
 605 468 l 1,77,-1
 606 467 l 1,78,79
 635 442 635 442 655 403 c 1,80,-1
 656 402 l 1,81,82
 706 301 706 301 664 182 c 0,83,84
 652 148 652 148 633 118 c 0,85,86
 614 89 614 89 587 62 c 2,87,-1
 586 61 l 2,88,89
 567 42 567 42 555 36 c 1,90,-1
 555 35 l 1,0,-1
443 39 m 1,91,-1
 426 57 l 1,92,-1
 401 89 l 1,93,94
 359 151 359 151 340 232 c 1,95,-1
 340 233 l 1,96,-1
 318 348 l 1,97,-1
 309 376 l 1,98,99
 291 416 291 416 271 433 c 1,100,-1
 270 434 l 1,101,102
 231 463 231 463 182 436 c 1,103,-1
 166 424 l 1,104,-1
 161 420 l 1,105,106
 126 386 126 386 116 326 c 0,107,108
 98 222 98 222 164 133 c 1,109,-1
 165 132 l 1,110,111
 214 70 214 70 285 42 c 1,112,-1
 286 42 l 1,113,-1
 287 42 l 1,114,-1
 288 42 l 1,115,-1
 289 42 l 1,116,117
 342 24 342 24 397 30 c 1,118,-1
 398 30 l 1,119,-1
 399 30 l 1,120,-1
 443 39 l 1,91,-1
495 448 m 1,121,122
 472 445 472 445 453 436 c 0,123,124
 408 415 408 415 392 368 c 1,125,-1
 385 333 l 1,126,-1
 382 316 l 1,127,-1
 384 302 l 1,128,-1
 387 279 l 1,129,130
 397 213 397 213 422 161 c 1,131,132
 445 116 445 116 474 85 c 1,133,-1
 491 70 l 1,134,-1
 500 66 l 1,135,-1
 509 70 l 1,136,-1
 524 80 l 1,137,138
 552 102 552 102 578 135 c 1,139,-1
 579 136 l 1,140,141
 635 212 635 212 627 305 c 0,142,143
 624 334 624 334 614 360 c 0,144,145
 587 433 587 433 529 445 c 1,146,-1
 528 446 l 1,147,-1
 526 446 l 1,148,-1
 495 448 l 1,121,122
EndSplineSet
EndChar

StartChar: uni0D30
Encoding: 3376 3376 88
Width: 595
GlyphClass: 2
Flags: W
LayerCount: 2
Fore
SplineSet
532 204 m 1,0,-1
 530 169 l 2,1,2
 528 135 528 135 518 106 c 1,3,-1
 506 76 l 1,4,5
 491 46 491 46 471 37 c 1,6,-1
 471 37 l 1,7,-1
 470 37 l 1,8,-1
 455 30 l 1,9,10
 409 22 409 22 400 77 c 0,11,12
 397 98 397 98 397 137 c 1,13,14
 413 237 413 237 458 295 c 0,15,16
 471 312 471 312 489 328 c 1,17,-1
 506 341 l 1,18,19
 527 296 527 296 527 265 c 1,20,-1
 532 211 l 1,21,-1
 532 210 l 1,22,23
 532 204 l 1,0,-1
476 384 m 1,24,-1
 441 353 l 1,25,26
 404 318 404 318 386 288 c 0,27,28
 345 217 345 217 342 147 c 0,29,30
 342 130 342 130 343 109 c 0,31,32
 343 105 343 105 343 100 c 2,33,-1
 343 98 l 1,34,35
 351 3 351 3 409 -20 c 0,36,37
 429 -28 429 -28 454 -25 c 1,38,-1
 455 -25 l 1,39,40
 473 -23 473 -23 489 -16 c 0,41,42
 565 16 565 16 582 151 c 1,43,-1
 582 152 l 1,44,45
 589 234 589 234 583 275 c 2,46,-1
 578 306 l 1,47,48
 567 349 567 349 539 390 c 0,49,50
 478 477 478 477 374 498 c 1,51,-1
 348 502 l 1,52,-1
 347 502 l 1,53,-1
 346 502 l 1,54,55
 240 512 240 512 157 445 c 0,56,57
 105 404 105 404 79 342 c 1,58,-1
 78 340 l 1,59,-1
 78 339 l 1,60,-1
 77 337 l 1,61,62
 49 268 49 268 62 185 c 1,63,-1
 62 184 l 1,64,-1
 62 183 l 1,65,66
 74 96 74 96 129 19 c 1,67,-1
 154 -11 l 2,68,69
 165 -24 165 -24 174 -25 c 0,70,71
 188 -28 188 -28 198 -19 c 0,72,73
 215 -4 215 -4 203 15 c 1,74,-1
 186 36 l 1,75,-1
 160 73 l 1,76,77
 102 166 102 166 115 265 c 0,78,79
 120 306 120 306 142 343 c 0,80,81
 186 418 186 418 269 441 c 0,82,83
 301 450 301 450 357 445 c 0,84,85
 402 441 402 441 451 406 c 1,86,87
 452 405 l 1,88,89
 467 395 467 395 476 384 c 1,24,-1
EndSplineSet
EndChar

StartChar: uni0D31
Encoding: 3377 3377 89
Width: 591
GlyphClass: 2
Flags: W
LayerCount: 2
Fore
SplineSet
307 503 m 1,0,1
 332 505 332 505 358 500 c 1,2,-1
 359 500 l 1,3,-1
 360 500 l 1,4,5
 463 486 463 486 529 404 c 0,6,7
 552 375 552 375 566 342 c 1,8,-1
 566 341 l 1,9,10
 599 263 599 263 580 171 c 1,11,-1
 580 169 l 1,12,13
 563 81 563 81 511 13 c 1,14,-1
 493 -9 l 2,15,16
 478 -26 478 -26 464 -26 c 2,17,-1
 462 -26 l 1,18,19
 443 -24 443 -24 438 -5 c 0,20,21
 436 4 436 4 440 12 c 1,22,-1
 452 28 l 1,23,-1
 468 47 l 1,24,25
 489 76 489 76 504 107 c 1,26,-1
 504 108 l 1,27,28
 541 191 541 191 530 266 c 1,29,-1
 530 267 l 1,30,31
 522 323 522 323 488 367 c 1,32,-1
 487 368 l 1,33,34
 471 387 471 387 450 404 c 1,35,-1
 449 405 l 1,36,-1
 448 406 l 1,37,-1
 447 407 l 1,38,39
 423 426 423 426 390 437 c 0,40,41
 301 468 301 468 217 419 c 1,42,43
 180 396 180 396 154 362 c 1,44,-1
 153 361 l 1,45,46
 134 333 134 333 126 310 c 0,47,48
 95 225 95 225 135 122 c 0,49,50
 149 86 149 86 175 50 c 1,51,-1
 192 29 l 1,52,-1
 205 11 l 1,53,54
 214 -8 214 -8 195 -20 c 1,55,-1
 194 -21 l 1,56,-1
 181 -26 l 1,57,-1
 179 -26 l 2,58,59
 167 -26 167 -26 153 -10 c 2,60,-1
 132 15 l 1,61,62
 81 84 81 84 64 171 c 0,63,64
 39 303 39 303 112 399 c 0,65,66
 130 422 130 422 154 442 c 0,67,68
 182 466 182 466 214 481 c 1,69,-1
 215 481 l 1,70,-1
 216 481 l 1,71,72
 248 495 248 495 305 503 c 1,73,-1
 306 503 l 1,74,-1
 307 503 l 1,0,1
EndSplineSet
EndChar

StartChar: uni0D32
Encoding: 3378 3378 90
Width: 884
GlyphClass: 2
Flags: W
LayerCount: 2
Fore
SplineSet
817 40 m 1,0,-1
 817 383 l 1,1,-1
 817 438 l 1,2,-1
 818 468 l 1,3,4
 821 487 821 487 840 490 c 0,5,6
 860 494 860 494 870 474 c 1,7,-1
 871 470 l 1,8,-1
 872 441 l 1,9,-1
 872 386 l 1,10,-1
 872 111 l 1,11,-1
 872 36 l 2,12,13
 872 6 872 6 869 0 c 0,14,15
 861 -15 861 -15 831 -15 c 2,16,-1
 830 -15 l 1,17,-1
 829 -15 l 1,18,-1
 826 -15 l 1,19,-1
 713 -15 l 1,20,-1
 234 -15 l 1,21,-1
 106 -15 l 2,22,23
 74 -15 74 -15 65 -6 c 1,24,-1
 60 3 l 2,25,26
 57 10 57 10 58 39 c 1,27,-1
 58 41 l 1,28,-1
 58 43 l 1,29,-1
 58 125 l 2,30,31
 58 227 58 227 62 257 c 1,32,-1
 62 257 l 1,33,34
 80 382 80 382 161 451 c 0,35,36
 182 470 182 470 206 481 c 1,37,-1
 207 482 l 1,38,39
 235 496 235 496 270 501 c 1,40,-1
 271 501 l 1,41,42
 298 505 298 505 331 500 c 1,43,-1
 332 500 l 1,44,-1
 370 491 l 1,45,46
 462 458 462 458 510 350 c 1,47,-1
 511 348 l 1,48,49
 526 314 526 314 533 279 c 1,50,-1
 533 278 l 1,51,-1
 533 277 l 1,52,53
 542 227 542 227 540 205 c 1,54,-1
 540 204 l 1,55,-1
 540 203 l 1,56,-1
 540 202 l 1,57,58
 538 181 538 181 519 176 c 1,59,-1
 491 175 l 1,60,-1
 440 175 l 1,61,-1
 113 175 l 1,62,-1
 113 40 l 1,63,-1
 817 40 l 1,0,-1
484 230 m 1,64,65
 476 332 476 332 416 395 c 0,66,67
 382 432 382 432 337 443 c 0,68,69
 319 448 319 448 302 448 c 0,70,71
 275 448 275 448 257 442 c 0,72,73
 232 434 232 434 210 419 c 1,74,-1
 208 418 l 1,75,-1
 206 417 l 1,76,77
 180 397 180 397 159 366 c 1,78,-1
 158 365 l 1,79,80
 122 309 122 309 114 232 c 1,81,-1
 114 231 l 1,82,-1
 114 230 l 1,83,-1
 484 230 l 1,64,65
EndSplineSet
EndChar

StartChar: uni0D33
Encoding: 3379 3379 91
Width: 692
GlyphClass: 2
Flags: W
LayerCount: 2
Fore
SplineSet
114 249 m 1,0,1
 122 264 122 264 137 277 c 0,2,3
 187 323 187 323 254 310 c 1,4,-1
 283 301 l 1,5,-1
 285 300 l 2,6,7
 307 289 307 289 323 273 c 0,8,9
 380 217 380 217 373 132 c 1,10,-1
 373 131 l 1,11,-1
 373 130 l 1,12,-1
 373 129 l 1,13,14
 368 56 368 56 319 10 c 0,15,16
 269 -37 269 -37 199 -23 c 0,17,18
 169 -17 169 -17 144 2 c 0,19,20
 110 27 110 27 87 78 c 1,21,22
 68 123 68 123 61 184 c 0,23,24
 56 223 56 223 59 259 c 1,25,-1
 59 261 l 1,26,-1
 59 264 l 1,27,-1
 59 266 l 1,28,29
 70 363 70 363 141 431 c 0,30,31
 220 506 220 506 333 503 c 1,32,-1
 334 503 l 1,33,34
 390 501 390 501 440 479 c 0,35,36
 489 457 489 457 519 424 c 1,37,-1
 520 423 l 1,38,39
 568 369 568 369 563 301 c 1,40,-1
 563 300 l 1,41,42
 560 262 560 262 544 232 c 2,43,-1
 543 230 l 1,44,-1
 543 229 l 1,45,-1
 527 203 l 1,46,47
 546 199 546 199 569 184 c 1,48,-1
 570 183 l 1,49,-1
 571 182 l 1,50,51
 589 170 589 170 605 152 c 1,52,-1
 606 151 l 1,53,54
 616 138 616 138 624 121 c 0,55,56
 653 53 653 53 606 -19 c 1,57,-1
 605 -20 l 1,58,59
 589 -44 589 -44 567 -62 c 0,60,61
 484 -130 484 -130 326 -126 c 1,62,-1
 325 -126 l 1,63,-1
 222 -121 l 1,64,65
 175 -121 175 -121 155 -135 c 0,66,67
 130 -152 130 -152 139 -175 c 1,68,69
 144 -191 144 -191 168 -202 c 0,70,71
 186 -210 186 -210 237 -209 c 1,72,-1
 238 -209 l 1,73,-1
 239 -209 l 1,74,-1
 240 -209 l 1,75,-1
 241 -209 l 1,76,-1
 244 -209 l 1,77,-1
 562 -209 l 1,78,-1
 626 -209 l 1,79,-1
 660 -210 l 1,80,81
 681 -215 681 -215 682 -235 c 1,82,-1
 680 -246 l 1,83,84
 673 -264 673 -264 639 -264 c 2,85,-1
 638 -264 l 1,86,-1
 524 -264 l 1,87,-1
 297 -264 l 1,88,-1
 229 -264 l 2,89,90
 190 -264 190 -264 170 -260 c 0,91,92
 110 -248 110 -248 89 -200 c 0,93,94
 83 -187 83 -187 82 -173 c 1,95,-1
 84 -148 l 2,96,97
 85 -136 85 -136 92 -123 c 1,98,-1
 106 -104 l 1,99,100
 142 -66 142 -66 224 -66 c 1,101,-1
 281 -69 l 1,102,-1
 326 -71 l 1,103,104
 493 -75 493 -75 555 5 c 1,105,-1
 556 6 l 1,106,107
 566 19 566 19 573 36 c 1,108,-1
 573 37 l 1,109,-1
 579 66 l 1,110,-1
 578 86 l 1,111,112
 565 138 565 138 489 158 c 1,113,-1
 453 163 l 1,114,-1
 432 165 l 1,115,116
 415 171 415 171 414 189 c 1,117,-1
 414 191 l 1,118,-1
 414 192 l 1,119,-1
 415 196 l 1,120,121
 417 212 417 212 434 217 c 1,122,-1
 435 217 l 1,123,-1
 452 219 l 1,124,-1
 474 230 l 1,125,126
 515 262 515 262 507 322 c 0,127,128
 503 350 503 350 489 372 c 1,129,-1
 488 373 l 1,130,131
 463 411 463 411 412 430 c 1,132,-1
 411 431 l 1,133,-1
 410 432 l 1,134,135
 320 468 320 468 234 428 c 1,136,-1
 233 428 l 1,137,138
 213 418 213 418 195 404 c 1,139,-1
 194 403 l 1,140,-1
 192 401 l 1,141,-1
 190 400 l 1,142,143
 138 358 138 358 119 291 c 1,144,-1
 119 290 l 1,145,-1
 113 249 l 1,146,-1
 114 249 l 1,0,1
219 258 m 1,147,148
 175 254 175 254 151 205 c 1,149,150
 123 151 123 151 146 94 c 1,151,-1
 146 93 l 1,152,-1
 154 76 l 1,153,154
 177 41 177 41 208 31 c 1,155,-1
 209 31 l 1,156,-1
 210 31 l 1,157,-1
 236 29 l 1,158,159
 281 33 281 33 306 83 c 1,160,-1
 308 88 l 1,161,162
 334 150 334 150 304 207 c 1,163,-1
 301 212 l 2,164,165
 281 247 281 247 246 256 c 1,166,-1
 219 258 l 1,147,148
EndSplineSet
EndChar

StartChar: uni0D34
Encoding: 3380 3380 92
Width: 642
GlyphClass: 2
Flags: W
LayerCount: 2
Fore
SplineSet
444 171 m 1,0,-1
 446 148 l 1,1,2
 446 119 446 119 441 99 c 0,3,4
 421 27 421 27 354 -7 c 0,5,6
 327 -21 327 -21 299 -24 c 1,7,-1
 298 -24 l 1,8,9
 228 -35 228 -35 164 7 c 0,10,11
 132 28 132 28 129 45 c 1,12,-1
 129 47 l 1,13,14
 128 67 128 67 147 74 c 1,15,-1
 148 74 l 1,16,17
 156 77 156 77 164 74 c 2,18,-1
 167 73 l 1,19,-1
 190 56 l 1,20,-1
 192 55 l 1,21,22
 210 43 210 43 231 35 c 1,23,-1
 232 35 l 1,24,25
 265 25 265 25 297 31 c 1,26,-1
 298 31 l 1,27,28
 354 43 354 43 379 92 c 1,29,-1
 380 93 l 1,30,31
 390 113 390 113 391 132 c 1,32,-1
 391 134 l 1,33,-1
 391 135 l 1,34,-1
 391 136 l 1,35,-1
 390 154 l 1,36,-1
 388 161 l 1,37,-1
 380 163 l 1,38,-1
 362 162 l 1,39,40
 324 162 324 162 293 166 c 2,41,-1
 253 172 l 1,42,43
 106 204 106 204 69 300 c 1,44,45
 41 369 41 369 80 433 c 1,46,-1
 81 435 l 1,47,48
 98 463 98 463 125 481 c 0,49,50
 143 493 143 493 164 499 c 0,51,52
 176 503 176 503 183 502 c 0,53,54
 202 500 202 500 207 480 c 0,55,56
 209 468 209 468 201 458 c 0,57,58
 196 452 196 452 177 445 c 1,59,-1
 176 445 l 1,60,-1
 153 433 l 1,61,62
 111 401 111 401 113 350 c 1,63,-1
 113 349 l 1,64,65
 115 332 115 332 122 316 c 2,66,-1
 123 314 l 2,67,68
 141 276 141 276 192 251 c 0,69,70
 259 217 259 217 374 217 c 1,71,72
 348 297 348 297 347 301 c 2,73,-1
 342 337 l 1,74,75
 340 377 340 377 355 411 c 1,76,77
 371 443 371 443 394 466 c 2,78,-1
 395 467 l 1,79,80
 431 500 431 500 479 503 c 1,81,-1
 480 503 l 1,82,83
 547 507 547 507 594 458 c 0,84,85
 603 449 603 449 609 440 c 0,86,87
 651 377 651 377 626 304 c 1,88,-1
 626 303 l 1,89,-1
 612 273 l 1,90,91
 591 237 591 237 551 212 c 1,92,-1
 550 211 l 1,93,94
 501 180 501 180 444 171 c 1,0,-1
479 448 m 0,95,96
 468 447 468 447 450 439 c 0,97,98
 438 433 438 433 429 424 c 0,99,100
 381 377 381 377 405 295 c 1,101,-1
 405 294 l 1,102,-1
 424 241 l 2,103,104
 429 226 429 226 432 225 c 1,105,-1
 435 225 l 1,106,-1
 476 236 l 1,107,108
 553 264 553 264 573 318 c 1,109,-1
 573 319 l 1,110,111
 592 370 592 370 562 411 c 0,112,113
 552 425 552 425 538 434 c 0,114,115
 525 442 525 442 512 445 c 1,116,117
 496 450 496 450 479 448 c 0,95,96
EndSplineSet
EndChar

StartChar: uni0D35
Encoding: 3381 3381 93
Width: 929
GlyphClass: 2
Flags: W
LayerCount: 2
Fore
SplineSet
864 40 m 1,0,-1
 864 389 l 1,1,-1
 864 442 l 1,2,-1
 865 470 l 1,3,4
 872 492 872 492 892 491 c 1,5,-1
 895 491 l 1,6,7
 912 488 912 488 918 472 c 1,8,-1
 918 470 l 1,9,-1
 918 469 l 1,10,-1
 919 439 l 1,11,-1
 919 383 l 1,12,-1
 919 101 l 1,13,-1
 919 30 l 2,14,15
 919 4 919 4 913 -4 c 0,16,17
 905 -15 905 -15 877 -15 c 2,18,-1
 801 -15 l 1,19,-1
 529 -15 l 2,20,21
 512 -15 512 -15 490 -20 c 1,22,23
 472 -26 472 -26 463 -26 c 0,24,25
 445 -25 445 -25 439 -7 c 1,26,-1
 438 -5 l 1,27,-1
 438 9 l 1,28,-1
 439 11 l 2,29,30
 442 18 442 18 451 27 c 2,31,-1
 452 28 l 1,32,-1
 468 47 l 1,33,34
 490 77 490 77 505 107 c 1,35,-1
 505 108 l 1,36,-1
 505 109 l 1,37,-1
 505 110 l 1,38,39
 554 222 554 222 517 315 c 1,40,-1
 514 323 l 1,41,42
 501 350 501 350 482 374 c 1,43,-1
 481 375 l 1,44,-1
 479 377 l 1,45,46
 461 398 461 398 437 413 c 1,47,-1
 436 414 l 1,48,49
 410 431 410 431 376 441 c 0,50,51
 285 465 285 465 207 413 c 0,52,53
 189 401 189 401 174 386 c 0,54,55
 138 350 138 350 122 300 c 1,56,-1
 122 299 l 1,57,58
 99 225 99 225 130 138 c 1,59,-1
 130 137 l 1,60,61
 145 93 145 93 171 55 c 1,62,-1
 172 54 l 1,63,-1
 173 53 l 1,64,-1
 191 30 l 1,65,-1
 205 12 l 1,66,67
 214 -7 214 -7 197 -20 c 1,68,-1
 186 -25 l 1,69,70
 167 -29 167 -29 147 -3 c 1,71,-1
 146 -2 l 1,72,-1
 145 -1 l 1,73,-1
 143 2 l 1,74,-1
 141 4 l 1,75,76
 100 53 100 53 75 125 c 1,77,-1
 75 126 l 1,78,79
 45 218 45 218 66 303 c 0,80,81
 78 351 78 351 109 395 c 1,82,83
 129 421 129 421 153 442 c 0,84,85
 180 465 180 465 216 481 c 1,86,-1
 217 481 l 1,87,88
 318 526 318 526 423 482 c 1,89,-1
 424 482 l 1,90,91
 486 456 486 456 528 405 c 0,92,93
 563 363 563 363 579 305 c 1,94,95
 589 262 589 262 586 215 c 1,96,-1
 586 214 l 1,97,98
 580 124 580 124 531 42 c 1,99,-1
 530 40 l 1,100,-1
 864 40 l 1,0,-1
EndSplineSet
EndChar

StartChar: uni0D36
Encoding: 3382 3382 94
Width: 878
GlyphClass: 2
Flags: W
LayerCount: 2
Fore
SplineSet
766 392 m 1,0,1
 727 445 727 445 660 448 c 1,2,-1
 659 448 l 1,3,4
 624 449 624 449 593 433 c 0,5,6
 547 410 547 410 520 356 c 0,7,8
 501 320 501 320 494 272 c 1,9,-1
 492 216 l 1,10,11
 489 182 489 182 478 144 c 1,12,-1
 478 143 l 1,13,14
 450 48 450 48 375 2 c 0,15,16
 350 -13 350 -13 324 -20 c 1,17,-1
 323 -20 l 1,18,19
 299 -26 299 -26 275 -26 c 0,20,21
 248 -26 248 -26 224 -19 c 1,22,-1
 223 -19 l 1,23,24
 193 -10 193 -10 169 5 c 1,25,-1
 168 6 l 1,26,27
 120 39 120 39 91 98 c 1,28,-1
 90 99 l 1,29,30
 37 205 37 205 71 315 c 1,31,-1
 71 316 l 1,32,-1
 71 317 l 1,33,34
 85 364 85 364 113 402 c 1,35,36
 160 462 160 462 232 491 c 1,37,-1
 233 491 l 1,38,39
 246 497 246 497 260 500 c 0,40,41
 276 504 276 504 284 501 c 0,42,43
 303 494 303 494 302 473 c 1,44,-1
 302 472 l 1,45,46
 301 459 301 459 290 453 c 0,47,48
 289 453 289 453 266 444 c 1,49,-1
 265 444 l 1,50,-1
 232 431 l 1,51,52
 157 393 157 393 128 317 c 1,53,54
 93 229 93 229 134 139 c 1,55,-1
 134 138 l 1,56,-1
 134 137 l 1,57,-1
 134 136 l 1,58,-1
 134 135 l 1,59,-1
 149 106 l 1,60,61
 188 42 188 42 256 30 c 0,62,63
 277 27 277 27 298 31 c 1,64,-1
 299 31 l 1,65,66
 378 45 378 45 417 135 c 0,67,68
 429 162 429 162 434 189 c 1,69,-1
 434 190 l 1,70,-1
 434 191 l 1,71,-1
 434 192 l 1,72,-1
 440 276 l 1,73,74
 452 384 452 384 521 449 c 1,75,-1
 522 450 l 1,76,77
 560 486 560 486 609 498 c 0,78,79
 649 508 649 508 688 500 c 1,80,-1
 691 499 l 1,81,-1
 692 499 l 1,82,83
 723 493 723 493 749 479 c 1,84,-1
 750 478 l 1,85,-1
 751 477 l 1,86,87
 774 464 774 464 794 444 c 0,88,89
 808 430 808 430 822 409 c 1,90,-1
 823 408 l 1,91,-1
 824 407 l 1,92,93
 889 308 889 308 865 136 c 1,94,95
 846 13 846 13 772 -17 c 1,96,-1
 745 -25 l 1,97,-1
 713 -25 l 1,98,99
 702 -24 702 -24 692 -19 c 0,100,101
 636 5 636 5 628 100 c 0,102,103
 618 215 618 215 690 317 c 1,104,-1
 702 333 l 1,105,106
 718 352 718 352 739 371 c 1,107,-1
 742 374 l 2,108,109
 752 384 752 384 766 392 c 1,0,1
795 346 m 1,110,111
 771 330 771 330 746 300 c 1,112,-1
 745 299 l 1,113,-1
 743 296 l 1,114,115
 682 220 682 220 682 126 c 2,116,-1
 682 125 l 1,117,-1
 682 124 l 1,118,-1
 682 123 l 1,119,-1
 682 122 l 1,120,-1
 682 121 l 1,121,-1
 682 120 l 2,122,123
 682 81 682 81 694 53 c 1,124,125
 704 34 704 34 718 30 c 0,126,127
 725 28 725 28 739 30 c 1,128,129
 779 39 779 39 799 94 c 1,130,-1
 800 96 l 1,131,-1
 800 97 l 1,132,133
 814 141 814 141 816 204 c 2,134,-1
 817 251 l 1,135,136
 814 301 814 301 796 344 c 1,137,-1
 795 346 l 1,110,111
EndSplineSet
EndChar

StartChar: uni0D37
Encoding: 3383 3383 95
Width: 1074
GlyphClass: 2
Flags: W
LayerCount: 2
Fore
SplineSet
674 284 m 1,0,-1
 610 283 l 1,1,-1
 587 287 l 1,2,3
 561 294 561 294 541 314 c 2,4,-1
 540 315 l 2,5,6
 525 330 525 330 515 353 c 1,7,8
 507 376 507 376 508 397 c 0,9,10
 510 453 510 453 559 485 c 1,11,-1
 560 486 l 1,12,-1
 561 486 l 1,13,-1
 561 486 l 1,14,15
 585 501 585 501 610 503 c 1,16,-1
 611 503 l 1,17,-1
 612 503 l 1,18,-1
 613 503 l 1,19,20
 635 504 635 504 659 495 c 0,21,22
 676 488 676 488 693 474 c 1,23,-1
 694 473 l 2,24,25
 711 457 711 457 720 434 c 1,26,-1
 721 433 l 1,27,28
 730 412 730 412 729 353 c 1,29,-1
 729 348 l 1,30,31
 746 350 746 350 787 363 c 1,32,-1
 788 363 l 1,33,34
 876 389 876 389 957 448 c 1,35,-1
 960 450 l 1,36,-1
 962 451 l 1,37,-1
 1005 486 l 1,38,39
 1028 507 1028 507 1046 499 c 1,40,-1
 1047 499 l 1,41,42
 1060 490 1060 490 1061 471 c 1,43,-1
 1061 470 l 1,44,-1
 1061 469 l 1,45,-1
 1061 468 l 1,46,-1
 1061 467 l 1,47,-1
 1061 466 l 1,48,-1
 1061 465 l 1,49,-1
 1061 399 l 1,50,-1
 1061 97 l 1,51,-1
 1061 40 l 1,52,-1
 1061 10 l 1,53,54
 1059 -8 1059 -8 1043 -13 c 1,55,-1
 1021 -15 l 1,56,-1
 988 -15 l 1,57,-1
 871 -15 l 1,58,-1
 475 -15 l 1,59,-1
 413 -15 l 2,60,61
 374 -15 374 -15 354 -19 c 2,62,-1
 317 -25 l 1,63,64
 309 -24 309 -24 303 -18 c 2,65,-1
 302 -17 l 2,66,67
 287 -1 287 -1 299 16 c 1,68,-1
 300 17 l 1,69,-1
 301 18 l 1,70,-1
 324 36 l 1,71,-1
 326 37 l 1,72,73
 347 54 347 54 362 76 c 0,74,75
 403 138 403 138 384 205 c 1,76,-1
 384 206 l 1,77,78
 378 227 378 227 366 245 c 0,79,80
 352 265 352 265 330 282 c 1,81,82
 315 292 315 292 290 301 c 1,83,84
 223 320 223 320 167 277 c 0,85,86
 152 266 152 266 141 252 c 1,87,-1
 126 227 l 1,88,89
 102 173 102 173 122 116 c 1,90,-1
 122 115 l 1,91,-1
 122 114 l 1,92,93
 136 75 136 75 166 46 c 1,94,-1
 187 30 l 2,95,96
 202 19 202 19 205 13 c 0,97,98
 215 -7 215 -7 196 -21 c 0,99,100
 186 -28 186 -28 175 -26 c 0,101,102
 167 -24 167 -24 149 -11 c 0,103,104
 117 12 117 12 98 40 c 0,105,106
 44 117 44 117 62 206 c 1,107,-1
 62 207 l 1,108,109
 72 254 72 254 101 290 c 0,110,111
 118 310 118 310 139 325 c 0,112,113
 211 377 211 377 300 354 c 0,114,115
 355 340 355 340 393 300 c 1,116,-1
 394 299 l 1,117,-1
 398 294 l 1,118,119
 425 263 425 263 437 223 c 0,120,121
 458 157 458 157 429 86 c 1,122,-1
 429 85 l 1,123,-1
 405 40 l 1,124,-1
 674 40 l 1,125,-1
 674 284 l 1,0,-1
611 448 m 1,126,-1
 595 443 l 1,127,128
 565 428 565 428 563 394 c 1,129,-1
 563 393 l 1,130,-1
 563 392 l 2,131,132
 563 370 563 370 577 355 c 2,133,-1
 578 354 l 2,134,135
 598 334 598 334 647 338 c 1,136,-1
 668 339 l 2,137,138
 673 340 673 340 674 348 c 1,139,-1
 674 350 l 1,140,-1
 674 351 l 1,141,-1
 674 384 l 2,142,143
 674 403 674 403 671 412 c 0,144,145
 657 448 657 448 616 448 c 2,146,-1
 611 448 l 1,126,-1
1006 415 m 1,147,-1
 980 396 l 1,148,-1
 933 366 l 1,149,150
 838 312 838 312 730 292 c 1,151,-1
 729 292 l 1,152,-1
 729 40 l 1,153,-1
 1006 40 l 1,154,-1
 1006 415 l 1,147,-1
EndSplineSet
EndChar

StartChar: uni0D38
Encoding: 3384 3384 96
Width: 1163
GlyphClass: 2
Flags: W
LayerCount: 2
Fore
SplineSet
462 374 m 1,0,-1
 481 412 l 1,1,2
 510 457 510 457 546 479 c 0,3,4
 614 521 614 521 690 491 c 0,5,6
 711 483 711 483 729 470 c 0,7,8
 766 443 766 443 789 394 c 1,9,-1
 790 393 l 1,10,-1
 791 392 l 1,11,12
 816 337 816 337 822 282 c 1,13,-1
 822 281 l 1,14,-1
 826 199 l 1,15,16
 832 144 832 144 858 97 c 1,17,18
 881 60 881 60 909 44 c 0,19,20
 958 14 958 14 1010 40 c 1,21,-1
 1017 44 l 2,22,23
 1037 56 1037 56 1051 75 c 0,24,25
 1079 110 1079 110 1093 165 c 1,26,27
 1115 261 1115 261 1079 354 c 1,28,-1
 1077 359 l 1,29,-1
 1077 360 l 1,30,31
 1059 402 1059 402 1027 441 c 1,32,-1
 1024 445 l 1,33,34
 1004 468 1004 468 1007 481 c 1,35,-1
 1010 489 l 1,36,37
 1019 506 1019 506 1040 502 c 1,38,-1
 1043 501 l 1,39,-1
 1058 490 l 1,40,-1
 1059 489 l 1,41,42
 1096 449 1096 449 1124 390 c 1,43,44
 1178 271 1178 271 1144 143 c 1,45,-1
 1125 92 l 1,46,-1
 1125 91 l 1,47,48
 1091 13 1091 13 1022 -15 c 0,49,50
 1004 -22 1004 -22 974 -26 c 1,51,-1
 937 -24 l 1,52,53
 905 -19 905 -19 878 -2 c 1,54,-1
 876 -1 l 1,55,56
 788 55 788 55 771 194 c 1,57,-1
 771 195 l 1,58,-1
 769 252 l 2,59,60
 767 288 767 288 758 323 c 1,61,-1
 757 325 l 1,62,-1
 757 326 l 1,63,64
 734 409 734 409 677 437 c 1,65,-1
 677 437 l 1,66,67
 657 447 657 447 634 448 c 1,68,-1
 633 448 l 1,69,-1
 604 445 l 1,70,71
 544 429 544 429 514 354 c 0,72,73
 495 306 495 306 492 252 c 1,74,-1
 492 203 l 1,75,-1
 492 112 l 1,76,-1
 492 44 l 1,77,-1
 491 8 l 1,78,79
 488 -10 488 -10 470 -14 c 1,80,-1
 462 -14 l 1,81,82
 443 -13 443 -13 438 6 c 1,83,-1
 437 11 l 1,84,-1
 437 52 l 1,85,-1
 437 130 l 1,86,-1
 437 210 l 1,87,-1
 436 267 l 1,88,89
 428 336 428 336 392 385 c 0,90,91
 379 403 379 403 364 415 c 0,92,93
 342 432 342 432 322 440 c 0,94,95
 299 448 299 448 270 448 c 0,96,97
 200 447 200 447 153 378 c 1,98,-1
 141 357 l 1,99,100
 88 254 88 254 131 133 c 1,101,-1
 131 132 l 1,102,-1
 131 131 l 1,103,-1
 138 114 l 2,104,105
 152 82 152 82 176 49 c 1,106,-1
 177 47 l 1,107,-1
 193 28 l 2,108,109
 205 14 205 14 206 9 c 0,110,111
 213 -12 213 -12 193 -23 c 0,112,113
 180 -30 180 -30 167 -23 c 1,114,-1
 166 -22 l 1,115,116
 157 -17 157 -17 142 3 c 1,117,118
 114 37 114 37 97 73 c 0,119,120
 41 185 41 185 65 303 c 1,121,-1
 65 304 l 1,122,-1
 65 305 l 1,123,124
 82 391 82 391 141 449 c 2,125,-1
 142 450 l 1,126,-1
 143 451 l 1,127,128
 164 470 164 470 192 484 c 1,129,-1
 193 485 l 1,130,131
 217 495 217 495 241 500 c 1,132,-1
 242 500 l 1,133,134
 270 504 270 504 286 503 c 0,135,136
 380 496 380 496 438 415 c 0,137,138
 452 396 452 396 462 375 c 1,139,-1
 462 374 l 1,0,-1
EndSplineSet
EndChar

StartChar: uni0D39
Encoding: 3385 3385 97
Width: 1116
GlyphClass: 2
Flags: W
LayerCount: 2
Fore
SplineSet
636 40 m 1,0,-1
 619 71 l 2,1,2
 607 94 607 94 599 119 c 0,3,4
 552 252 552 252 611 362 c 1,5,-1
 611 363 l 1,6,-1
 611 364 l 1,7,-1
 612 366 l 1,8,-1
 613 368 l 2,9,10
 630 401 630 401 662 431 c 1,11,-1
 663 432 l 1,12,-1
 664 433 l 1,13,14
 742 505 742 505 845 503 c 1,15,-1
 846 503 l 1,16,-1
 847 503 l 1,17,-1
 855 503 l 1,18,19
 938 500 938 500 1005 449 c 1,20,-1
 1006 448 l 1,21,22
 1034 427 1034 427 1058 395 c 1,23,-1
 1059 394 l 1,24,25
 1089 351 1089 351 1101 303 c 0,26,27
 1128 193 1128 193 1074 81 c 1,28,-1
 1064 62 l 2,29,30
 1042 22 1042 22 1017 -6 c 1,31,32
 1000 -27 1000 -27 983 -26 c 0,33,34
 965 -24 965 -24 960 -7 c 1,35,-1
 960 -5 l 1,36,37
 958 4 958 4 962 12 c 1,38,-1
 975 30 l 1,39,-1
 994 54 l 1,40,41
 1023 94 1023 94 1038 140 c 0,42,43
 1063 218 1063 218 1049 282 c 1,44,-1
 1049 283 l 1,45,-1
 1049 284 l 1,46,-1
 1049 286 l 1,47,48
 1029 368 1029 368 957 414 c 1,49,-1
 955 416 l 1,50,-1
 943 423 l 2,51,52
 904 445 904 445 855 448 c 0,53,54
 765 454 765 454 697 387 c 2,55,-1
 696 386 l 2,56,57
 655 345 655 345 640 289 c 1,58,59
 622 216 622 216 651 136 c 0,60,61
 670 85 670 85 694 54 c 2,62,-1
 714 29 l 1,63,-1
 726 13 l 1,64,65
 736 -5 736 -5 720 -19 c 1,66,-1
 719 -20 l 1,67,-1
 709 -25 l 1,68,69
 702 -27 702 -27 676 -20 c 1,70,71
 651 -15 651 -15 631 -15 c 2,72,-1
 392 -15 l 1,73,-1
 354 -19 l 1,74,-1
 351 -20 l 1,75,-1
 322 -26 l 1,76,77
 304 -26 304 -26 297 -8 c 0,78,79
 290 8 290 8 303 20 c 2,80,-1
 304 21 l 1,81,-1
 324 35 l 1,82,83
 346 54 346 54 361 76 c 1,84,-1
 362 77 l 1,85,-1
 363 78 l 1,86,87
 405 142 405 142 383 210 c 1,88,-1
 383 211 l 1,89,90
 373 239 373 239 352 263 c 1,91,-1
 351 264 l 2,92,93
 337 278 337 278 318 289 c 0,94,95
 299 301 299 301 276 304 c 1,96,-1
 275 304 l 1,97,-1
 274 304 l 1,98,99
 206 315 206 315 155 267 c 1,100,-1
 154 266 l 1,101,-1
 134 241 l 1,102,103
 121 220 121 220 116 195 c 0,104,105
 106 152 106 152 126 104 c 0,106,107
 140 71 140 71 168 44 c 1,108,-1
 187 30 l 1,109,-1
 204 14 l 1,110,-1
 204 14 l 1,111,112
 215 -5 215 -5 197 -20 c 1,113,-1
 196 -20 l 1,114,115
 187 -26 187 -26 177 -26 c 1,116,117
 168 -25 168 -25 149 -11 c 0,118,119
 115 15 115 15 95 46 c 1,120,-1
 94 47 l 1,121,122
 43 125 43 125 64 212 c 1,123,-1
 64 213 l 1,124,125
 75 263 75 263 109 299 c 0,126,127
 128 320 128 320 154 335 c 0,128,129
 230 379 230 379 316 350 c 1,130,131
 368 331 368 331 402 289 c 1,132,-1
 403 288 l 1,133,-1
 404 287 l 1,134,135
 428 255 428 255 438 221 c 1,136,-1
 438 220 l 1,137,-1
 445 183 l 1,138,139
 448 141 448 141 433 98 c 1,140,-1
 433 97 l 1,141,-1
 432 95 l 1,142,143
 431 90 431 90 429 86 c 1,144,-1
 429 85 l 1,145,-1
 405 40 l 1,146,-1
 636 40 l 1,0,-1
EndSplineSet
EndChar

StartChar: uni0D3E
Encoding: 3390 3390 98
Width: 453
GlyphClass: 2
Flags: W
LayerCount: 2
Fore
SplineSet
238 503 m 1,0,1
 305 509 305 509 358 464 c 1,2,-1
 360 462 l 1,3,4
 394 432 394 432 416 382 c 0,5,6
 467 268 467 268 433 146 c 1,7,-1
 433 145 l 1,8,-1
 433 144 l 1,9,-1
 433 143 l 1,10,11
 426 117 426 117 415 93 c 2,12,-1
 414 91 l 1,13,14
 379 13 379 13 308 -16 c 1,15,-1
 284 -23 l 2,16,17
 271 -26 271 -26 243 -26 c 1,18,19
 157 -22 157 -22 100 41 c 1,20,-1
 99 42 l 1,21,-1
 80 67 l 1,22,-1
 61 105 l 1,23,24
 56 118 56 118 59 128 c 1,25,-1
 60 130 l 1,26,27
 68 149 68 149 90 146 c 1,28,-1
 103 141 l 1,29,-1
 104 140 l 2,30,31
 109 135 109 135 116 117 c 0,32,33
 124 99 124 99 132 90 c 0,34,35
 171 38 171 38 233 29 c 0,36,37
 252 27 252 27 269 31 c 1,38,-1
 271 31 l 1,39,40
 334 44 334 44 367 121 c 1,41,-1
 368 123 l 1,42,-1
 371 130 l 1,43,44
 409 228 409 228 377 330 c 1,45,-1
 368 355 l 1,46,47
 342 416 342 416 298 437 c 0,48,49
 242 465 242 465 179 429 c 0,50,51
 156 415 156 415 139 396 c 1,52,-1
 138 395 l 2,53,54
 126 382 126 382 118 365 c 1,55,-1
 118 364 l 1,56,-1
 107 341 l 1,57,-1
 106 340 l 1,58,-1
 105 338 l 1,59,60
 91 322 91 322 72 333 c 0,61,62
 64 338 64 338 61 345 c 0,63,64
 56 355 56 355 62 373 c 1,65,-1
 62 374 l 1,66,-1
 81 411 l 1,67,68
 122 471 122 471 188 494 c 1,69,-1
 189 494 l 1,70,-1
 190 494 l 1,71,72
 206 499 206 499 238 503 c 1,0,1
EndSplineSet
EndChar

StartChar: uni0D3F
Encoding: 3391 3391 99
Width: 218
GlyphClass: 2
Flags: W
LayerCount: 2
Fore
SplineSet
-2 740 m 1,0,-1
 33 739 l 1,1,2
 120 730 120 730 170 638 c 1,3,-1
 185 604 l 1,4,5
 205 554 205 554 208 492 c 1,6,-1
 208 491 l 1,7,-1
 208 409 l 1,8,-1
 208 186 l 1,9,-1
 208 23 l 2,10,11
 208 -9 208 -9 201 -18 c 1,12,-1
 192 -24 l 1,13,-1
 183 -26 l 1,14,15
 160 -28 160 -28 154 -5 c 1,16,-1
 153 -2 l 1,17,-1
 153 42 l 1,18,-1
 153 126 l 1,19,-1
 153 412 l 1,20,-1
 153 489 l 1,21,22
 148 568 148 568 117 620 c 1,23,24
 91 661 91 661 56 677 c 1,25,-1
 55 677 l 1,26,27
 30 687 30 687 -4 684 c 0,28,29
 -69 678 -69 678 -102 645 c 0,30,31
 -116 630 -116 630 -121 615 c 1,32,-1
 -128 581 l 1,33,34
 -131 574 -131 574 -139 570 c 2,35,-1
 -147 567 l 1,36,-1
 -158 567 l 1,37,38
 -190 575 -190 575 -173 633 c 1,39,-1
 -168 646 l 1,40,-1
 -160 661 l 1,41,42
 -118 727 -118 727 -2 740 c 1,0,-1
EndSplineSet
EndChar

StartChar: uni0D40
Encoding: 3392 3392 100
Width: 312
GlyphClass: 2
Flags: W
LayerCount: 2
Fore
SplineSet
90 683 m 1,0,1
 107 672 107 672 118 655 c 0,2,3
 151 605 151 605 128 551 c 1,4,-1
 128 550 l 1,5,6
 117 525 117 525 96 508 c 0,7,8
 82 497 82 497 68 491 c 1,9,-1
 67 491 l 1,10,11
 48 483 48 483 23 483 c 0,12,13
 -30 484 -30 484 -63 529 c 1,14,-1
 -64 530 l 1,15,-1
 -65 531 l 1,16,-1
 -73 545 l 1,17,18
 -88 576 -88 576 -83 611 c 1,19,-1
 -83 612 l 1,20,-1
 -75 641 l 1,21,22
 -44 714 -44 714 55 735 c 1,23,-1
 57 735 l 1,24,-1
 88 739 l 1,25,26
 137 742 137 742 171 728 c 0,27,28
 257 692 257 692 289 578 c 1,29,-1
 291 570 l 2,30,31
 303 521 303 521 303 411 c 2,32,-1
 303 410 l 1,33,-1
 303 409 l 1,34,-1
 303 408 l 1,35,-1
 303 407 l 1,36,-1
 303 406 l 1,37,-1
 303 402 l 1,38,-1
 303 401 l 1,39,-1
 303 400 l 1,40,-1
 303 177 l 1,41,-1
 303 21 l 2,42,43
 303 -12 303 -12 293 -20 c 1,44,-1
 287 -24 l 1,45,-1
 278 -26 l 1,46,47
 255 -27 255 -27 249 -5 c 1,48,-1
 248 0 l 1,49,-1
 248 48 l 1,50,-1
 248 140 l 1,51,-1
 248 398 l 2,52,53
 248 502 248 502 243 533 c 1,54,-1
 232 576 l 1,55,56
 204 657 204 657 145 679 c 1,57,-1
 123 684 l 2,58,59
 106 687 106 687 91 683 c 1,60,-1
 90 683 l 1,0,1
19 649 m 1,61,-1
 -1 642 l 1,62,63
 -31 623 -31 623 -29 588 c 1,64,-1
 -29 587 l 1,65,66
 -26 567 -26 567 -12 553 c 2,67,-1
 -11 552 l 1,68,-1
 7 541 l 1,69,70
 19 536 19 536 33 538 c 1,71,-1
 52 545 l 1,72,-1
 53 545 l 1,73,74
 84 562 84 562 82 598 c 0,75,76
 80 619 80 619 65 634 c 1,77,-1
 48 645 l 1,78,79
 35 651 35 651 19 649 c 1,61,-1
EndSplineSet
EndChar

StartChar: uni0D41
Encoding: 3393 3393 101
Width: 310
GlyphClass: 2
Flags: W
LayerCount: 2
Fore
SplineSet
209 25 m 1,0,1
 222 23 222 23 244 11 c 1,2,3
 296 -21 296 -21 302 -82 c 0,4,5
 305 -104 305 -104 299 -125 c 0,6,7
 284 -180 284 -180 231 -204 c 1,8,-1
 230 -205 l 1,9,10
 208 -215 208 -215 186 -216 c 1,11,-1
 185 -216 l 1,12,13
 158 -217 158 -217 128 -204 c 1,14,15
 76 -179 76 -179 62 -122 c 0,16,17
 56 -98 56 -98 60 -75 c 0,18,19
 68 -24 68 -24 110 7 c 0,20,21
 125 17 125 17 138 21 c 1,22,-1
 153 29 l 1,23,-1
 154 40 l 1,24,-1
 155 56 l 1,25,-1
 160 106 l 1,26,-1
 174 239 l 1,27,-1
 176 295 l 1,28,29
 171 371 171 371 118 420 c 1,30,-1
 117 421 l 1,31,-1
 116 422 l 1,32,-1
 90 441 l 1,33,-1
 64 459 l 1,34,35
 59 465 59 465 58 474 c 1,36,-1
 58 474 l 1,37,-1
 58 476 l 1,38,-1
 60 484 l 1,39,40
 67 505 67 505 90 502 c 1,41,-1
 97 500 l 1,42,-1
 127 484 l 2,43,44
 133 480 133 480 139 475 c 2,45,-1
 165 451 l 1,46,47
 215 399 215 399 228 326 c 1,48,49
 234 285 234 285 229 240 c 1,50,-1
 229 239 l 1,51,-1
 218 127 l 1,52,53
 209 52 209 52 209 27 c 2,54,-1
 209 26 l 1,55,-1
 209 25 l 1,0,1
172 -26 m 1,56,-1
 152 -32 l 2,57,58
 150 -33 150 -33 149 -34 c 0,59,60
 137 -41 137 -41 130 -49 c 0,61,62
 102 -80 102 -80 118 -119 c 1,63,-1
 118 -120 l 1,64,65
 124 -132 124 -132 133 -142 c 2,66,-1
 134 -143 l 2,67,68
 145 -153 145 -153 158 -157 c 1,69,70
 172 -163 172 -163 188 -161 c 0,71,72
 201 -159 201 -159 212 -153 c 0,73,74
 224 -146 224 -146 231 -138 c 0,75,76
 259 -105 259 -105 242 -66 c 0,77,78
 237 -55 237 -55 229 -46 c 2,79,-1
 228 -45 l 2,80,81
 218 -36 218 -36 204 -30 c 0,82,83
 190 -25 190 -25 174 -26 c 1,84,-1
 173 -26 l 1,85,-1
 172 -26 l 1,56,-1
EndSplineSet
EndChar

StartChar: uni0D42
Encoding: 3394 3394 102
Width: 342
GlyphClass: 2
Flags: W
LayerCount: 2
Fore
SplineSet
282 -115 m 1,0,1
 261 -127 261 -127 243 -131 c 1,2,-1
 242 -131 l 1,3,-1
 241 -131 l 1,4,5
 186 -141 186 -141 144 -111 c 0,6,7
 120 -94 120 -94 114 -68 c 1,8,-1
 112 -48 l 1,9,10
 115 -10 115 -10 145 10 c 1,11,12
 155 18 155 18 165 21 c 1,13,14
 175 26 175 26 176 29 c 2,15,-1
 177 40 l 1,16,-1
 178 56 l 1,17,-1
 184 109 l 1,18,-1
 198 240 l 1,19,-1
 200 296 l 1,20,21
 195 373 195 373 140 421 c 1,22,-1
 139 422 l 1,23,-1
 110 444 l 1,24,-1
 89 457 l 1,25,26
 74 473 74 473 87 491 c 1,27,-1
 88 492 l 2,28,29
 90 495 90 495 94 498 c 0,30,31
 109 509 109 509 144 488 c 1,32,-1
 147 486 l 2,33,34
 207 447 207 447 237 378 c 1,35,36
 252 339 252 339 255 297 c 1,37,-1
 254 255 l 2,38,39
 252 213 252 213 242 131 c 2,40,-1
 234 61 l 1,41,-1
 232 31 l 1,42,-1
 232 30 l 1,43,44
 233 26 233 26 244 23 c 1,45,-1
 246 22 l 1,46,-1
 248 21 l 1,47,-1
 249 21 l 1,48,49
 267 14 267 14 288 -1 c 0,50,51
 294 -5 294 -5 312 -26 c 2,52,-1
 323 -38 l 1,53,-1
 329 -58 l 1,54,55
 345 -103 345 -103 332 -144 c 1,56,-1
 332 -145 l 1,57,58
 327 -163 327 -163 314 -183 c 1,59,-1
 313 -184 l 1,60,61
 299 -202 299 -202 286 -212 c 0,62,63
 230 -254 230 -254 162 -234 c 0,64,65
 140 -227 140 -227 122 -214 c 1,66,67
 91 -194 91 -194 75 -156 c 0,68,69
 64 -131 64 -131 79 -117 c 0,70,71
 87 -110 87 -110 95 -110 c 0,72,73
 103 -109 103 -109 112 -114 c 1,74,-1
 113 -115 l 1,75,-1
 114 -116 l 1,76,-1
 115 -117 l 1,77,-1
 117 -119 l 1,78,-1
 130 -143 l 2,79,80
 137 -155 137 -155 151 -167 c 1,81,-1
 152 -168 l 1,82,-1
 155 -170 l 1,83,-1
 158 -172 l 2,84,85
 183 -188 183 -188 211 -185 c 1,86,-1
 212 -185 l 1,87,-1
 213 -185 l 1,88,89
 253 -179 253 -179 273 -143 c 1,90,-1
 274 -142 l 1,91,92
 281 -129 281 -129 282 -116 c 1,93,-1
 282 -115 l 1,0,1
197 -26 m 1,94,95
 175 -29 175 -29 169 -45 c 0,96,97
 166 -51 166 -51 169 -58 c 2,98,-1
 172 -64 l 1,99,100
 189 -80 189 -80 226 -78 c 0,101,102
 240 -77 240 -77 256 -66 c 0,103,104
 265 -59 265 -59 263 -54 c 256,105,106
 261 -49 261 -49 250 -41 c 0,107,108
 227 -24 227 -24 198 -26 c 1,109,-1
 197 -26 l 1,94,95
283 -114 m 1,110,-1
 282 -114 l 1,111,-1
 283 -114 l 1,110,-1
EndSplineSet
EndChar

StartChar: uni0D43
Encoding: 3395 3395 103
Width: 403
GlyphClass: 2
Flags: W
LayerCount: 2
Fore
SplineSet
172 -194 m 1,0,1
 207 -210 207 -210 232 -209 c 1,2,-1
 233 -209 l 1,3,4
 289 -206 289 -206 322 -160 c 1,5,-1
 333 -140 l 1,6,7
 342 -117 342 -117 342 -86 c 2,8,-1
 342 -85 l 1,9,10
 340 -21 340 -21 291 89 c 1,11,-1
 272 130 l 1,12,13
 243 197 243 197 231 244 c 1,14,-1
 220 314 l 1,15,-1
 221 355 l 1,16,17
 224 409 224 409 241 452 c 1,18,19
 254 488 254 488 271 491 c 1,20,-1
 278 491 l 1,21,22
 299 488 299 488 302 468 c 1,23,-1
 302 459 l 1,24,-1
 294 437 l 1,25,-1
 284 404 l 1,26,27
 271 352 271 352 277 298 c 1,28,-1
 277 297 l 1,29,-1
 277 296 l 1,30,31
 284 242 284 242 317 165 c 2,32,-1
 370 42 l 1,33,34
 383 6 383 6 390 -26 c 1,35,-1
 390 -28 l 1,36,37
 399 -75 399 -75 397 -104 c 0,38,39
 392 -174 392 -174 341 -221 c 1,40,41
 283 -272 283 -272 205 -262 c 0,42,43
 187 -260 187 -260 169 -253 c 0,44,45
 131 -238 131 -238 103 -207 c 1,46,-1
 84 -179 l 1,47,48
 45 -111 45 -111 63 -49 c 0,49,50
 70 -27 70 -27 84 -10 c 1,51,-1
 106 9 l 1,52,53
 122 21 122 21 144 26 c 1,54,-1
 145 26 l 1,55,56
 168 31 168 31 187 27 c 1,57,-1
 188 27 l 1,58,59
 205 24 205 24 224 14 c 0,60,61
 235 8 235 8 253 -10 c 1,62,63
 291 -54 291 -54 274 -112 c 0,64,65
 268 -132 268 -132 256 -148 c 1,66,-1
 255 -150 l 1,67,-1
 254 -152 l 1,68,69
 233 -180 233 -180 198 -189 c 1,70,-1
 172 -194 l 1,0,1
161 -26 m 1,71,-1
 141 -33 l 1,72,73
 110 -51 110 -51 113 -88 c 0,74,75
 115 -109 115 -109 131 -124 c 1,76,-1
 150 -135 l 1,77,78
 162 -140 162 -140 175 -138 c 1,79,-1
 194 -132 l 1,80,81
 223 -116 223 -116 224 -81 c 1,82,-1
 224 -80 l 1,83,84
 223 -57 223 -57 207 -41 c 1,85,-1
 190 -30 l 1,86,87
 177 -24 177 -24 162 -26 c 1,88,-1
 161 -26 l 1,71,-1
EndSplineSet
EndChar

StartChar: uni0D46
Encoding: 3398 3398 104
Width: 595
GlyphClass: 2
Flags: W
LayerCount: 2
Fore
SplineSet
114 249 m 1,0,1
 119 259 119 259 135 275 c 0,2,3
 183 321 183 321 247 312 c 1,4,-1
 248 312 l 1,5,6
 269 309 269 309 286 300 c 2,7,-1
 288 299 l 1,8,-1
 290 298 l 1,9,10
 346 266 346 266 368 195 c 1,11,-1
 368 194 l 1,12,-1
 368 193 l 1,13,14
 389 112 389 112 347 45 c 1,15,-1
 346 43 l 1,16,-1
 345 42 l 1,17,-1
 331 23 l 2,18,19
 316 4 316 4 291 -10 c 1,20,-1
 290 -11 l 1,21,22
 236 -39 236 -39 179 -17 c 1,23,-1
 176 -16 l 1,24,25
 141 -3 141 -3 116 30 c 1,26,27
 79 76 79 76 65 155 c 1,28,-1
 65 156 l 1,29,30
 49 253 49 253 71 321 c 1,31,-1
 71 322 l 1,32,33
 103 418 103 418 193 469 c 0,34,35
 221 484 221 484 249 493 c 1,36,-1
 251 494 l 1,37,-1
 252 494 l 1,38,-1
 253 494 l 1,39,-1
 254 494 l 1,40,41
 305 508 305 508 363 500 c 0,42,43
 415 492 415 492 459 465 c 0,44,45
 485 448 485 448 511 424 c 1,46,-1
 512 423 l 2,47,48
 529 406 529 406 545 382 c 0,49,50
 612 277 612 277 574 140 c 1,51,-1
 564 109 l 1,52,53
 544 52 544 52 502 1 c 0,54,55
 480 -27 480 -27 463 -26 c 1,56,-1
 462 -26 l 1,57,-1
 458 -25 l 2,58,59
 441 -21 441 -21 438 -6 c 1,60,-1
 438 -4 l 1,61,-1
 438 -2 l 1,62,-1
 438 0 l 2,63,64
 438 9 438 9 442 16 c 1,65,-1
 443 17 l 1,66,-1
 461 39 l 1,67,-1
 490 80 l 1,68,69
 547 180 547 180 528 279 c 0,70,71
 523 303 523 303 513 326 c 1,72,73
 475 404 475 404 396 434 c 0,74,75
 364 447 364 447 332 448 c 1,76,-1
 331 448 l 1,77,-1
 330 448 l 1,78,79
 239 450 239 450 174 386 c 2,80,-1
 173 385 l 2,81,82
 143 355 143 355 128 316 c 0,83,84
 112 276 112 276 114 250 c 1,85,-1
 114 249 l 1,0,1
219 258 m 1,86,87
 175 254 175 254 151 205 c 1,88,89
 123 151 123 151 146 94 c 1,90,-1
 146 93 l 1,91,-1
 154 76 l 1,92,93
 177 41 177 41 208 31 c 1,94,-1
 209 31 l 1,95,-1
 210 31 l 1,96,-1
 236 29 l 1,97,98
 281 33 281 33 306 83 c 1,99,-1
 308 88 l 1,100,101
 334 150 334 150 304 207 c 1,102,-1
 301 212 l 2,103,104
 281 247 281 247 246 256 c 1,105,-1
 219 258 l 1,86,87
EndSplineSet
EndChar

StartChar: uni0D47
Encoding: 3399 3399 105
Width: 502
GlyphClass: 2
Flags: W
LayerCount: 2
Fore
SplineSet
320 30 m 1,0,1
 286 72 286 72 298 118 c 0,2,3
 303 138 303 138 314 154 c 1,4,-1
 315 155 l 1,5,-1
 316 156 l 1,6,7
 349 198 349 198 401 194 c 1,8,-1
 402 194 l 1,9,10
 421 192 421 192 438 183 c 1,11,-1
 443 181 l 1,12,-1
 444 180 l 1,13,-1
 446 179 l 1,14,15
 491 149 491 149 492 95 c 0,16,17
 492 75 492 75 482 55 c 1,18,-1
 481 52 l 1,19,-1
 481 51 l 1,20,-1
 481 50 l 1,21,22
 466 20 466 20 430 1 c 1,23,24
 401 -16 401 -16 351 -23 c 1,25,-1
 350 -23 l 1,26,27
 282 -32 282 -32 232 -16 c 0,28,29
 210 -9 210 -9 187 4 c 0,30,31
 97 55 97 55 68 163 c 0,32,33
 57 205 57 205 58 247 c 1,34,-1
 58 248 l 1,35,-1
 58 249 l 1,36,37
 61 355 61 355 133 431 c 0,38,39
 175 474 175 474 229 492 c 1,40,-1
 230 492 l 1,41,42
 287 511 287 511 355 499 c 0,43,44
 408 489 408 489 434 474 c 0,45,46
 465 456 465 456 480 429 c 1,47,-1
 481 428 l 1,48,-1
 490 402 l 1,49,50
 497 372 497 372 482 342 c 1,51,-1
 482 341 l 1,52,-1
 482 340 l 1,53,-1
 482 339 l 1,54,-1
 479 334 l 1,55,-1
 479 333 l 1,56,-1
 477 330 l 1,57,-1
 477 329 l 1,58,59
 465 309 465 309 446 297 c 0,60,61
 431 287 431 287 410 284 c 1,62,63
 395 280 395 280 372 284 c 1,64,65
 356 288 356 288 340 298 c 1,66,-1
 318 318 l 1,67,-1
 317 319 l 1,68,69
 281 363 281 363 302 416 c 1,70,-1
 303 417 l 1,71,72
 309 434 309 434 321 447 c 1,73,74
 283 452 283 452 246 439 c 1,75,-1
 245 439 l 1,76,-1
 244 439 l 1,77,-1
 206 420 l 1,78,79
 131 371 131 371 116 276 c 0,80,81
 108 228 108 228 121 179 c 1,82,-1
 121 178 l 1,83,84
 143 96 143 96 211 55 c 1,85,-1
 212 54 l 1,86,87
 245 34 245 34 282 30 c 1,88,-1
 283 30 l 1,89,-1
 320 30 l 1,0,1
387 424 m 1,90,-1
 371 418 l 1,91,92
 346 402 346 402 351 371 c 1,93,-1
 351 370 l 1,94,95
 356 348 356 348 378 340 c 1,96,-1
 379 339 l 1,97,-1
 399 337 l 1,98,-1
 415 343 l 1,99,100
 441 358 441 358 436 388 c 0,101,102
 433 408 433 408 416 417 c 1,103,-1
 415 418 l 1,104,-1
 411 420 l 2,105,106
 403 424 403 424 387 424 c 1,90,-1
387 139 m 1,107,-1
 371 133 l 1,108,109
 346 117 346 117 351 86 c 1,110,-1
 351 85 l 1,111,112
 356 62 356 62 379 54 c 1,113,-1
 399 52 l 1,114,-1
 415 58 l 1,115,116
 441 73 441 73 436 103 c 0,117,118
 433 123 433 123 416 132 c 1,119,-1
 415 133 l 1,120,-1
 411 135 l 2,121,122
 403 139 403 139 387 139 c 1,107,-1
EndSplineSet
EndChar

